<mxfile host="app.diagrams.net" modified="2022-04-13T15:46:35.071Z" agent="5.0 (Macintosh)" etag="CXgt-8KcnBDjWfIKqRDs" version="17.4.3" type="github">
  <diagram id="I4ArWE17AxhWUHcjtzLY" name="Page-1">
    <mxGraphModel dx="1113" dy="662" grid="1" gridSize="10" guides="1" tooltips="1" connect="1" arrows="1" fold="1" page="1" pageScale="1" pageWidth="850" pageHeight="1100" math="0" shadow="0">
      <root>
        <mxCell id="0" />
        <mxCell id="1" parent="0" />
        <mxCell id="WcIHjXTgU18qXfyDGFov-1" value="" style="shape=image;verticalLabelPosition=bottom;labelBackgroundColor=default;verticalAlign=top;aspect=fixed;imageAspect=0;image=data:image/svg+xml,PHN2ZyB4bWxuczpkYz0iaHR0cDovL3B1cmwub3JnL2RjL2VsZW1lbnRzLzEuMS8iIHhtbG5zOmNjPSJodHRwOi8vY3JlYXRpdmVjb21tb25zLm9yZy9ucyMiIHhtbG5zOnJkZj0iaHR0cDovL3d3dy53My5vcmcvMTk5OS8wMi8yMi1yZGYtc3ludGF4LW5zIyIgeG1sbnM6c3ZnPSJodHRwOi8vd3d3LnczLm9yZy8yMDAwL3N2ZyIgeG1sbnM9Imh0dHA6Ly93d3cudzMub3JnLzIwMDAvc3ZnIiB4bWxuczp4bGluaz0iaHR0cDovL3d3dy53My5vcmcvMTk5OS94bGluayIgeG1sbnM6c29kaXBvZGk9Imh0dHA6Ly9zb2RpcG9kaS5zb3VyY2Vmb3JnZS5uZXQvRFREL3NvZGlwb2RpLTAuZHRkIiB4bWxuczppbmtzY2FwZT0iaHR0cDovL3d3dy5pbmtzY2FwZS5vcmcvbmFtZXNwYWNlcy9pbmtzY2FwZSIgd2lkdGg9IjI3NW1tIiBoZWlnaHQ9IjE0MG1tIiB2aWV3Qm94PSIwIDAgMjc1IDE0MCIgdmVyc2lvbj0iMS4xIiBpZD0ic3ZnOCIgaW5rc2NhcGU6dmVyc2lvbj0iMC45Mi4zICgyNDA1NTQ2LCAyMDE4LTAzLTExKSIgc29kaXBvZGk6ZG9jbmFtZT0iZmNsX3NvYS5zdmciIGlua3NjYXBlOmV4cG9ydC1maWxlbmFtZT0iQzpcVXNlcnNcTk5ZMUZFXERlc2t0b3BcV29ya1x2bS1zaGFyZVxmY2xfc29hLnBuZyIgaW5rc2NhcGU6ZXhwb3J0LXhkcGk9IjMwMCIgaW5rc2NhcGU6ZXhwb3J0LXlkcGk9IjMwMCI+JiN4YTsgIDxkZWZzIGlkPSJkZWZzMiI+JiN4YTsgICAgPG1hcmtlciBpbmtzY2FwZTpzdG9ja2lkPSJBcnJvdzFMc3RhcnQiIG9yaWVudD0iYXV0byIgcmVmWT0iMCIgcmVmWD0iMCIgaWQ9Im1hcmtlcjg2ODkiIHN0eWxlPSJvdmVyZmxvdzp2aXNpYmxlIiBpbmtzY2FwZTppc3N0b2NrPSJ0cnVlIj4mI3hhOyAgICAgIDxwYXRoIGlkPSJwYXRoODY4NyIgZD0iTSAwLDAgNSwtNSAtMTIuNSwwIDUsNSBaIiBzdHlsZT0iZmlsbDojZGE2ZmZmO2ZpbGwtb3BhY2l0eToxO2ZpbGwtcnVsZTpldmVub2RkO3N0cm9rZTojZGE2ZmZmO3N0cm9rZS13aWR0aDoxLjAwMDAwMDAzcHQ7c3Ryb2tlLW9wYWNpdHk6MSIgdHJhbnNmb3JtPSJtYXRyaXgoMC44LDAsMCwwLjgsMTAsMCkiIGlua3NjYXBlOmNvbm5lY3Rvci1jdXJ2YXR1cmU9IjAiLz4mI3hhOyAgICA8L21hcmtlcj4mI3hhOyAgICA8bWFya2VyIGlua3NjYXBlOnN0b2NraWQ9IkFycm93MkxzdGFydCIgb3JpZW50PSJhdXRvIiByZWZZPSIwIiByZWZYPSIwIiBpZD0ibWFya2VyODA0OSIgc3R5bGU9Im92ZXJmbG93OnZpc2libGUiIGlua3NjYXBlOmlzc3RvY2s9InRydWUiPiYjeGE7ICAgICAgPHBhdGggaWQ9InBhdGg4MDQ3IiBzdHlsZT0iZmlsbDojMDA2YzAyO2ZpbGwtb3BhY2l0eToxO2ZpbGwtcnVsZTpldmVub2RkO3N0cm9rZTojMDA2YzAyO3N0cm9rZS13aWR0aDowLjYyNTtzdHJva2UtbGluZWpvaW46cm91bmQ7c3Ryb2tlLW9wYWNpdHk6MSIgZD0iTSA4LjcxODU4NzgsNC4wMzM3MzUyIC0yLjIwNzI4OTUsMC4wMTYwMTMyNiA4LjcxODU4ODQsLTQuMDAxNzA3OCBjIC0xLjc0NTQ5ODQsMi4zNzIwNjA5IC0xLjczNTQ0MDgsNS42MTc0NTE5IC02ZS03LDguMDM1NDQzIHoiIHRyYW5zZm9ybT0ibWF0cml4KDEuMSwwLDAsMS4xLDEuMSwwKSIgaW5rc2NhcGU6Y29ubmVjdG9yLWN1cnZhdHVyZT0iMCIvPiYjeGE7ICAgIDwvbWFya2VyPiYjeGE7ICAgIDxyZWN0IHg9IjEyMy4xOTc2NyIgeT0iMTI5LjE4NTIiIHdpZHRoPSI1OC4wNjA3NiIgaGVpZ2h0PSIyMi40OTg1NDUiIGlkPSJyZWN0NjQ5Ii8+JiN4YTsgICAgPG1hcmtlciBpbmtzY2FwZTppc3N0b2NrPSJ0cnVlIiBzdHlsZT0ib3ZlcmZsb3c6dmlzaWJsZSIgaWQ9IkFycm93MkxlbmQiIHJlZlg9IjAiIHJlZlk9IjAiIG9yaWVudD0iYXV0byIgaW5rc2NhcGU6c3RvY2tpZD0iQXJyb3cyTGVuZCI+JiN4YTsgICAgICA8cGF0aCB0cmFuc2Zvcm09Im1hdHJpeCgtMS4xLDAsMCwtMS4xLC0xLjEsMCkiIGQ9Ik0gOC43MTg1ODc4LDQuMDMzNzM1MiAtMi4yMDcyODk1LDAuMDE2MDEzMjYgOC43MTg1ODg0LC00LjAwMTcwNzggYyAtMS43NDU0OTg0LDIuMzcyMDYwOSAtMS43MzU0NDA4LDUuNjE3NDUxOSAtNmUtNyw4LjAzNTQ0MyB6IiBzdHlsZT0iZmlsbDojZGE2ZmZmO2ZpbGwtb3BhY2l0eToxO2ZpbGwtcnVsZTpldmVub2RkO3N0cm9rZTojZGE2ZmZmO3N0cm9rZS13aWR0aDowLjYyNTtzdHJva2UtbGluZWpvaW46cm91bmQ7c3Ryb2tlLW9wYWNpdHk6MSIgaWQ9InBhdGg5OTM5IiBpbmtzY2FwZTpjb25uZWN0b3ItY3VydmF0dXJlPSIwIi8+JiN4YTsgICAgPC9tYXJrZXI+JiN4YTsgICAgPG1hcmtlciBpbmtzY2FwZTppc3N0b2NrPSJ0cnVlIiBzdHlsZT0ib3ZlcmZsb3c6dmlzaWJsZSIgaWQ9IkFycm93MkxzdGFydCIgcmVmWD0iMCIgcmVmWT0iMCIgb3JpZW50PSJhdXRvIiBpbmtzY2FwZTpzdG9ja2lkPSJBcnJvdzJMc3RhcnQiIGlua3NjYXBlOmNvbGxlY3Q9ImFsd2F5cyI+JiN4YTsgICAgICA8cGF0aCB0cmFuc2Zvcm09Im1hdHJpeCgxLjEsMCwwLDEuMSwxLjEsMCkiIGQ9Ik0gOC43MTg1ODc4LDQuMDMzNzM1MiAtMi4yMDcyODk1LDAuMDE2MDEzMjYgOC43MTg1ODg0LC00LjAwMTcwNzggYyAtMS43NDU0OTg0LDIuMzcyMDYwOSAtMS43MzU0NDA4LDUuNjE3NDUxOSAtNmUtNyw4LjAzNTQ0MyB6IiBzdHlsZT0iZmlsbDojZGE2ZmZmO2ZpbGwtb3BhY2l0eToxO2ZpbGwtcnVsZTpldmVub2RkO3N0cm9rZTojZGE2ZmZmO3N0cm9rZS13aWR0aDowLjYyNTtzdHJva2UtbGluZWpvaW46cm91bmQ7c3Ryb2tlLW9wYWNpdHk6MSIgaWQ9InBhdGg5OTM2IiBpbmtzY2FwZTpjb25uZWN0b3ItY3VydmF0dXJlPSIwIi8+JiN4YTsgICAgPC9tYXJrZXI+JiN4YTsgICAgPG1hcmtlciBpbmtzY2FwZTpzdG9ja2lkPSJBcnJvdzJMZW5kIiBvcmllbnQ9ImF1dG8iIHJlZlk9IjAiIHJlZlg9IjAiIGlkPSJtYXJrZXI5NDU0IiBzdHlsZT0ib3ZlcmZsb3c6dmlzaWJsZSIgaW5rc2NhcGU6aXNzdG9jaz0idHJ1ZSI+JiN4YTsgICAgICA8cGF0aCBpZD0icGF0aDk0NTIiIHN0eWxlPSJmaWxsOiMwMDAwMDA7ZmlsbC1vcGFjaXR5OjE7ZmlsbC1ydWxlOmV2ZW5vZGQ7c3Ryb2tlOiMwMDAwMDA7c3Ryb2tlLXdpZHRoOjAuNjI1O3N0cm9rZS1saW5lam9pbjpyb3VuZDtzdHJva2Utb3BhY2l0eToxIiBkPSJNIDguNzE4NTg3OCw0LjAzMzczNTIgLTIuMjA3Mjg5NSwwLjAxNjAxMzI2IDguNzE4NTg4NCwtNC4wMDE3MDc4IGMgLTEuNzQ1NDk4NCwyLjM3MjA2MDkgLTEuNzM1NDQwOCw1LjYxNzQ1MTkgLTZlLTcsOC4wMzU0NDMgeiIgdHJhbnNmb3JtPSJtYXRyaXgoLTEuMSwwLDAsLTEuMSwtMS4xLDApIiBpbmtzY2FwZTpjb25uZWN0b3ItY3VydmF0dXJlPSIwIi8+JiN4YTsgICAgPC9tYXJrZXI+JiN4YTsgICAgPG1hcmtlciBpbmtzY2FwZTpjb2xsZWN0PSJhbHdheXMiIGlua3NjYXBlOmlzc3RvY2s9InRydWUiIHN0eWxlPSJvdmVyZmxvdzp2aXNpYmxlIiBpZD0ibWFya2VyNzQ5NiIgcmVmWD0iMCIgcmVmWT0iMCIgb3JpZW50PSJhdXRvIiBpbmtzY2FwZTpzdG9ja2lkPSJBcnJvdzJMZW5kIj4mI3hhOyAgICAgIDxwYXRoIHRyYW5zZm9ybT0ibWF0cml4KC0xLjEsMCwwLC0xLjEsLTEuMSwwKSIgZD0iTSA4LjcxODU4NzgsNC4wMzM3MzUyIC0yLjIwNzI4OTUsMC4wMTYwMTMyNiA4LjcxODU4ODQsLTQuMDAxNzA3OCBjIC0xLjc0NTQ5ODQsMi4zNzIwNjA5IC0xLjczNTQ0MDgsNS42MTc0NTE5IC02ZS03LDguMDM1NDQzIHoiIHN0eWxlPSJmaWxsOiMwMDZmZmY7ZmlsbC1vcGFjaXR5OjE7ZmlsbC1ydWxlOmV2ZW5vZGQ7c3Ryb2tlOiMwMDZmZmY7c3Ryb2tlLXdpZHRoOjAuNjI1O3N0cm9rZS1saW5lam9pbjpyb3VuZDtzdHJva2Utb3BhY2l0eToxIiBpZD0icGF0aDc0OTQiIGlua3NjYXBlOmNvbm5lY3Rvci1jdXJ2YXR1cmU9IjAiLz4mI3hhOyAgICA8L21hcmtlcj4mI3hhOyAgICA8bWFya2VyIGlua3NjYXBlOmlzc3RvY2s9InRydWUiIHN0eWxlPSJvdmVyZmxvdzp2aXNpYmxlIiBpZD0ibWFya2VyNzAxOCIgcmVmWD0iMCIgcmVmWT0iMCIgb3JpZW50PSJhdXRvIiBpbmtzY2FwZTpzdG9ja2lkPSJBcnJvdzJMZW5kIj4mI3hhOyAgICAgIDxwYXRoIHRyYW5zZm9ybT0ibWF0cml4KC0xLjEsMCwwLC0xLjEsLTEuMSwwKSIgZD0iTSA4LjcxODU4NzgsNC4wMzM3MzUyIC0yLjIwNzI4OTUsMC4wMTYwMTMyNiA4LjcxODU4ODQsLTQuMDAxNzA3OCBjIC0xLjc0NTQ5ODQsMi4zNzIwNjA5IC0xLjczNTQ0MDgsNS42MTc0NTE5IC02ZS03LDguMDM1NDQzIHoiIHN0eWxlPSJmaWxsOiMwMDAwMDA7ZmlsbC1vcGFjaXR5OjE7ZmlsbC1ydWxlOmV2ZW5vZGQ7c3Ryb2tlOiMwMDAwMDA7c3Ryb2tlLXdpZHRoOjAuNjI1O3N0cm9rZS1saW5lam9pbjpyb3VuZDtzdHJva2Utb3BhY2l0eToxIiBpZD0icGF0aDcwMTYiIGlua3NjYXBlOmNvbm5lY3Rvci1jdXJ2YXR1cmU9IjAiLz4mI3hhOyAgICA8L21hcmtlcj4mI3hhOyAgICA8bWFya2VyIGlua3NjYXBlOmlzc3RvY2s9InRydWUiIHN0eWxlPSJvdmVyZmxvdzp2aXNpYmxlIiBpZD0ibWFya2VyNjU3NiIgcmVmWD0iMCIgcmVmWT0iMCIgb3JpZW50PSJhdXRvIiBpbmtzY2FwZTpzdG9ja2lkPSJBcnJvdzJMZW5kIj4mI3hhOyAgICAgIDxwYXRoIHRyYW5zZm9ybT0ibWF0cml4KC0xLjEsMCwwLC0xLjEsLTEuMSwwKSIgZD0iTSA4LjcxODU4NzgsNC4wMzM3MzUyIC0yLjIwNzI4OTUsMC4wMTYwMTMyNiA4LjcxODU4ODQsLTQuMDAxNzA3OCBjIC0xLjc0NTQ5ODQsMi4zNzIwNjA5IC0xLjczNTQ0MDgsNS42MTc0NTE5IC02ZS03LDguMDM1NDQzIHoiIHN0eWxlPSJmaWxsOiMwMDAwMDA7ZmlsbC1vcGFjaXR5OjE7ZmlsbC1ydWxlOmV2ZW5vZGQ7c3Ryb2tlOiMwMDAwMDA7c3Ryb2tlLXdpZHRoOjAuNjI1O3N0cm9rZS1saW5lam9pbjpyb3VuZDtzdHJva2Utb3BhY2l0eToxIiBpZD0icGF0aDY1NzQiIGlua3NjYXBlOmNvbm5lY3Rvci1jdXJ2YXR1cmU9IjAiLz4mI3hhOyAgICA8L21hcmtlcj4mI3hhOyAgICA8bWFya2VyIGlua3NjYXBlOmlzc3RvY2s9InRydWUiIHN0eWxlPSJvdmVyZmxvdzp2aXNpYmxlIiBpZD0ibWFya2VyNDY2MCIgcmVmWD0iMCIgcmVmWT0iMCIgb3JpZW50PSJhdXRvIiBpbmtzY2FwZTpzdG9ja2lkPSJBcnJvdzJMZW5kIj4mI3hhOyAgICAgIDxwYXRoIHRyYW5zZm9ybT0ibWF0cml4KC0xLjEsMCwwLC0xLjEsLTEuMSwwKSIgZD0iTSA4LjcxODU4NzgsNC4wMzM3MzUyIC0yLjIwNzI4OTUsMC4wMTYwMTMyNiA4LjcxODU4ODQsLTQuMDAxNzA3OCBjIC0xLjc0NTQ5ODQsMi4zNzIwNjA5IC0xLjczNTQ0MDgsNS42MTc0NTE5IC02ZS03LDguMDM1NDQzIHoiIHN0eWxlPSJmaWxsOiMwMDAwMDA7ZmlsbC1vcGFjaXR5OjE7ZmlsbC1ydWxlOmV2ZW5vZGQ7c3Ryb2tlOiMwMDAwMDA7c3Ryb2tlLXdpZHRoOjAuNjI1O3N0cm9rZS1saW5lam9pbjpyb3VuZDtzdHJva2Utb3BhY2l0eToxIiBpZD0icGF0aDQ2NTgiIGlua3NjYXBlOmNvbm5lY3Rvci1jdXJ2YXR1cmU9IjAiLz4mI3hhOyAgICA8L21hcmtlcj4mI3hhOyAgICA8bWFya2VyIGlua3NjYXBlOmlzc3RvY2s9InRydWUiIHN0eWxlPSJvdmVyZmxvdzp2aXNpYmxlIiBpZD0ibWFya2VyMzY2NCIgcmVmWD0iMCIgcmVmWT0iMCIgb3JpZW50PSJhdXRvIiBpbmtzY2FwZTpzdG9ja2lkPSJBcnJvdzFMc3RhcnQiPiYjeGE7ICAgICAgPHBhdGggdHJhbnNmb3JtPSJtYXRyaXgoMC44LDAsMCwwLjgsMTAsMCkiIHN0eWxlPSJmaWxsOiMwMDAwMDA7ZmlsbC1vcGFjaXR5OjE7ZmlsbC1ydWxlOmV2ZW5vZGQ7c3Ryb2tlOiMwMDAwMDA7c3Ryb2tlLXdpZHRoOjEuMDAwMDAwMDNwdDtzdHJva2Utb3BhY2l0eToxIiBkPSJNIDAsMCA1LC01IC0xMi41LDAgNSw1IFoiIGlkPSJwYXRoMzY2MiIgaW5rc2NhcGU6Y29ubmVjdG9yLWN1cnZhdHVyZT0iMCIvPiYjeGE7ICAgIDwvbWFya2VyPiYjeGE7ICAgIDxtYXJrZXIgaW5rc2NhcGU6aXNzdG9jaz0idHJ1ZSIgc3R5bGU9Im92ZXJmbG93OnZpc2libGUiIGlkPSJtYXJrZXIxNDAzMiIgcmVmWD0iMCIgcmVmWT0iMCIgb3JpZW50PSJhdXRvIiBpbmtzY2FwZTpzdG9ja2lkPSJBcnJvdzFMc3RhcnQiPiYjeGE7ICAgICAgPHBhdGggdHJhbnNmb3JtPSJtYXRyaXgoMC44LDAsMCwwLjgsMTAsMCkiIHN0eWxlPSJmaWxsOiMwMDAwMDA7ZmlsbC1vcGFjaXR5OjE7ZmlsbC1ydWxlOmV2ZW5vZGQ7c3Ryb2tlOiMwMDAwMDA7c3Ryb2tlLXdpZHRoOjEuMDAwMDAwMDNwdDtzdHJva2Utb3BhY2l0eToxIiBkPSJNIDAsMCA1LC01IC0xMi41LDAgNSw1IFoiIGlkPSJwYXRoMTQwMzAiIGlua3NjYXBlOmNvbm5lY3Rvci1jdXJ2YXR1cmU9IjAiLz4mI3hhOyAgICA8L21hcmtlcj4mI3hhOyAgICA8bWFya2VyIGlua3NjYXBlOmlzc3RvY2s9InRydWUiIHN0eWxlPSJvdmVyZmxvdzp2aXNpYmxlIiBpZD0ibWFya2VyMTIxODUiIHJlZlg9IjAiIHJlZlk9IjAiIG9yaWVudD0iYXV0byIgaW5rc2NhcGU6c3RvY2tpZD0iQXJyb3cxTHN0YXJ0Ij4mI3hhOyAgICAgIDxwYXRoIHRyYW5zZm9ybT0ibWF0cml4KDAuOCwwLDAsMC44LDEwLDApIiBzdHlsZT0iZmlsbDojZmZiMjQyO2ZpbGwtb3BhY2l0eToxO2ZpbGwtcnVsZTpldmVub2RkO3N0cm9rZTojZmZiMjQyO3N0cm9rZS13aWR0aDoxLjAwMDAwMDAzcHQ7c3Ryb2tlLW9wYWNpdHk6MSIgZD0iTSAwLDAgNSwtNSAtMTIuNSwwIDUsNSBaIiBpZD0icGF0aDEyMTgzIiBpbmtzY2FwZTpjb25uZWN0b3ItY3VydmF0dXJlPSIwIi8+JiN4YTsgICAgPC9tYXJrZXI+JiN4YTsgICAgPG1hcmtlciBpbmtzY2FwZTpjb2xsZWN0PSJhbHdheXMiIGlua3NjYXBlOnN0b2NraWQ9IkFycm93MkxlbmQiIG9yaWVudD0iYXV0byIgcmVmWT0iMCIgcmVmWD0iMCIgaWQ9Im1hcmtlcjYyNjAiIHN0eWxlPSJvdmVyZmxvdzp2aXNpYmxlIiBpbmtzY2FwZTppc3N0b2NrPSJ0cnVlIj4mI3hhOyAgICAgIDxwYXRoIGlkPSJwYXRoNjI1OCIgc3R5bGU9ImZpbGw6IzAwNmMwMjtmaWxsLW9wYWNpdHk6MTtmaWxsLXJ1bGU6ZXZlbm9kZDtzdHJva2U6IzAwNmMwMjtzdHJva2Utd2lkdGg6MC42MjU7c3Ryb2tlLWxpbmVqb2luOnJvdW5kO3N0cm9rZS1vcGFjaXR5OjEiIGQ9Ik0gOC43MTg1ODc4LDQuMDMzNzM1MiAtMi4yMDcyODk1LDAuMDE2MDEzMjYgOC43MTg1ODg0LC00LjAwMTcwNzggYyAtMS43NDU0OTg0LDIuMzcyMDYwOSAtMS43MzU0NDA4LDUuNjE3NDUxOSAtNmUtNyw4LjAzNTQ0MyB6IiB0cmFuc2Zvcm09Im1hdHJpeCgtMS4xLDAsMCwtMS4xLC0xLjEsMCkiIGlua3NjYXBlOmNvbm5lY3Rvci1jdXJ2YXR1cmU9IjAiLz4mI3hhOyAgICA8L21hcmtlcj4mI3hhOyAgICA8bWFya2VyIGlua3NjYXBlOmlzc3RvY2s9InRydWUiIHN0eWxlPSJvdmVyZmxvdzp2aXNpYmxlIiBpZD0iVHJpYW5nbGVPdXRMIiByZWZYPSIwIiByZWZZPSIwIiBvcmllbnQ9ImF1dG8iIGlua3NjYXBlOnN0b2NraWQ9IlRyaWFuZ2xlT3V0TCI+JiN4YTsgICAgICA8cGF0aCB0cmFuc2Zvcm09InNjYWxlKDAuOCkiIHN0eWxlPSJmaWxsOiMwMGE1MDA7ZmlsbC1vcGFjaXR5OjE7ZmlsbC1ydWxlOmV2ZW5vZGQ7c3Ryb2tlOiMwMGE1MDA7c3Ryb2tlLXdpZHRoOjEuMDAwMDAwMDNwdDtzdHJva2Utb3BhY2l0eToxIiBkPSJNIDUuNzcsMCAtMi44OCw1IFYgLTUgWiIgaWQ9InBhdGg1MTQ3IiBpbmtzY2FwZTpjb25uZWN0b3ItY3VydmF0dXJlPSIwIi8+JiN4YTsgICAgPC9tYXJrZXI+JiN4YTsgICAgPG1hcmtlciBpbmtzY2FwZTpzdG9ja2lkPSJBcnJvdzFMZW5kIiBvcmllbnQ9ImF1dG8iIHJlZlk9IjAiIHJlZlg9IjAiIGlkPSJtYXJrZXI2MjM1IiBzdHlsZT0ib3ZlcmZsb3c6dmlzaWJsZSIgaW5rc2NhcGU6aXNzdG9jaz0idHJ1ZSI+JiN4YTsgICAgICA8cGF0aCBpZD0icGF0aDYyMzMiIGQ9Ik0gMCwwIDUsLTUgLTEyLjUsMCA1LDUgWiIgc3R5bGU9ImZpbGw6I2RkMDAwMDtmaWxsLW9wYWNpdHk6MTtmaWxsLXJ1bGU6ZXZlbm9kZDtzdHJva2U6I2RkMDAwMDtzdHJva2Utd2lkdGg6MS4wMDAwMDAwM3B0O3N0cm9rZS1vcGFjaXR5OjEiIHRyYW5zZm9ybT0ibWF0cml4KC0wLjgsMCwwLC0wLjgsLTEwLDApIiBpbmtzY2FwZTpjb25uZWN0b3ItY3VydmF0dXJlPSIwIi8+JiN4YTsgICAgPC9tYXJrZXI+JiN4YTsgICAgPG1hcmtlciBpbmtzY2FwZTppc3N0b2NrPSJ0cnVlIiBzdHlsZT0ib3ZlcmZsb3c6dmlzaWJsZSIgaWQ9Im1hcmtlcjYwMTUiIHJlZlg9IjAiIHJlZlk9IjAiIG9yaWVudD0iYXV0byIgaW5rc2NhcGU6c3RvY2tpZD0iQXJyb3cxTGVuZCI+JiN4YTsgICAgICA8cGF0aCB0cmFuc2Zvcm09Im1hdHJpeCgtMC44LDAsMCwtMC44LC0xMCwwKSIgc3R5bGU9ImZpbGw6I2RkMDAwMDtmaWxsLW9wYWNpdHk6MTtmaWxsLXJ1bGU6ZXZlbm9kZDtzdHJva2U6I2RkMDAwMDtzdHJva2Utd2lkdGg6MS4wMDAwMDAwM3B0O3N0cm9rZS1vcGFjaXR5OjEiIGQ9Ik0gMCwwIDUsLTUgLTEyLjUsMCA1LDUgWiIgaWQ9InBhdGg2MDEzIiBpbmtzY2FwZTpjb25uZWN0b3ItY3VydmF0dXJlPSIwIi8+JiN4YTsgICAgPC9tYXJrZXI+JiN4YTsgICAgPG1hcmtlciBpbmtzY2FwZTpzdG9ja2lkPSJBcnJvdzFMc3RhcnQiIG9yaWVudD0iYXV0byIgcmVmWT0iMCIgcmVmWD0iMCIgaWQ9Im1hcmtlcjU2MjkiIHN0eWxlPSJvdmVyZmxvdzp2aXNpYmxlIiBpbmtzY2FwZTppc3N0b2NrPSJ0cnVlIj4mI3hhOyAgICAgIDxwYXRoIGlkPSJwYXRoNTYyNyIgZD0iTSAwLDAgNSwtNSAtMTIuNSwwIDUsNSBaIiBzdHlsZT0iZmlsbDojMDAxYWRjO2ZpbGwtb3BhY2l0eToxO2ZpbGwtcnVsZTpldmVub2RkO3N0cm9rZTojMDAxYWRjO3N0cm9rZS13aWR0aDoxLjAwMDAwMDAzcHQ7c3Ryb2tlLW9wYWNpdHk6MSIgdHJhbnNmb3JtPSJtYXRyaXgoMC44LDAsMCwwLjgsMTAsMCkiIGlua3NjYXBlOmNvbm5lY3Rvci1jdXJ2YXR1cmU9IjAiLz4mI3hhOyAgICA8L21hcmtlcj4mI3hhOyAgICA8bWFya2VyIGlua3NjYXBlOmlzc3RvY2s9InRydWUiIHN0eWxlPSJvdmVyZmxvdzp2aXNpYmxlIiBpZD0ibWFya2VyMjE1MSIgcmVmWD0iMCIgcmVmWT0iMCIgb3JpZW50PSJhdXRvIiBpbmtzY2FwZTpzdG9ja2lkPSJBcnJvdzFMZW5kIj4mI3hhOyAgICAgIDxwYXRoIHRyYW5zZm9ybT0ibWF0cml4KC0wLjgsMCwwLC0wLjgsLTEwLDApIiBzdHlsZT0iZmlsbDojMDBhNTAwO2ZpbGwtb3BhY2l0eToxO2ZpbGwtcnVsZTpldmVub2RkO3N0cm9rZTojMDBhNTAwO3N0cm9rZS13aWR0aDoxLjAwMDAwMDAzcHQ7c3Ryb2tlLW9wYWNpdHk6MSIgZD0iTSAwLDAgNSwtNSAtMTIuNSwwIDUsNSBaIiBpZD0icGF0aDIxNDkiIGlua3NjYXBlOmNvbm5lY3Rvci1jdXJ2YXR1cmU9IjAiLz4mI3hhOyAgICA8L21hcmtlcj4mI3hhOyAgICA8bWFya2VyIGlua3NjYXBlOmlzc3RvY2s9InRydWUiIHN0eWxlPSJvdmVyZmxvdzp2aXNpYmxlIiBpZD0iQXJyb3cxTGVuZC0xIiByZWZYPSIwIiByZWZZPSIwIiBvcmllbnQ9ImF1dG8iIGlua3NjYXBlOnN0b2NraWQ9IkFycm93MUxlbmQiPiYjeGE7ICAgICAgPHBhdGggdHJhbnNmb3JtPSJtYXRyaXgoLTAuOCwwLDAsLTAuOCwtMTAsMCkiIHN0eWxlPSJmaWxsOiMwMDFhZGM7ZmlsbC1vcGFjaXR5OjE7ZmlsbC1ydWxlOmV2ZW5vZGQ7c3Ryb2tlOiMwMDFhZGM7c3Ryb2tlLXdpZHRoOjEuMDAwMDAwMDNwdDtzdHJva2Utb3BhY2l0eToxIiBkPSJNIDAsMCA1LC01IC0xMi41LDAgNSw1IFoiIGlkPSJwYXRoMTA3MC02IiBpbmtzY2FwZTpjb25uZWN0b3ItY3VydmF0dXJlPSIwIi8+JiN4YTsgICAgPC9tYXJrZXI+JiN4YTsgICAgPG1hcmtlciBpbmtzY2FwZTppc3N0b2NrPSJ0cnVlIiBzdHlsZT0ib3ZlcmZsb3c6dmlzaWJsZSIgaWQ9IkFycm93MUxlbmQtOCIgcmVmWD0iMCIgcmVmWT0iMCIgb3JpZW50PSJhdXRvIiBpbmtzY2FwZTpzdG9ja2lkPSJBcnJvdzFMZW5kIj4mI3hhOyAgICAgIDxwYXRoIHRyYW5zZm9ybT0ibWF0cml4KC0wLjgsMCwwLC0wLjgsLTEwLDApIiBzdHlsZT0iZmlsbDojZjhhNzExO2ZpbGwtb3BhY2l0eToxO2ZpbGwtcnVsZTpldmVub2RkO3N0cm9rZTojZjhhNzExO3N0cm9rZS13aWR0aDoxLjAwMDAwMDAzcHQ7c3Ryb2tlLW9wYWNpdHk6MSIgZD0iTSAwLDAgNSwtNSAtMTIuNSwwIDUsNSBaIiBpZD0icGF0aDEwNzAtNCIgaW5rc2NhcGU6Y29ubmVjdG9yLWN1cnZhdHVyZT0iMCIvPiYjeGE7ICAgIDwvbWFya2VyPiYjeGE7ICAgIDxtYXJrZXIgaW5rc2NhcGU6c3RvY2tpZD0iQXJyb3cxTGVuZCIgb3JpZW50PSJhdXRvIiByZWZZPSIwIiByZWZYPSIwIiBpZD0iQXJyb3cxTGVuZC04LTgiIHN0eWxlPSJvdmVyZmxvdzp2aXNpYmxlIiBpbmtzY2FwZTppc3N0b2NrPSJ0cnVlIj4mI3hhOyAgICAgIDxwYXRoIGlkPSJwYXRoMTA3MC00LTkiIGQ9Ik0gMCwwIDUsLTUgLTEyLjUsMCA1LDUgWiIgc3R5bGU9ImZpbGw6IzAwMDAwMDtmaWxsLW9wYWNpdHk6MTtmaWxsLXJ1bGU6ZXZlbm9kZDtzdHJva2U6IzAwMDAwMDtzdHJva2Utd2lkdGg6MS4wMDAwMDAwM3B0O3N0cm9rZS1vcGFjaXR5OjEiIHRyYW5zZm9ybT0ibWF0cml4KC0wLjgsMCwwLC0wLjgsLTEwLDApIiBpbmtzY2FwZTpjb25uZWN0b3ItY3VydmF0dXJlPSIwIi8+JiN4YTsgICAgPC9tYXJrZXI+JiN4YTsgICAgPG1hcmtlciBpbmtzY2FwZTpzdG9ja2lkPSJBcnJvdzFMZW5kIiBvcmllbnQ9ImF1dG8iIHJlZlk9IjAiIHJlZlg9IjAiIGlkPSJBcnJvdzFMZW5kLTgtOSIgc3R5bGU9Im92ZXJmbG93OnZpc2libGUiIGlua3NjYXBlOmlzc3RvY2s9InRydWUiPiYjeGE7ICAgICAgPHBhdGggaWQ9InBhdGgxMDcwLTQtMCIgZD0iTSAwLDAgNSwtNSAtMTIuNSwwIDUsNSBaIiBzdHlsZT0iZmlsbDojMDAwMDAwO2ZpbGwtb3BhY2l0eToxO2ZpbGwtcnVsZTpldmVub2RkO3N0cm9rZTojMDAwMDAwO3N0cm9rZS13aWR0aDoxLjAwMDAwMDAzcHQ7c3Ryb2tlLW9wYWNpdHk6MSIgdHJhbnNmb3JtPSJtYXRyaXgoLTAuOCwwLDAsLTAuOCwtMTAsMCkiIGlua3NjYXBlOmNvbm5lY3Rvci1jdXJ2YXR1cmU9IjAiLz4mI3hhOyAgICA8L21hcmtlcj4mI3hhOyAgICA8bWFya2VyIGlua3NjYXBlOmlzc3RvY2s9InRydWUiIHN0eWxlPSJvdmVyZmxvdzp2aXNpYmxlIiBpZD0iQXJyb3cxTGVuZC04LTktNiIgcmVmWD0iMCIgcmVmWT0iMCIgb3JpZW50PSJhdXRvIiBpbmtzY2FwZTpzdG9ja2lkPSJBcnJvdzFMZW5kIj4mI3hhOyAgICAgIDxwYXRoIHRyYW5zZm9ybT0ibWF0cml4KC0wLjgsMCwwLC0wLjgsLTEwLDApIiBzdHlsZT0iZmlsbDojMDAwMDAwO2ZpbGwtb3BhY2l0eToxO2ZpbGwtcnVsZTpldmVub2RkO3N0cm9rZTojMDAwMDAwO3N0cm9rZS13aWR0aDoxLjAwMDAwMDAzcHQ7c3Ryb2tlLW9wYWNpdHk6MSIgZD0iTSAwLDAgNSwtNSAtMTIuNSwwIDUsNSBaIiBpZD0icGF0aDEwNzAtNC0wLTUiIGlua3NjYXBlOmNvbm5lY3Rvci1jdXJ2YXR1cmU9IjAiLz4mI3hhOyAgICA8L21hcmtlcj4mI3hhOyAgICA8bWFya2VyIGlua3NjYXBlOnN0b2NraWQ9IkFycm93MUxlbmQiIG9yaWVudD0iYXV0byIgcmVmWT0iMCIgcmVmWD0iMCIgaWQ9IkFycm93MUxlbmQtOC05LTYtNiIgc3R5bGU9Im92ZXJmbG93OnZpc2libGUiIGlua3NjYXBlOmlzc3RvY2s9InRydWUiPiYjeGE7ICAgICAgPHBhdGggaWQ9InBhdGgxMDcwLTQtMC01LTYiIGQ9Ik0gMCwwIDUsLTUgLTEyLjUsMCA1LDUgWiIgc3R5bGU9ImZpbGw6IzAwMDAwMDtmaWxsLW9wYWNpdHk6MTtmaWxsLXJ1bGU6ZXZlbm9kZDtzdHJva2U6IzAwMDAwMDtzdHJva2Utd2lkdGg6MS4wMDAwMDAwM3B0O3N0cm9rZS1vcGFjaXR5OjEiIHRyYW5zZm9ybT0ibWF0cml4KC0wLjgsMCwwLC0wLjgsLTEwLDApIiBpbmtzY2FwZTpjb25uZWN0b3ItY3VydmF0dXJlPSIwIi8+JiN4YTsgICAgPC9tYXJrZXI+JiN4YTsgICAgPG1hcmtlciBpbmtzY2FwZTppc3N0b2NrPSJ0cnVlIiBzdHlsZT0ib3ZlcmZsb3c6dmlzaWJsZSIgaWQ9IkFycm93MUxlbmQtOC05LTYtNi0wIiByZWZYPSIwIiByZWZZPSIwIiBvcmllbnQ9ImF1dG8iIGlua3NjYXBlOnN0b2NraWQ9IkFycm93MUxlbmQiPiYjeGE7ICAgICAgPHBhdGggdHJhbnNmb3JtPSJtYXRyaXgoLTAuOCwwLDAsLTAuOCwtMTAsMCkiIHN0eWxlPSJmaWxsOiMwMDAwMDA7ZmlsbC1vcGFjaXR5OjE7ZmlsbC1ydWxlOmV2ZW5vZGQ7c3Ryb2tlOiMwMDAwMDA7c3Ryb2tlLXdpZHRoOjEuMDAwMDAwMDNwdDtzdHJva2Utb3BhY2l0eToxIiBkPSJNIDAsMCA1LC01IC0xMi41LDAgNSw1IFoiIGlkPSJwYXRoMTA3MC00LTAtNS02LTAiIGlua3NjYXBlOmNvbm5lY3Rvci1jdXJ2YXR1cmU9IjAiLz4mI3hhOyAgICA8L21hcmtlcj4mI3hhOyAgICA8bWFya2VyIGlua3NjYXBlOnN0b2NraWQ9IkFycm93MUxlbmQiIG9yaWVudD0iYXV0byIgcmVmWT0iMCIgcmVmWD0iMCIgaWQ9IkFycm93MUxlbmQtOC05OCIgc3R5bGU9Im92ZXJmbG93OnZpc2libGUiIGlua3NjYXBlOmlzc3RvY2s9InRydWUiPiYjeGE7ICAgICAgPHBhdGggaWQ9InBhdGgxMDcwLTQtMiIgZD0iTSAwLDAgNSwtNSAtMTIuNSwwIDUsNSBaIiBzdHlsZT0iZmlsbDojMDAwMDAwO2ZpbGwtb3BhY2l0eToxO2ZpbGwtcnVsZTpldmVub2RkO3N0cm9rZTojMDAwMDAwO3N0cm9rZS13aWR0aDoxLjAwMDAwMDAzcHQ7c3Ryb2tlLW9wYWNpdHk6MSIgdHJhbnNmb3JtPSJtYXRyaXgoLTAuOCwwLDAsLTAuOCwtMTAsMCkiIGlua3NjYXBlOmNvbm5lY3Rvci1jdXJ2YXR1cmU9IjAiLz4mI3hhOyAgICA8L21hcmtlcj4mI3hhOyAgICA8bWFya2VyIGlua3NjYXBlOmlzc3RvY2s9InRydWUiIHN0eWxlPSJvdmVyZmxvdzp2aXNpYmxlIiBpZD0iQXJyb3cxTGVuZC04LTk4LTQiIHJlZlg9IjAiIHJlZlk9IjAiIG9yaWVudD0iYXV0byIgaW5rc2NhcGU6c3RvY2tpZD0iQXJyb3cxTGVuZCI+JiN4YTsgICAgICA8cGF0aCB0cmFuc2Zvcm09Im1hdHJpeCgtMC44LDAsMCwtMC44LC0xMCwwKSIgc3R5bGU9ImZpbGw6IzAwMDAwMDtmaWxsLW9wYWNpdHk6MTtmaWxsLXJ1bGU6ZXZlbm9kZDtzdHJva2U6IzAwMDAwMDtzdHJva2Utd2lkdGg6MS4wMDAwMDAwM3B0O3N0cm9rZS1vcGFjaXR5OjEiIGQ9Ik0gMCwwIDUsLTUgLTEyLjUsMCA1LDUgWiIgaWQ9InBhdGgxMDcwLTQtMi05IiBpbmtzY2FwZTpjb25uZWN0b3ItY3VydmF0dXJlPSIwIi8+JiN4YTsgICAgPC9tYXJrZXI+JiN4YTsgICAgPG1hcmtlciBpbmtzY2FwZTpzdG9ja2lkPSJBcnJvdzFMZW5kIiBvcmllbnQ9ImF1dG8iIHJlZlk9IjAiIHJlZlg9IjAiIGlkPSJBcnJvdzFMZW5kLTgtOTgtNC0wIiBzdHlsZT0ib3ZlcmZsb3c6dmlzaWJsZSIgaW5rc2NhcGU6aXNzdG9jaz0idHJ1ZSI+JiN4YTsgICAgICA8cGF0aCBpZD0icGF0aDEwNzAtNC0yLTktMSIgZD0iTSAwLDAgNSwtNSAtMTIuNSwwIDUsNSBaIiBzdHlsZT0iZmlsbDojMDAwMDAwO2ZpbGwtb3BhY2l0eToxO2ZpbGwtcnVsZTpldmVub2RkO3N0cm9rZTojMDAwMDAwO3N0cm9rZS13aWR0aDoxLjAwMDAwMDAzcHQ7c3Ryb2tlLW9wYWNpdHk6MSIgdHJhbnNmb3JtPSJtYXRyaXgoLTAuOCwwLDAsLTAuOCwtMTAsMCkiIGlua3NjYXBlOmNvbm5lY3Rvci1jdXJ2YXR1cmU9IjAiLz4mI3hhOyAgICA8L21hcmtlcj4mI3hhOyAgICA8bWFya2VyIGlua3NjYXBlOnN0b2NraWQ9IlRyaWFuZ2xlT3V0TCIgb3JpZW50PSJhdXRvIiByZWZZPSIwIiByZWZYPSIwIiBpZD0iVHJpYW5nbGVPdXRMLTkiIHN0eWxlPSJvdmVyZmxvdzp2aXNpYmxlIiBpbmtzY2FwZTppc3N0b2NrPSJ0cnVlIj4mI3hhOyAgICAgIDxwYXRoIGlkPSJwYXRoNTE0Ny0xIiBkPSJNIDUuNzcsMCAtMi44OCw1IFYgLTUgWiIgc3R5bGU9ImZpbGw6IzAwMDAwMDtmaWxsLW9wYWNpdHk6MTtmaWxsLXJ1bGU6ZXZlbm9kZDtzdHJva2U6IzAwMDAwMDtzdHJva2Utd2lkdGg6MS4wMDAwMDAwM3B0O3N0cm9rZS1vcGFjaXR5OjEiIHRyYW5zZm9ybT0ic2NhbGUoMC44KSIgaW5rc2NhcGU6Y29ubmVjdG9yLWN1cnZhdHVyZT0iMCIvPiYjeGE7ICAgIDwvbWFya2VyPiYjeGE7ICAgIDxtYXJrZXIgaW5rc2NhcGU6c3RvY2tpZD0iVHJpYW5nbGVPdXRMIiBvcmllbnQ9ImF1dG8iIHJlZlk9IjAiIHJlZlg9IjAiIGlkPSJUcmlhbmdsZU91dEwtNSIgc3R5bGU9Im92ZXJmbG93OnZpc2libGUiIGlua3NjYXBlOmlzc3RvY2s9InRydWUiPiYjeGE7ICAgICAgPHBhdGggaWQ9InBhdGg1MTQ3LTkiIGQ9Ik0gNS43NywwIC0yLjg4LDUgViAtNSBaIiBzdHlsZT0iZmlsbDojMDAwMDAwO2ZpbGwtb3BhY2l0eToxO2ZpbGwtcnVsZTpldmVub2RkO3N0cm9rZTojMDAwMDAwO3N0cm9rZS13aWR0aDoxLjAwMDAwMDAzcHQ7c3Ryb2tlLW9wYWNpdHk6MSIgdHJhbnNmb3JtPSJzY2FsZSgwLjgpIiBpbmtzY2FwZTpjb25uZWN0b3ItY3VydmF0dXJlPSIwIi8+JiN4YTsgICAgPC9tYXJrZXI+JiN4YTsgICAgPG1hcmtlciBpbmtzY2FwZTppc3N0b2NrPSJ0cnVlIiBzdHlsZT0ib3ZlcmZsb3c6dmlzaWJsZSIgaWQ9IlRyaWFuZ2xlT3V0TC05LTIiIHJlZlg9IjAiIHJlZlk9IjAiIG9yaWVudD0iYXV0byIgaW5rc2NhcGU6c3RvY2tpZD0iVHJpYW5nbGVPdXRMIj4mI3hhOyAgICAgIDxwYXRoIHRyYW5zZm9ybT0ic2NhbGUoMC44KSIgc3R5bGU9ImZpbGw6IzAwMDAwMDtmaWxsLW9wYWNpdHk6MTtmaWxsLXJ1bGU6ZXZlbm9kZDtzdHJva2U6IzAwMDAwMDtzdHJva2Utd2lkdGg6MS4wMDAwMDAwM3B0O3N0cm9rZS1vcGFjaXR5OjEiIGQ9Ik0gNS43NywwIC0yLjg4LDUgViAtNSBaIiBpZD0icGF0aDUxNDctMS0yIiBpbmtzY2FwZTpjb25uZWN0b3ItY3VydmF0dXJlPSIwIi8+JiN4YTsgICAgPC9tYXJrZXI+JiN4YTsgICAgPG1hcmtlciBpbmtzY2FwZTpzdG9ja2lkPSJUcmlhbmdsZU91dEwiIG9yaWVudD0iYXV0byIgcmVmWT0iMCIgcmVmWD0iMCIgaWQ9IlRyaWFuZ2xlT3V0TC00IiBzdHlsZT0ib3ZlcmZsb3c6dmlzaWJsZSIgaW5rc2NhcGU6aXNzdG9jaz0idHJ1ZSI+JiN4YTsgICAgICA8cGF0aCBpZD0icGF0aDUxNDctNSIgZD0iTSA1Ljc3LDAgLTIuODgsNSBWIC01IFoiIHN0eWxlPSJmaWxsOiMwMDAwMDA7ZmlsbC1vcGFjaXR5OjE7ZmlsbC1ydWxlOmV2ZW5vZGQ7c3Ryb2tlOiMwMDAwMDA7c3Ryb2tlLXdpZHRoOjEuMDAwMDAwMDNwdDtzdHJva2Utb3BhY2l0eToxIiB0cmFuc2Zvcm09InNjYWxlKDAuOCkiIGlua3NjYXBlOmNvbm5lY3Rvci1jdXJ2YXR1cmU9IjAiLz4mI3hhOyAgICA8L21hcmtlcj4mI3hhOyAgICA8bWFya2VyIGlua3NjYXBlOmlzc3RvY2s9InRydWUiIHN0eWxlPSJvdmVyZmxvdzp2aXNpYmxlIiBpZD0iVHJpYW5nbGVPdXRMLTktNCIgcmVmWD0iMCIgcmVmWT0iMCIgb3JpZW50PSJhdXRvIiBpbmtzY2FwZTpzdG9ja2lkPSJUcmlhbmdsZU91dEwiPiYjeGE7ICAgICAgPHBhdGggdHJhbnNmb3JtPSJzY2FsZSgwLjgpIiBzdHlsZT0iZmlsbDojMDAwMDAwO2ZpbGwtb3BhY2l0eToxO2ZpbGwtcnVsZTpldmVub2RkO3N0cm9rZTojMDAwMDAwO3N0cm9rZS13aWR0aDoxLjAwMDAwMDAzcHQ7c3Ryb2tlLW9wYWNpdHk6MSIgZD0iTSA1Ljc3LDAgLTIuODgsNSBWIC01IFoiIGlkPSJwYXRoNTE0Ny0xLTgiIGlua3NjYXBlOmNvbm5lY3Rvci1jdXJ2YXR1cmU9IjAiLz4mI3hhOyAgICA8L21hcmtlcj4mI3hhOyAgICA8bWFya2VyIGlua3NjYXBlOnN0b2NraWQ9IlRyaWFuZ2xlT3V0TCIgb3JpZW50PSJhdXRvIiByZWZZPSIwIiByZWZYPSIwIiBpZD0iVHJpYW5nbGVPdXRMLTktMi0wIiBzdHlsZT0ib3ZlcmZsb3c6dmlzaWJsZSIgaW5rc2NhcGU6aXNzdG9jaz0idHJ1ZSI+JiN4YTsgICAgICA8cGF0aCBpZD0icGF0aDUxNDctMS0yLTkiIGQ9Ik0gNS43NywwIC0yLjg4LDUgViAtNSBaIiBzdHlsZT0iZmlsbDojMDAwMDAwO2ZpbGwtb3BhY2l0eToxO2ZpbGwtcnVsZTpldmVub2RkO3N0cm9rZTojMDAwMDAwO3N0cm9rZS13aWR0aDoxLjAwMDAwMDAzcHQ7c3Ryb2tlLW9wYWNpdHk6MSIgdHJhbnNmb3JtPSJzY2FsZSgwLjgpIiBpbmtzY2FwZTpjb25uZWN0b3ItY3VydmF0dXJlPSIwIi8+JiN4YTsgICAgPC9tYXJrZXI+JiN4YTsgICAgPG1hcmtlciBpbmtzY2FwZTpzdG9ja2lkPSJBcnJvdzFMZW5kIiBvcmllbnQ9ImF1dG8iIHJlZlk9IjAiIHJlZlg9IjAiIGlkPSJBcnJvdzFMZW5kLTgtMCIgc3R5bGU9Im92ZXJmbG93OnZpc2libGUiIGlua3NjYXBlOmlzc3RvY2s9InRydWUiPiYjeGE7ICAgICAgPHBhdGggaWQ9InBhdGgxMDcwLTQtMyIgZD0iTSAwLDAgNSwtNSAtMTIuNSwwIDUsNSBaIiBzdHlsZT0iZmlsbDojMDAwMDAwO2ZpbGwtb3BhY2l0eToxO2ZpbGwtcnVsZTpldmVub2RkO3N0cm9rZTojMDAwMDAwO3N0cm9rZS13aWR0aDoxLjAwMDAwMDAzcHQ7c3Ryb2tlLW9wYWNpdHk6MSIgdHJhbnNmb3JtPSJtYXRyaXgoLTAuOCwwLDAsLTAuOCwtMTAsMCkiIGlua3NjYXBlOmNvbm5lY3Rvci1jdXJ2YXR1cmU9IjAiLz4mI3hhOyAgICA8L21hcmtlcj4mI3hhOyAgICA8bWFya2VyIGlua3NjYXBlOnN0b2NraWQ9IlRyaWFuZ2xlT3V0TCIgb3JpZW50PSJhdXRvIiByZWZZPSIwIiByZWZYPSIwIiBpZD0iVHJpYW5nbGVPdXRMLTk2IiBzdHlsZT0ib3ZlcmZsb3c6dmlzaWJsZSIgaW5rc2NhcGU6aXNzdG9jaz0idHJ1ZSI+JiN4YTsgICAgICA8cGF0aCBpZD0icGF0aDUxNDctMyIgZD0iTSA1Ljc3LDAgLTIuODgsNSBWIC01IFoiIHN0eWxlPSJmaWxsOiMwMDAwMDA7ZmlsbC1vcGFjaXR5OjE7ZmlsbC1ydWxlOmV2ZW5vZGQ7c3Ryb2tlOiMwMDAwMDA7c3Ryb2tlLXdpZHRoOjEuMDAwMDAwMDNwdDtzdHJva2Utb3BhY2l0eToxIiB0cmFuc2Zvcm09InNjYWxlKDAuOCkiIGlua3NjYXBlOmNvbm5lY3Rvci1jdXJ2YXR1cmU9IjAiLz4mI3hhOyAgICA8L21hcmtlcj4mI3hhOyAgICA8bWFya2VyIGlua3NjYXBlOmlzc3RvY2s9InRydWUiIHN0eWxlPSJvdmVyZmxvdzp2aXNpYmxlIiBpZD0iVHJpYW5nbGVPdXRMLTktMCIgcmVmWD0iMCIgcmVmWT0iMCIgb3JpZW50PSJhdXRvIiBpbmtzY2FwZTpzdG9ja2lkPSJUcmlhbmdsZU91dEwiPiYjeGE7ICAgICAgPHBhdGggdHJhbnNmb3JtPSJzY2FsZSgwLjgpIiBzdHlsZT0iZmlsbDojMDAwMDAwO2ZpbGwtb3BhY2l0eToxO2ZpbGwtcnVsZTpldmVub2RkO3N0cm9rZTojMDAwMDAwO3N0cm9rZS13aWR0aDoxLjAwMDAwMDAzcHQ7c3Ryb2tlLW9wYWNpdHk6MSIgZD0iTSA1Ljc3LDAgLTIuODgsNSBWIC01IFoiIGlkPSJwYXRoNTE0Ny0xLTMiIGlua3NjYXBlOmNvbm5lY3Rvci1jdXJ2YXR1cmU9IjAiLz4mI3hhOyAgICA8L21hcmtlcj4mI3hhOyAgICA8bWFya2VyIGlua3NjYXBlOnN0b2NraWQ9IlRyaWFuZ2xlT3V0TCIgb3JpZW50PSJhdXRvIiByZWZZPSIwIiByZWZYPSIwIiBpZD0iVHJpYW5nbGVPdXRMLTktMi00IiBzdHlsZT0ib3ZlcmZsb3c6dmlzaWJsZSIgaW5rc2NhcGU6aXNzdG9jaz0idHJ1ZSI+JiN4YTsgICAgICA8cGF0aCBpZD0icGF0aDUxNDctMS0yLTYiIGQ9Ik0gNS43NywwIC0yLjg4LDUgViAtNSBaIiBzdHlsZT0iZmlsbDojMDAwMDAwO2ZpbGwtb3BhY2l0eToxO2ZpbGwtcnVsZTpldmVub2RkO3N0cm9rZTojMDAwMDAwO3N0cm9rZS13aWR0aDoxLjAwMDAwMDAzcHQ7c3Ryb2tlLW9wYWNpdHk6MSIgdHJhbnNmb3JtPSJzY2FsZSgwLjgpIiBpbmtzY2FwZTpjb25uZWN0b3ItY3VydmF0dXJlPSIwIi8+JiN4YTsgICAgPC9tYXJrZXI+JiN4YTsgICAgPG1hcmtlciBpbmtzY2FwZTpzdG9ja2lkPSJUcmlhbmdsZU91dEwiIG9yaWVudD0iYXV0byIgcmVmWT0iMCIgcmVmWD0iMCIgaWQ9IlRyaWFuZ2xlT3V0TC05LTQtMSIgc3R5bGU9Im92ZXJmbG93OnZpc2libGUiIGlua3NjYXBlOmlzc3RvY2s9InRydWUiPiYjeGE7ICAgICAgPHBhdGggaWQ9InBhdGg1MTQ3LTEtOC02IiBkPSJNIDUuNzcsMCAtMi44OCw1IFYgLTUgWiIgc3R5bGU9ImZpbGw6IzAwMDAwMDtmaWxsLW9wYWNpdHk6MTtmaWxsLXJ1bGU6ZXZlbm9kZDtzdHJva2U6IzAwMDAwMDtzdHJva2Utd2lkdGg6MS4wMDAwMDAwM3B0O3N0cm9rZS1vcGFjaXR5OjEiIHRyYW5zZm9ybT0ic2NhbGUoMC44KSIgaW5rc2NhcGU6Y29ubmVjdG9yLWN1cnZhdHVyZT0iMCIvPiYjeGE7ICAgIDwvbWFya2VyPiYjeGE7ICAgIDxtYXJrZXIgaW5rc2NhcGU6aXNzdG9jaz0idHJ1ZSIgc3R5bGU9Im92ZXJmbG93OnZpc2libGUiIGlkPSJUcmlhbmdsZU91dEwtOS0yLTAtMSIgcmVmWD0iMCIgcmVmWT0iMCIgb3JpZW50PSJhdXRvIiBpbmtzY2FwZTpzdG9ja2lkPSJUcmlhbmdsZU91dEwiPiYjeGE7ICAgICAgPHBhdGggdHJhbnNmb3JtPSJzY2FsZSgwLjgpIiBzdHlsZT0iZmlsbDojMDAwMDAwO2ZpbGwtb3BhY2l0eToxO2ZpbGwtcnVsZTpldmVub2RkO3N0cm9rZTojMDAwMDAwO3N0cm9rZS13aWR0aDoxLjAwMDAwMDAzcHQ7c3Ryb2tlLW9wYWNpdHk6MSIgZD0iTSA1Ljc3LDAgLTIuODgsNSBWIC01IFoiIGlkPSJwYXRoNTE0Ny0xLTItOS0wIiBpbmtzY2FwZTpjb25uZWN0b3ItY3VydmF0dXJlPSIwIi8+JiN4YTsgICAgPC9tYXJrZXI+JiN4YTsgICAgPG1hcmtlciBpbmtzY2FwZTpzdG9ja2lkPSJBcnJvdzFMZW5kIiBvcmllbnQ9ImF1dG8iIHJlZlk9IjAiIHJlZlg9IjAiIGlkPSJBcnJvdzFMZW5kLTgtOTMiIHN0eWxlPSJvdmVyZmxvdzp2aXNpYmxlIiBpbmtzY2FwZTppc3N0b2NrPSJ0cnVlIj4mI3hhOyAgICAgIDxwYXRoIGlkPSJwYXRoMTA3MC00LTciIGQ9Ik0gMCwwIDUsLTUgLTEyLjUsMCA1LDUgWiIgc3R5bGU9ImZpbGw6IzAwMDAwMDtmaWxsLW9wYWNpdHk6MTtmaWxsLXJ1bGU6ZXZlbm9kZDtzdHJva2U6IzAwMDAwMDtzdHJva2Utd2lkdGg6MS4wMDAwMDAwM3B0O3N0cm9rZS1vcGFjaXR5OjEiIHRyYW5zZm9ybT0ibWF0cml4KC0wLjgsMCwwLC0wLjgsLTEwLDApIiBpbmtzY2FwZTpjb25uZWN0b3ItY3VydmF0dXJlPSIwIi8+JiN4YTsgICAgPC9tYXJrZXI+JiN4YTsgICAgPG1hcmtlciBpbmtzY2FwZTpzdG9ja2lkPSJUcmlhbmdsZU91dEwiIG9yaWVudD0iYXV0byIgcmVmWT0iMCIgcmVmWD0iMCIgaWQ9IlRyaWFuZ2xlT3V0TC00NiIgc3R5bGU9Im92ZXJmbG93OnZpc2libGUiIGlua3NjYXBlOmlzc3RvY2s9InRydWUiPiYjeGE7ICAgICAgPHBhdGggaWQ9InBhdGg1MTQ3LTE2IiBkPSJNIDUuNzcsMCAtMi44OCw1IFYgLTUgWiIgc3R5bGU9ImZpbGw6IzAwMDAwMDtmaWxsLW9wYWNpdHk6MTtmaWxsLXJ1bGU6ZXZlbm9kZDtzdHJva2U6IzAwMDAwMDtzdHJva2Utd2lkdGg6MS4wMDAwMDAwM3B0O3N0cm9rZS1vcGFjaXR5OjEiIHRyYW5zZm9ybT0ic2NhbGUoMC44KSIgaW5rc2NhcGU6Y29ubmVjdG9yLWN1cnZhdHVyZT0iMCIvPiYjeGE7ICAgIDwvbWFya2VyPiYjeGE7ICAgIDxtYXJrZXIgaW5rc2NhcGU6aXNzdG9jaz0idHJ1ZSIgc3R5bGU9Im92ZXJmbG93OnZpc2libGUiIGlkPSJUcmlhbmdsZU91dEwtOS00MyIgcmVmWD0iMCIgcmVmWT0iMCIgb3JpZW50PSJhdXRvIiBpbmtzY2FwZTpzdG9ja2lkPSJUcmlhbmdsZU91dEwiPiYjeGE7ICAgICAgPHBhdGggdHJhbnNmb3JtPSJzY2FsZSgwLjgpIiBzdHlsZT0iZmlsbDojMDAwMDAwO2ZpbGwtb3BhY2l0eToxO2ZpbGwtcnVsZTpldmVub2RkO3N0cm9rZTojMDAwMDAwO3N0cm9rZS13aWR0aDoxLjAwMDAwMDAzcHQ7c3Ryb2tlLW9wYWNpdHk6MSIgZD0iTSA1Ljc3LDAgLTIuODgsNSBWIC01IFoiIGlkPSJwYXRoNTE0Ny0xLTM0IiBpbmtzY2FwZTpjb25uZWN0b3ItY3VydmF0dXJlPSIwIi8+JiN4YTsgICAgPC9tYXJrZXI+JiN4YTsgICAgPG1hcmtlciBpbmtzY2FwZTpzdG9ja2lkPSJUcmlhbmdsZU91dEwiIG9yaWVudD0iYXV0byIgcmVmWT0iMCIgcmVmWD0iMCIgaWQ9IlRyaWFuZ2xlT3V0TC05LTItMSIgc3R5bGU9Im92ZXJmbG93OnZpc2libGUiIGlua3NjYXBlOmlzc3RvY2s9InRydWUiPiYjeGE7ICAgICAgPHBhdGggaWQ9InBhdGg1MTQ3LTEtMi05MyIgZD0iTSA1Ljc3LDAgLTIuODgsNSBWIC01IFoiIHN0eWxlPSJmaWxsOiMwMDAwMDA7ZmlsbC1vcGFjaXR5OjE7ZmlsbC1ydWxlOmV2ZW5vZGQ7c3Ryb2tlOiMwMDAwMDA7c3Ryb2tlLXdpZHRoOjEuMDAwMDAwMDNwdDtzdHJva2Utb3BhY2l0eToxIiB0cmFuc2Zvcm09InNjYWxlKDAuOCkiIGlua3NjYXBlOmNvbm5lY3Rvci1jdXJ2YXR1cmU9IjAiLz4mI3hhOyAgICA8L21hcmtlcj4mI3hhOyAgICA8bWFya2VyIGlua3NjYXBlOnN0b2NraWQ9IlRyaWFuZ2xlT3V0TCIgb3JpZW50PSJhdXRvIiByZWZZPSIwIiByZWZYPSIwIiBpZD0iVHJpYW5nbGVPdXRMLTktNC00IiBzdHlsZT0ib3ZlcmZsb3c6dmlzaWJsZSIgaW5rc2NhcGU6aXNzdG9jaz0idHJ1ZSI+JiN4YTsgICAgICA8cGF0aCBpZD0icGF0aDUxNDctMS04LTMiIGQ9Ik0gNS43NywwIC0yLjg4LDUgViAtNSBaIiBzdHlsZT0iZmlsbDojMDAwMDAwO2ZpbGwtb3BhY2l0eToxO2ZpbGwtcnVsZTpldmVub2RkO3N0cm9rZTojMDAwMDAwO3N0cm9rZS13aWR0aDoxLjAwMDAwMDAzcHQ7c3Ryb2tlLW9wYWNpdHk6MSIgdHJhbnNmb3JtPSJzY2FsZSgwLjgpIiBpbmtzY2FwZTpjb25uZWN0b3ItY3VydmF0dXJlPSIwIi8+JiN4YTsgICAgPC9tYXJrZXI+JiN4YTsgICAgPG1hcmtlciBpbmtzY2FwZTppc3N0b2NrPSJ0cnVlIiBzdHlsZT0ib3ZlcmZsb3c6dmlzaWJsZSIgaWQ9IlRyaWFuZ2xlT3V0TC05LTItMC0zIiByZWZYPSIwIiByZWZZPSIwIiBvcmllbnQ9ImF1dG8iIGlua3NjYXBlOnN0b2NraWQ9IlRyaWFuZ2xlT3V0TCI+JiN4YTsgICAgICA8cGF0aCB0cmFuc2Zvcm09InNjYWxlKDAuOCkiIHN0eWxlPSJmaWxsOiMwMDAwMDA7ZmlsbC1vcGFjaXR5OjE7ZmlsbC1ydWxlOmV2ZW5vZGQ7c3Ryb2tlOiMwMDAwMDA7c3Ryb2tlLXdpZHRoOjEuMDAwMDAwMDNwdDtzdHJva2Utb3BhY2l0eToxIiBkPSJNIDUuNzcsMCAtMi44OCw1IFYgLTUgWiIgaWQ9InBhdGg1MTQ3LTEtMi05LTEiIGlua3NjYXBlOmNvbm5lY3Rvci1jdXJ2YXR1cmU9IjAiLz4mI3hhOyAgICA8L21hcmtlcj4mI3hhOyAgICA8bWFya2VyIGlua3NjYXBlOmlzc3RvY2s9InRydWUiIHN0eWxlPSJvdmVyZmxvdzp2aXNpYmxlIiBpZD0iQXJyb3cxTGVuZC04LTAtMSIgcmVmWD0iMCIgcmVmWT0iMCIgb3JpZW50PSJhdXRvIiBpbmtzY2FwZTpzdG9ja2lkPSJBcnJvdzFMZW5kIj4mI3hhOyAgICAgIDxwYXRoIHRyYW5zZm9ybT0ibWF0cml4KC0wLjgsMCwwLC0wLjgsLTEwLDApIiBzdHlsZT0iZmlsbDojMDAxYWRjO2ZpbGwtb3BhY2l0eToxO2ZpbGwtcnVsZTpldmVub2RkO3N0cm9rZTojMDAxYWRjO3N0cm9rZS13aWR0aDoxLjAwMDAwMDAzcHQ7c3Ryb2tlLW9wYWNpdHk6MSIgZD0iTSAwLDAgNSwtNSAtMTIuNSwwIDUsNSBaIiBpZD0icGF0aDEwNzAtNC0zLTQiIGlua3NjYXBlOmNvbm5lY3Rvci1jdXJ2YXR1cmU9IjAiLz4mI3hhOyAgICA8L21hcmtlcj4mI3hhOyAgICA8bWFya2VyIGlua3NjYXBlOmlzc3RvY2s9InRydWUiIHN0eWxlPSJvdmVyZmxvdzp2aXNpYmxlIiBpZD0iVHJpYW5nbGVPdXRMLTk2LTUiIHJlZlg9IjAiIHJlZlk9IjAiIG9yaWVudD0iYXV0byIgaW5rc2NhcGU6c3RvY2tpZD0iVHJpYW5nbGVPdXRMIj4mI3hhOyAgICAgIDxwYXRoIHRyYW5zZm9ybT0ic2NhbGUoMC44KSIgc3R5bGU9ImZpbGw6IzAwMDAwMDtmaWxsLW9wYWNpdHk6MTtmaWxsLXJ1bGU6ZXZlbm9kZDtzdHJva2U6IzAwMDAwMDtzdHJva2Utd2lkdGg6MS4wMDAwMDAwM3B0O3N0cm9rZS1vcGFjaXR5OjEiIGQ9Ik0gNS43NywwIC0yLjg4LDUgViAtNSBaIiBpZD0icGF0aDUxNDctMy0wIiBpbmtzY2FwZTpjb25uZWN0b3ItY3VydmF0dXJlPSIwIi8+JiN4YTsgICAgPC9tYXJrZXI+JiN4YTsgICAgPG1hcmtlciBpbmtzY2FwZTpzdG9ja2lkPSJUcmlhbmdsZU91dEwiIG9yaWVudD0iYXV0byIgcmVmWT0iMCIgcmVmWD0iMCIgaWQ9IlRyaWFuZ2xlT3V0TC05LTAtNSIgc3R5bGU9Im92ZXJmbG93OnZpc2libGUiIGlua3NjYXBlOmlzc3RvY2s9InRydWUiPiYjeGE7ICAgICAgPHBhdGggaWQ9InBhdGg1MTQ3LTEtMy0zIiBkPSJNIDUuNzcsMCAtMi44OCw1IFYgLTUgWiIgc3R5bGU9ImZpbGw6IzAwMDAwMDtmaWxsLW9wYWNpdHk6MTtmaWxsLXJ1bGU6ZXZlbm9kZDtzdHJva2U6IzAwMDAwMDtzdHJva2Utd2lkdGg6MS4wMDAwMDAwM3B0O3N0cm9rZS1vcGFjaXR5OjEiIHRyYW5zZm9ybT0ic2NhbGUoMC44KSIgaW5rc2NhcGU6Y29ubmVjdG9yLWN1cnZhdHVyZT0iMCIvPiYjeGE7ICAgIDwvbWFya2VyPiYjeGE7ICAgIDxtYXJrZXIgaW5rc2NhcGU6aXNzdG9jaz0idHJ1ZSIgc3R5bGU9Im92ZXJmbG93OnZpc2libGUiIGlkPSJUcmlhbmdsZU91dEwtOS0yLTQtNSIgcmVmWD0iMCIgcmVmWT0iMCIgb3JpZW50PSJhdXRvIiBpbmtzY2FwZTpzdG9ja2lkPSJUcmlhbmdsZU91dEwiPiYjeGE7ICAgICAgPHBhdGggdHJhbnNmb3JtPSJzY2FsZSgwLjgpIiBzdHlsZT0iZmlsbDojMDAwMDAwO2ZpbGwtb3BhY2l0eToxO2ZpbGwtcnVsZTpldmVub2RkO3N0cm9rZTojMDAwMDAwO3N0cm9rZS13aWR0aDoxLjAwMDAwMDAzcHQ7c3Ryb2tlLW9wYWNpdHk6MSIgZD0iTSA1Ljc3LDAgLTIuODgsNSBWIC01IFoiIGlkPSJwYXRoNTE0Ny0xLTItNi02IiBpbmtzY2FwZTpjb25uZWN0b3ItY3VydmF0dXJlPSIwIi8+JiN4YTsgICAgPC9tYXJrZXI+JiN4YTsgICAgPG1hcmtlciBpbmtzY2FwZTppc3N0b2NrPSJ0cnVlIiBzdHlsZT0ib3ZlcmZsb3c6dmlzaWJsZSIgaWQ9IlRyaWFuZ2xlT3V0TC05LTQtMS0yIiByZWZYPSIwIiByZWZZPSIwIiBvcmllbnQ9ImF1dG8iIGlua3NjYXBlOnN0b2NraWQ9IlRyaWFuZ2xlT3V0TCI+JiN4YTsgICAgICA8cGF0aCB0cmFuc2Zvcm09InNjYWxlKDAuOCkiIHN0eWxlPSJmaWxsOiMwMDAwMDA7ZmlsbC1vcGFjaXR5OjE7ZmlsbC1ydWxlOmV2ZW5vZGQ7c3Ryb2tlOiMwMDAwMDA7c3Ryb2tlLXdpZHRoOjEuMDAwMDAwMDNwdDtzdHJva2Utb3BhY2l0eToxIiBkPSJNIDUuNzcsMCAtMi44OCw1IFYgLTUgWiIgaWQ9InBhdGg1MTQ3LTEtOC02LTgiIGlua3NjYXBlOmNvbm5lY3Rvci1jdXJ2YXR1cmU9IjAiLz4mI3hhOyAgICA8L21hcmtlcj4mI3hhOyAgICA8bWFya2VyIGlua3NjYXBlOnN0b2NraWQ9IlRyaWFuZ2xlT3V0TCIgb3JpZW50PSJhdXRvIiByZWZZPSIwIiByZWZYPSIwIiBpZD0iVHJpYW5nbGVPdXRMLTktMi0wLTEtOSIgc3R5bGU9Im92ZXJmbG93OnZpc2libGUiIGlua3NjYXBlOmlzc3RvY2s9InRydWUiPiYjeGE7ICAgICAgPHBhdGggaWQ9InBhdGg1MTQ3LTEtMi05LTAtOCIgZD0iTSA1Ljc3LDAgLTIuODgsNSBWIC01IFoiIHN0eWxlPSJmaWxsOiMwMDAwMDA7ZmlsbC1vcGFjaXR5OjE7ZmlsbC1ydWxlOmV2ZW5vZGQ7c3Ryb2tlOiMwMDAwMDA7c3Ryb2tlLXdpZHRoOjEuMDAwMDAwMDNwdDtzdHJva2Utb3BhY2l0eToxIiB0cmFuc2Zvcm09InNjYWxlKDAuOCkiIGlua3NjYXBlOmNvbm5lY3Rvci1jdXJ2YXR1cmU9IjAiLz4mI3hhOyAgICA8L21hcmtlcj4mI3hhOyAgICA8bWFya2VyIGlua3NjYXBlOmlzc3RvY2s9InRydWUiIHN0eWxlPSJvdmVyZmxvdzp2aXNpYmxlIiBpZD0iQXJyb3cxTGVuZC04LTAtNyIgcmVmWD0iMCIgcmVmWT0iMCIgb3JpZW50PSJhdXRvIiBpbmtzY2FwZTpzdG9ja2lkPSJBcnJvdzFMZW5kIj4mI3hhOyAgICAgIDxwYXRoIHRyYW5zZm9ybT0ibWF0cml4KC0wLjgsMCwwLC0wLjgsLTEwLDApIiBzdHlsZT0iZmlsbDojMDAwMDAwO2ZpbGwtb3BhY2l0eToxO2ZpbGwtcnVsZTpldmVub2RkO3N0cm9rZTojMDAwMDAwO3N0cm9rZS13aWR0aDoxLjAwMDAwMDAzcHQ7c3Ryb2tlLW9wYWNpdHk6MSIgZD0iTSAwLDAgNSwtNSAtMTIuNSwwIDUsNSBaIiBpZD0icGF0aDEwNzAtNC0zLTYiIGlua3NjYXBlOmNvbm5lY3Rvci1jdXJ2YXR1cmU9IjAiLz4mI3hhOyAgICA8L21hcmtlcj4mI3hhOyAgICA8bWFya2VyIGlua3NjYXBlOmlzc3RvY2s9InRydWUiIHN0eWxlPSJvdmVyZmxvdzp2aXNpYmxlIiBpZD0iVHJpYW5nbGVPdXRMLTk2LTU3IiByZWZYPSIwIiByZWZZPSIwIiBvcmllbnQ9ImF1dG8iIGlua3NjYXBlOnN0b2NraWQ9IlRyaWFuZ2xlT3V0TCI+JiN4YTsgICAgICA8cGF0aCB0cmFuc2Zvcm09InNjYWxlKDAuOCkiIHN0eWxlPSJmaWxsOiMwMDAwMDA7ZmlsbC1vcGFjaXR5OjE7ZmlsbC1ydWxlOmV2ZW5vZGQ7c3Ryb2tlOiMwMDAwMDA7c3Ryb2tlLXdpZHRoOjEuMDAwMDAwMDNwdDtzdHJva2Utb3BhY2l0eToxIiBkPSJNIDUuNzcsMCAtMi44OCw1IFYgLTUgWiIgaWQ9InBhdGg1MTQ3LTMtMyIgaW5rc2NhcGU6Y29ubmVjdG9yLWN1cnZhdHVyZT0iMCIvPiYjeGE7ICAgIDwvbWFya2VyPiYjeGE7ICAgIDxtYXJrZXIgaW5rc2NhcGU6c3RvY2tpZD0iVHJpYW5nbGVPdXRMIiBvcmllbnQ9ImF1dG8iIHJlZlk9IjAiIHJlZlg9IjAiIGlkPSJUcmlhbmdsZU91dEwtOS0wLTciIHN0eWxlPSJvdmVyZmxvdzp2aXNpYmxlIiBpbmtzY2FwZTppc3N0b2NrPSJ0cnVlIj4mI3hhOyAgICAgIDxwYXRoIGlkPSJwYXRoNTE0Ny0xLTMtNiIgZD0iTSA1Ljc3LDAgLTIuODgsNSBWIC01IFoiIHN0eWxlPSJmaWxsOiMwMGE1MDA7ZmlsbC1vcGFjaXR5OjE7ZmlsbC1ydWxlOmV2ZW5vZGQ7c3Ryb2tlOiMwMGE1MDA7c3Ryb2tlLXdpZHRoOjEuMDAwMDAwMDNwdDtzdHJva2Utb3BhY2l0eToxIiB0cmFuc2Zvcm09InNjYWxlKDAuOCkiIGlua3NjYXBlOmNvbm5lY3Rvci1jdXJ2YXR1cmU9IjAiLz4mI3hhOyAgICA8L21hcmtlcj4mI3hhOyAgICA8bWFya2VyIGlua3NjYXBlOmlzc3RvY2s9InRydWUiIHN0eWxlPSJvdmVyZmxvdzp2aXNpYmxlIiBpZD0iVHJpYW5nbGVPdXRMLTktMi00LTAiIHJlZlg9IjAiIHJlZlk9IjAiIG9yaWVudD0iYXV0byIgaW5rc2NhcGU6c3RvY2tpZD0iVHJpYW5nbGVPdXRMIj4mI3hhOyAgICAgIDxwYXRoIHRyYW5zZm9ybT0ic2NhbGUoMC44KSIgc3R5bGU9ImZpbGw6IzAwMDAwMDtmaWxsLW9wYWNpdHk6MTtmaWxsLXJ1bGU6ZXZlbm9kZDtzdHJva2U6IzAwMDAwMDtzdHJva2Utd2lkdGg6MS4wMDAwMDAwM3B0O3N0cm9rZS1vcGFjaXR5OjEiIGQ9Ik0gNS43NywwIC0yLjg4LDUgViAtNSBaIiBpZD0icGF0aDUxNDctMS0yLTYtMyIgaW5rc2NhcGU6Y29ubmVjdG9yLWN1cnZhdHVyZT0iMCIvPiYjeGE7ICAgIDwvbWFya2VyPiYjeGE7ICAgIDxtYXJrZXIgaW5rc2NhcGU6aXNzdG9jaz0idHJ1ZSIgc3R5bGU9Im92ZXJmbG93OnZpc2libGUiIGlkPSJUcmlhbmdsZU91dEwtOS00LTEtNiIgcmVmWD0iMCIgcmVmWT0iMCIgb3JpZW50PSJhdXRvIiBpbmtzY2FwZTpzdG9ja2lkPSJUcmlhbmdsZU91dEwiPiYjeGE7ICAgICAgPHBhdGggdHJhbnNmb3JtPSJzY2FsZSgwLjgpIiBzdHlsZT0iZmlsbDojMDAwMDAwO2ZpbGwtb3BhY2l0eToxO2ZpbGwtcnVsZTpldmVub2RkO3N0cm9rZTojMDAwMDAwO3N0cm9rZS13aWR0aDoxLjAwMDAwMDAzcHQ7c3Ryb2tlLW9wYWNpdHk6MSIgZD0iTSA1Ljc3LDAgLTIuODgsNSBWIC01IFoiIGlkPSJwYXRoNTE0Ny0xLTgtNi0zIiBpbmtzY2FwZTpjb25uZWN0b3ItY3VydmF0dXJlPSIwIi8+JiN4YTsgICAgPC9tYXJrZXI+JiN4YTsgICAgPG1hcmtlciBpbmtzY2FwZTpzdG9ja2lkPSJUcmlhbmdsZU91dEwiIG9yaWVudD0iYXV0byIgcmVmWT0iMCIgcmVmWD0iMCIgaWQ9IlRyaWFuZ2xlT3V0TC05LTItMC0xLTMiIHN0eWxlPSJvdmVyZmxvdzp2aXNpYmxlIiBpbmtzY2FwZTppc3N0b2NrPSJ0cnVlIj4mI3hhOyAgICAgIDxwYXRoIGlkPSJwYXRoNTE0Ny0xLTItOS0wLTMiIGQ9Ik0gNS43NywwIC0yLjg4LDUgViAtNSBaIiBzdHlsZT0iZmlsbDojMDAwMDAwO2ZpbGwtb3BhY2l0eToxO2ZpbGwtcnVsZTpldmVub2RkO3N0cm9rZTojMDAwMDAwO3N0cm9rZS13aWR0aDoxLjAwMDAwMDAzcHQ7c3Ryb2tlLW9wYWNpdHk6MSIgdHJhbnNmb3JtPSJzY2FsZSgwLjgpIiBpbmtzY2FwZTpjb25uZWN0b3ItY3VydmF0dXJlPSIwIi8+JiN4YTsgICAgPC9tYXJrZXI+JiN4YTsgICAgPG1hcmtlciBpbmtzY2FwZTpzdG9ja2lkPSJBcnJvdzFMZW5kIiBvcmllbnQ9ImF1dG8iIHJlZlk9IjAiIHJlZlg9IjAiIGlkPSJBcnJvdzFMZW5kLTgtMC0xLTgiIHN0eWxlPSJvdmVyZmxvdzp2aXNpYmxlIiBpbmtzY2FwZTppc3N0b2NrPSJ0cnVlIj4mI3hhOyAgICAgIDxwYXRoIGlkPSJwYXRoMTA3MC00LTMtNC04IiBkPSJNIDAsMCA1LC01IC0xMi41LDAgNSw1IFoiIHN0eWxlPSJmaWxsOiMwMDAwMDA7ZmlsbC1vcGFjaXR5OjE7ZmlsbC1ydWxlOmV2ZW5vZGQ7c3Ryb2tlOiMwMDAwMDA7c3Ryb2tlLXdpZHRoOjEuMDAwMDAwMDNwdDtzdHJva2Utb3BhY2l0eToxIiB0cmFuc2Zvcm09Im1hdHJpeCgtMC44LDAsMCwtMC44LC0xMCwwKSIgaW5rc2NhcGU6Y29ubmVjdG9yLWN1cnZhdHVyZT0iMCIvPiYjeGE7ICAgIDwvbWFya2VyPiYjeGE7ICAgIDxtYXJrZXIgaW5rc2NhcGU6c3RvY2tpZD0iVHJpYW5nbGVPdXRMIiBvcmllbnQ9ImF1dG8iIHJlZlk9IjAiIHJlZlg9IjAiIGlkPSJUcmlhbmdsZU91dEwtOTYtNS03IiBzdHlsZT0ib3ZlcmZsb3c6dmlzaWJsZSIgaW5rc2NhcGU6aXNzdG9jaz0idHJ1ZSI+JiN4YTsgICAgICA8cGF0aCBpZD0icGF0aDUxNDctMy0wLTUiIGQ9Ik0gNS43NywwIC0yLjg4LDUgViAtNSBaIiBzdHlsZT0iZmlsbDojMDAwMDAwO2ZpbGwtb3BhY2l0eToxO2ZpbGwtcnVsZTpldmVub2RkO3N0cm9rZTojMDAwMDAwO3N0cm9rZS13aWR0aDoxLjAwMDAwMDAzcHQ7c3Ryb2tlLW9wYWNpdHk6MSIgdHJhbnNmb3JtPSJzY2FsZSgwLjgpIiBpbmtzY2FwZTpjb25uZWN0b3ItY3VydmF0dXJlPSIwIi8+JiN4YTsgICAgPC9tYXJrZXI+JiN4YTsgICAgPG1hcmtlciBpbmtzY2FwZTppc3N0b2NrPSJ0cnVlIiBzdHlsZT0ib3ZlcmZsb3c6dmlzaWJsZSIgaWQ9IlRyaWFuZ2xlT3V0TC05LTAtNS0wIiByZWZYPSIwIiByZWZZPSIwIiBvcmllbnQ9ImF1dG8iIGlua3NjYXBlOnN0b2NraWQ9IlRyaWFuZ2xlT3V0TCI+JiN4YTsgICAgICA8cGF0aCB0cmFuc2Zvcm09InNjYWxlKDAuOCkiIHN0eWxlPSJmaWxsOiMwMDAwMDA7ZmlsbC1vcGFjaXR5OjE7ZmlsbC1ydWxlOmV2ZW5vZGQ7c3Ryb2tlOiMwMDAwMDA7c3Ryb2tlLXdpZHRoOjEuMDAwMDAwMDNwdDtzdHJva2Utb3BhY2l0eToxIiBkPSJNIDUuNzcsMCAtMi44OCw1IFYgLTUgWiIgaWQ9InBhdGg1MTQ3LTEtMy0zLTkiIGlua3NjYXBlOmNvbm5lY3Rvci1jdXJ2YXR1cmU9IjAiLz4mI3hhOyAgICA8L21hcmtlcj4mI3hhOyAgICA8bWFya2VyIGlua3NjYXBlOnN0b2NraWQ9IlRyaWFuZ2xlT3V0TCIgb3JpZW50PSJhdXRvIiByZWZZPSIwIiByZWZYPSIwIiBpZD0iVHJpYW5nbGVPdXRMLTktMi00LTUtOCIgc3R5bGU9Im92ZXJmbG93OnZpc2libGUiIGlua3NjYXBlOmlzc3RvY2s9InRydWUiPiYjeGE7ICAgICAgPHBhdGggaWQ9InBhdGg1MTQ3LTEtMi02LTYtNyIgZD0iTSA1Ljc3LDAgLTIuODgsNSBWIC01IFoiIHN0eWxlPSJmaWxsOiMwMDAwMDA7ZmlsbC1vcGFjaXR5OjE7ZmlsbC1ydWxlOmV2ZW5vZGQ7c3Ryb2tlOiMwMDAwMDA7c3Ryb2tlLXdpZHRoOjEuMDAwMDAwMDNwdDtzdHJva2Utb3BhY2l0eToxIiB0cmFuc2Zvcm09InNjYWxlKDAuOCkiIGlua3NjYXBlOmNvbm5lY3Rvci1jdXJ2YXR1cmU9IjAiLz4mI3hhOyAgICA8L21hcmtlcj4mI3hhOyAgICA8bWFya2VyIGlua3NjYXBlOnN0b2NraWQ9IlRyaWFuZ2xlT3V0TCIgb3JpZW50PSJhdXRvIiByZWZZPSIwIiByZWZYPSIwIiBpZD0iVHJpYW5nbGVPdXRMLTktNC0xLTItNiIgc3R5bGU9Im92ZXJmbG93OnZpc2libGUiIGlua3NjYXBlOmlzc3RvY2s9InRydWUiPiYjeGE7ICAgICAgPHBhdGggaWQ9InBhdGg1MTQ3LTEtOC02LTgtNiIgZD0iTSA1Ljc3LDAgLTIuODgsNSBWIC01IFoiIHN0eWxlPSJmaWxsOiMwMDAwMDA7ZmlsbC1vcGFjaXR5OjE7ZmlsbC1ydWxlOmV2ZW5vZGQ7c3Ryb2tlOiMwMDAwMDA7c3Ryb2tlLXdpZHRoOjEuMDAwMDAwMDNwdDtzdHJva2Utb3BhY2l0eToxIiB0cmFuc2Zvcm09InNjYWxlKDAuOCkiIGlua3NjYXBlOmNvbm5lY3Rvci1jdXJ2YXR1cmU9IjAiLz4mI3hhOyAgICA8L21hcmtlcj4mI3hhOyAgICA8bWFya2VyIGlua3NjYXBlOmlzc3RvY2s9InRydWUiIHN0eWxlPSJvdmVyZmxvdzp2aXNpYmxlIiBpZD0iVHJpYW5nbGVPdXRMLTktMi0wLTEtOS00IiByZWZYPSIwIiByZWZZPSIwIiBvcmllbnQ9ImF1dG8iIGlua3NjYXBlOnN0b2NraWQ9IlRyaWFuZ2xlT3V0TCI+JiN4YTsgICAgICA8cGF0aCB0cmFuc2Zvcm09InNjYWxlKDAuOCkiIHN0eWxlPSJmaWxsOiMwMDAwMDA7ZmlsbC1vcGFjaXR5OjE7ZmlsbC1ydWxlOmV2ZW5vZGQ7c3Ryb2tlOiMwMDAwMDA7c3Ryb2tlLXdpZHRoOjEuMDAwMDAwMDNwdDtzdHJva2Utb3BhY2l0eToxIiBkPSJNIDUuNzcsMCAtMi44OCw1IFYgLTUgWiIgaWQ9InBhdGg1MTQ3LTEtMi05LTAtOC01IiBpbmtzY2FwZTpjb25uZWN0b3ItY3VydmF0dXJlPSIwIi8+JiN4YTsgICAgPC9tYXJrZXI+JiN4YTsgICAgPG1hcmtlciBpbmtzY2FwZTppc3N0b2NrPSJ0cnVlIiBzdHlsZT0ib3ZlcmZsb3c6dmlzaWJsZSIgaWQ9IkFycm93MUxlbmQtOC0wLTkiIHJlZlg9IjAiIHJlZlk9IjAiIG9yaWVudD0iYXV0byIgaW5rc2NhcGU6c3RvY2tpZD0iQXJyb3cxTGVuZCI+JiN4YTsgICAgICA8cGF0aCB0cmFuc2Zvcm09Im1hdHJpeCgtMC44LDAsMCwtMC44LC0xMCwwKSIgc3R5bGU9ImZpbGw6IzAwMDAwMDtmaWxsLW9wYWNpdHk6MTtmaWxsLXJ1bGU6ZXZlbm9kZDtzdHJva2U6IzAwMDAwMDtzdHJva2Utd2lkdGg6MS4wMDAwMDAwM3B0O3N0cm9rZS1vcGFjaXR5OjEiIGQ9Ik0gMCwwIDUsLTUgLTEyLjUsMCA1LDUgWiIgaWQ9InBhdGgxMDcwLTQtMy0wIiBpbmtzY2FwZTpjb25uZWN0b3ItY3VydmF0dXJlPSIwIi8+JiN4YTsgICAgPC9tYXJrZXI+JiN4YTsgICAgPG1hcmtlciBpbmtzY2FwZTppc3N0b2NrPSJ0cnVlIiBzdHlsZT0ib3ZlcmZsb3c6dmlzaWJsZSIgaWQ9IkFycm93MUxlbmQtOC0wLTEtOC0yIiByZWZYPSIwIiByZWZZPSIwIiBvcmllbnQ9ImF1dG8iIGlua3NjYXBlOnN0b2NraWQ9IkFycm93MUxlbmQiPiYjeGE7ICAgICAgPHBhdGggdHJhbnNmb3JtPSJtYXRyaXgoLTAuOCwwLDAsLTAuOCwtMTAsMCkiIHN0eWxlPSJmaWxsOiMwMDAwMDA7ZmlsbC1vcGFjaXR5OjE7ZmlsbC1ydWxlOmV2ZW5vZGQ7c3Ryb2tlOiMwMDAwMDA7c3Ryb2tlLXdpZHRoOjEuMDAwMDAwMDNwdDtzdHJva2Utb3BhY2l0eToxIiBkPSJNIDAsMCA1LC01IC0xMi41LDAgNSw1IFoiIGlkPSJwYXRoMTA3MC00LTMtNC04LTkiIGlua3NjYXBlOmNvbm5lY3Rvci1jdXJ2YXR1cmU9IjAiLz4mI3hhOyAgICA8L21hcmtlcj4mI3hhOyAgICA8bWFya2VyIGlua3NjYXBlOnN0b2NraWQ9IkFycm93MUxlbmQiIG9yaWVudD0iYXV0byIgcmVmWT0iMCIgcmVmWD0iMCIgaWQ9IkFycm93MUxlbmQtOC0wLTEtOC0yLTciIHN0eWxlPSJvdmVyZmxvdzp2aXNpYmxlIiBpbmtzY2FwZTppc3N0b2NrPSJ0cnVlIj4mI3hhOyAgICAgIDxwYXRoIGlkPSJwYXRoMTA3MC00LTMtNC04LTktMyIgZD0iTSAwLDAgNSwtNSAtMTIuNSwwIDUsNSBaIiBzdHlsZT0iZmlsbDojMDAwMDAwO2ZpbGwtb3BhY2l0eToxO2ZpbGwtcnVsZTpldmVub2RkO3N0cm9rZTojMDAwMDAwO3N0cm9rZS13aWR0aDoxLjAwMDAwMDAzcHQ7c3Ryb2tlLW9wYWNpdHk6MSIgdHJhbnNmb3JtPSJtYXRyaXgoLTAuOCwwLDAsLTAuOCwtMTAsMCkiIGlua3NjYXBlOmNvbm5lY3Rvci1jdXJ2YXR1cmU9IjAiLz4mI3hhOyAgICA8L21hcmtlcj4mI3hhOyAgICA8bWFya2VyIGlua3NjYXBlOmlzc3RvY2s9InRydWUiIHN0eWxlPSJvdmVyZmxvdzp2aXNpYmxlIiBpZD0iQXJyb3cxTGVuZC04LTAtMS04LTItNy0xIiByZWZYPSIwIiByZWZZPSIwIiBvcmllbnQ9ImF1dG8iIGlua3NjYXBlOnN0b2NraWQ9IkFycm93MUxlbmQiPiYjeGE7ICAgICAgPHBhdGggdHJhbnNmb3JtPSJtYXRyaXgoLTAuOCwwLDAsLTAuOCwtMTAsMCkiIHN0eWxlPSJmaWxsOiMwMDAwMDA7ZmlsbC1vcGFjaXR5OjE7ZmlsbC1ydWxlOmV2ZW5vZGQ7c3Ryb2tlOiMwMDAwMDA7c3Ryb2tlLXdpZHRoOjEuMDAwMDAwMDNwdDtzdHJva2Utb3BhY2l0eToxIiBkPSJNIDAsMCA1LC01IC0xMi41LDAgNSw1IFoiIGlkPSJwYXRoMTA3MC00LTMtNC04LTktMy0zIiBpbmtzY2FwZTpjb25uZWN0b3ItY3VydmF0dXJlPSIwIi8+JiN4YTsgICAgPC9tYXJrZXI+JiN4YTsgICAgPG1hcmtlciBpbmtzY2FwZTpzdG9ja2lkPSJBcnJvdzFMZW5kIiBvcmllbnQ9ImF1dG8iIHJlZlk9IjAiIHJlZlg9IjAiIGlkPSJBcnJvdzFMZW5kLTgtMC0xLTgtMi03LTEtNCIgc3R5bGU9Im92ZXJmbG93OnZpc2libGUiIGlua3NjYXBlOmlzc3RvY2s9InRydWUiPiYjeGE7ICAgICAgPHBhdGggaWQ9InBhdGgxMDcwLTQtMy00LTgtOS0zLTMtNyIgZD0iTSAwLDAgNSwtNSAtMTIuNSwwIDUsNSBaIiBzdHlsZT0iZmlsbDojMDAwMDAwO2ZpbGwtb3BhY2l0eToxO2ZpbGwtcnVsZTpldmVub2RkO3N0cm9rZTojMDAwMDAwO3N0cm9rZS13aWR0aDoxLjAwMDAwMDAzcHQ7c3Ryb2tlLW9wYWNpdHk6MSIgdHJhbnNmb3JtPSJtYXRyaXgoLTAuOCwwLDAsLTAuOCwtMTAsMCkiIGlua3NjYXBlOmNvbm5lY3Rvci1jdXJ2YXR1cmU9IjAiLz4mI3hhOyAgICA8L21hcmtlcj4mI3hhOyAgICA8bWFya2VyIGlua3NjYXBlOnN0b2NraWQ9IkFycm93MUxlbmQiIG9yaWVudD0iYXV0byIgcmVmWT0iMCIgcmVmWD0iMCIgaWQ9IkFycm93MUxlbmQtOC05NiIgc3R5bGU9Im92ZXJmbG93OnZpc2libGUiIGlua3NjYXBlOmlzc3RvY2s9InRydWUiPiYjeGE7ICAgICAgPHBhdGggaWQ9InBhdGgxMDcwLTQtMSIgZD0iTSAwLDAgNSwtNSAtMTIuNSwwIDUsNSBaIiBzdHlsZT0iZmlsbDojZDRhYTAwO2ZpbGwtb3BhY2l0eToxO2ZpbGwtcnVsZTpldmVub2RkO3N0cm9rZTojZDRhYTAwO3N0cm9rZS13aWR0aDoxLjAwMDAwMDAzcHQ7c3Ryb2tlLW9wYWNpdHk6MSIgdHJhbnNmb3JtPSJtYXRyaXgoLTAuOCwwLDAsLTAuOCwtMTAsMCkiIGlua3NjYXBlOmNvbm5lY3Rvci1jdXJ2YXR1cmU9IjAiLz4mI3hhOyAgICA8L21hcmtlcj4mI3hhOyAgICA8bWFya2VyIGlua3NjYXBlOmlzc3RvY2s9InRydWUiIHN0eWxlPSJvdmVyZmxvdzp2aXNpYmxlIiBpZD0ibWFya2VyNjI2MC01IiByZWZYPSIwIiByZWZZPSIwIiBvcmllbnQ9ImF1dG8iIGlua3NjYXBlOnN0b2NraWQ9IkFycm93MkxlbmQiPiYjeGE7ICAgICAgPHBhdGggdHJhbnNmb3JtPSJtYXRyaXgoLTEuMSwwLDAsLTEuMSwtMS4xLDApIiBkPSJNIDguNzE4NTg3OCw0LjAzMzczNTIgLTIuMjA3Mjg5NSwwLjAxNjAxMzI2IDguNzE4NTg4NCwtNC4wMDE3MDc4IGMgLTEuNzQ1NDk4NCwyLjM3MjA2MDkgLTEuNzM1NDQwOCw1LjYxNzQ1MTkgLTZlLTcsOC4wMzU0NDMgeiIgc3R5bGU9ImZpbGw6I2ZmYjI0MjtmaWxsLW9wYWNpdHk6MTtmaWxsLXJ1bGU6ZXZlbm9kZDtzdHJva2U6I2ZmYjI0MjtzdHJva2Utd2lkdGg6MC42MjU7c3Ryb2tlLWxpbmVqb2luOnJvdW5kO3N0cm9rZS1vcGFjaXR5OjEiIGlkPSJwYXRoNjI1OC00IiBpbmtzY2FwZTpjb25uZWN0b3ItY3VydmF0dXJlPSIwIi8+JiN4YTsgICAgPC9tYXJrZXI+JiN4YTsgICAgPG1hcmtlciBpbmtzY2FwZTpzdG9ja2lkPSJBcnJvdzJMZW5kIiBvcmllbnQ9ImF1dG8iIHJlZlk9IjAiIHJlZlg9IjAiIGlkPSJtYXJrZXI2MjYwLTUtMCIgc3R5bGU9Im92ZXJmbG93OnZpc2libGUiIGlua3NjYXBlOmlzc3RvY2s9InRydWUiPiYjeGE7ICAgICAgPHBhdGggaWQ9InBhdGg2MjU4LTQtMSIgc3R5bGU9ImZpbGw6I2ZmYjI0MjtmaWxsLW9wYWNpdHk6MTtmaWxsLXJ1bGU6ZXZlbm9kZDtzdHJva2U6I2ZmYjI0MjtzdHJva2Utd2lkdGg6MC42MjU7c3Ryb2tlLWxpbmVqb2luOnJvdW5kO3N0cm9rZS1vcGFjaXR5OjEiIGQ9Ik0gOC43MTg1ODc4LDQuMDMzNzM1MiAtMi4yMDcyODk1LDAuMDE2MDEzMjYgOC43MTg1ODg0LC00LjAwMTcwNzggYyAtMS43NDU0OTg0LDIuMzcyMDYwOSAtMS43MzU0NDA4LDUuNjE3NDUxOSAtNmUtNyw4LjAzNTQ0MyB6IiB0cmFuc2Zvcm09Im1hdHJpeCgtMS4xLDAsMCwtMS4xLC0xLjEsMCkiIGlua3NjYXBlOmNvbm5lY3Rvci1jdXJ2YXR1cmU9IjAiLz4mI3hhOyAgICA8L21hcmtlcj4mI3hhOyAgICA8bWFya2VyIGlua3NjYXBlOmlzc3RvY2s9InRydWUiIHN0eWxlPSJvdmVyZmxvdzp2aXNpYmxlIiBpZD0ibWFya2VyMTAxNjEtMCIgcmVmWD0iMCIgcmVmWT0iMCIgb3JpZW50PSJhdXRvIiBpbmtzY2FwZTpzdG9ja2lkPSJBcnJvdzFMc3RhcnQiPiYjeGE7ICAgICAgPHBhdGggdHJhbnNmb3JtPSJtYXRyaXgoMC44LDAsMCwwLjgsMTAsMCkiIHN0eWxlPSJmaWxsOiNmZmIyNDI7ZmlsbC1vcGFjaXR5OjE7ZmlsbC1ydWxlOmV2ZW5vZGQ7c3Ryb2tlOiNmZmIyNDI7c3Ryb2tlLXdpZHRoOjEuMDAwMDAwMDNwdDtzdHJva2Utb3BhY2l0eToxIiBkPSJNIDAsMCA1LC01IC0xMi41LDAgNSw1IFoiIGlkPSJwYXRoMTAxNTktMiIgaW5rc2NhcGU6Y29ubmVjdG9yLWN1cnZhdHVyZT0iMCIvPiYjeGE7ICAgIDwvbWFya2VyPiYjeGE7ICAgIDxtYXJrZXIgaW5rc2NhcGU6aXNzdG9jaz0idHJ1ZSIgc3R5bGU9Im92ZXJmbG93OnZpc2libGUiIGlkPSJBcnJvdzFMZW5kLTgtOTYtOSIgcmVmWD0iMCIgcmVmWT0iMCIgb3JpZW50PSJhdXRvIiBpbmtzY2FwZTpzdG9ja2lkPSJBcnJvdzFMZW5kIj4mI3hhOyAgICAgIDxwYXRoIHRyYW5zZm9ybT0ibWF0cml4KC0wLjgsMCwwLC0wLjgsLTEwLDApIiBzdHlsZT0iZmlsbDojMDA2YzAyO2ZpbGwtb3BhY2l0eToxO2ZpbGwtcnVsZTpldmVub2RkO3N0cm9rZTojMDA2YzAyO3N0cm9rZS13aWR0aDoxLjAwMDAwMDAzcHQ7c3Ryb2tlLW9wYWNpdHk6MSIgZD0iTSAwLDAgNSwtNSAtMTIuNSwwIDUsNSBaIiBpZD0icGF0aDEwNzAtNC0xLTYiIGlua3NjYXBlOmNvbm5lY3Rvci1jdXJ2YXR1cmU9IjAiLz4mI3hhOyAgICA8L21hcmtlcj4mI3hhOyAgICA8cmVjdCBpZD0icmVjdDY0OS0xIiBoZWlnaHQ9IjIyLjQ5ODU0NSIgd2lkdGg9IjU4LjA2MDc2IiB5PSIxMjkuMTg1MiIgeD0iMTIzLjE5NzY3Ii8+JiN4YTsgICAgPHJlY3QgaWQ9InJlY3QyMzQ1IiBoZWlnaHQ9IjIyLjQ5ODU0NSIgd2lkdGg9IjU4LjA2MDc2IiB5PSIxMjkuMTg1MiIgeD0iMTIzLjE5NzY3Ii8+JiN4YTsgICAgPGZpbHRlciBpbmtzY2FwZTpsYWJlbD0iRmlsbCBCYWNrZ3JvdW5kIiBpbmtzY2FwZTptZW51PSJGaWxsIGFuZCBUcmFuc3BhcmVuY3kiIGlua3NjYXBlOm1lbnUtdG9vbHRpcD0iQWRkcyBhIGNvbG9yaXphYmxlIG9wYXF1ZSBiYWNrZ3JvdW5kIiBzdHlsZT0iY29sb3ItaW50ZXJwb2xhdGlvbi1maWx0ZXJzOnNSR0IiIGlkPSJmaWx0ZXIzMjc1IiB4PSIwIiB5PSIwIiB3aWR0aD0iMSIgaGVpZ2h0PSIxIj4mI3hhOyAgICAgIDxmZUZsb29kIHJlc3VsdD0icmVzdWx0MSIgZmxvb2QtY29sb3I9InJnYigyNTUsMjU1LDI1NSkiIGZsb29kLW9wYWNpdHk9IjEiIGlkPSJmZUZsb29kMzI2MyIvPiYjeGE7ICAgICAgPGZlSW1hZ2UgeGxpbms6aHJlZj0iIiByZXN1bHQ9InJlc3VsdDIiIGlkPSJmZUltYWdlMzI2NSIvPiYjeGE7ICAgICAgPGZlQmxlbmQgcmVzdWx0PSJyZXN1bHQ0IiBpbjI9InJlc3VsdDEiIG1vZGU9Im11bHRpcGx5IiBpZD0iZmVCbGVuZDMyNjciLz4mI3hhOyAgICAgIDxmZU1lcmdlIHJlc3VsdD0icmVzdWx0MyIgaWQ9ImZlTWVyZ2UzMjczIj4mI3hhOyAgICAgICAgPGZlTWVyZ2VOb2RlIGluPSJyZXN1bHQxIiBpZD0iZmVNZXJnZU5vZGUzMjY5Ii8+JiN4YTsgICAgICAgIDxmZU1lcmdlTm9kZSBpbj0iU291cmNlR3JhcGhpYyIgaWQ9ImZlTWVyZ2VOb2RlMzI3MSIvPiYjeGE7ICAgICAgPC9mZU1lcmdlPiYjeGE7ICAgIDwvZmlsdGVyPiYjeGE7ICAgIDxmaWx0ZXIgaWQ9ImZpbHRlcjMyNzUtNCIgc3R5bGU9ImNvbG9yLWludGVycG9sYXRpb24tZmlsdGVyczpzUkdCIiBpbmtzY2FwZTptZW51LXRvb2x0aXA9IkFkZHMgYSBjb2xvcml6YWJsZSBvcGFxdWUgYmFja2dyb3VuZCIgaW5rc2NhcGU6bWVudT0iRmlsbCBhbmQgVHJhbnNwYXJlbmN5IiBpbmtzY2FwZTpsYWJlbD0iRmlsbCBCYWNrZ3JvdW5kIiB4PSIwIiB5PSIwIiB3aWR0aD0iMSIgaGVpZ2h0PSIxIj4mI3hhOyAgICAgIDxmZUZsb29kIGlkPSJmZUZsb29kMzI2My0yIiBmbG9vZC1vcGFjaXR5PSIxIiBmbG9vZC1jb2xvcj0icmdiKDI1NSwyNTUsMjU1KSIgcmVzdWx0PSJyZXN1bHQxIi8+JiN4YTsgICAgICA8ZmVJbWFnZSBpZD0iZmVJbWFnZTMyNjUtMSIgcmVzdWx0PSJyZXN1bHQyIiB4bGluazpocmVmPSIiLz4mI3hhOyAgICAgIDxmZUJsZW5kIGlkPSJmZUJsZW5kMzI2Ny01IiBtb2RlPSJtdWx0aXBseSIgaW4yPSJyZXN1bHQxIiByZXN1bHQ9InJlc3VsdDQiLz4mI3hhOyAgICAgIDxmZU1lcmdlIGlkPSJmZU1lcmdlMzI3My00IiByZXN1bHQ9InJlc3VsdDMiPiYjeGE7ICAgICAgICA8ZmVNZXJnZU5vZGUgaWQ9ImZlTWVyZ2VOb2RlMzI2OS04IiBpbj0icmVzdWx0MSIvPiYjeGE7ICAgICAgICA8ZmVNZXJnZU5vZGUgaWQ9ImZlTWVyZ2VOb2RlMzI3MS0yIiBpbj0iU291cmNlR3JhcGhpYyIvPiYjeGE7ICAgICAgPC9mZU1lcmdlPiYjeGE7ICAgIDwvZmlsdGVyPiYjeGE7ICAgIDxmaWx0ZXIgaW5rc2NhcGU6bGFiZWw9IkZpbGwgQmFja2dyb3VuZCIgaW5rc2NhcGU6bWVudT0iRmlsbCBhbmQgVHJhbnNwYXJlbmN5IiBpbmtzY2FwZTptZW51LXRvb2x0aXA9IkFkZHMgYSBjb2xvcml6YWJsZSBvcGFxdWUgYmFja2dyb3VuZCIgc3R5bGU9ImNvbG9yLWludGVycG9sYXRpb24tZmlsdGVyczpzUkdCIiBpZD0iZmlsdGVyMzI3NS00LTMiIHg9IjAiIHk9IjAiIHdpZHRoPSIxIiBoZWlnaHQ9IjEiPiYjeGE7ICAgICAgPGZlRmxvb2QgcmVzdWx0PSJyZXN1bHQxIiBmbG9vZC1jb2xvcj0icmdiKDI1NSwyNTUsMjU1KSIgZmxvb2Qtb3BhY2l0eT0iMSIgaWQ9ImZlRmxvb2QzMjYzLTItMCIvPiYjeGE7ICAgICAgPGZlSW1hZ2UgeGxpbms6aHJlZj0iIiByZXN1bHQ9InJlc3VsdDIiIGlkPSJmZUltYWdlMzI2NS0xLTAiLz4mI3hhOyAgICAgIDxmZUJsZW5kIHJlc3VsdD0icmVzdWx0NCIgaW4yPSJyZXN1bHQxIiBtb2RlPSJtdWx0aXBseSIgaWQ9ImZlQmxlbmQzMjY3LTUtNSIvPiYjeGE7ICAgICAgPGZlTWVyZ2UgcmVzdWx0PSJyZXN1bHQzIiBpZD0iZmVNZXJnZTMyNzMtNC01Ij4mI3hhOyAgICAgICAgPGZlTWVyZ2VOb2RlIGluPSJyZXN1bHQxIiBpZD0iZmVNZXJnZU5vZGUzMjY5LTgtNCIvPiYjeGE7ICAgICAgICA8ZmVNZXJnZU5vZGUgaW49IlNvdXJjZUdyYXBoaWMiIGlkPSJmZU1lcmdlTm9kZTMyNzEtMi0yIi8+JiN4YTsgICAgICA8L2ZlTWVyZ2U+JiN4YTsgICAgPC9maWx0ZXI+JiN4YTsgICAgPGZpbHRlciBpZD0iZmlsdGVyMzI3NS00LTMtOSIgc3R5bGU9ImNvbG9yLWludGVycG9sYXRpb24tZmlsdGVyczpzUkdCIiBpbmtzY2FwZTptZW51LXRvb2x0aXA9IkFkZHMgYSBjb2xvcml6YWJsZSBvcGFxdWUgYmFja2dyb3VuZCIgaW5rc2NhcGU6bWVudT0iRmlsbCBhbmQgVHJhbnNwYXJlbmN5IiBpbmtzY2FwZTpsYWJlbD0iRmlsbCBCYWNrZ3JvdW5kIiB4PSIwIiB5PSIwIiB3aWR0aD0iMSIgaGVpZ2h0PSIxIj4mI3hhOyAgICAgIDxmZUZsb29kIGlkPSJmZUZsb29kMzI2My0yLTAtMiIgZmxvb2Qtb3BhY2l0eT0iMSIgZmxvb2QtY29sb3I9InJnYigyNTUsMjU1LDI1NSkiIHJlc3VsdD0icmVzdWx0MSIvPiYjeGE7ICAgICAgPGZlSW1hZ2UgaWQ9ImZlSW1hZ2UzMjY1LTEtMC00IiByZXN1bHQ9InJlc3VsdDIiIHhsaW5rOmhyZWY9IiIvPiYjeGE7ICAgICAgPGZlQmxlbmQgaWQ9ImZlQmxlbmQzMjY3LTUtNS02IiBtb2RlPSJtdWx0aXBseSIgaW4yPSJyZXN1bHQxIiByZXN1bHQ9InJlc3VsdDQiLz4mI3hhOyAgICAgIDxmZU1lcmdlIGlkPSJmZU1lcmdlMzI3My00LTUtNiIgcmVzdWx0PSJyZXN1bHQzIj4mI3hhOyAgICAgICAgPGZlTWVyZ2VOb2RlIGlkPSJmZU1lcmdlTm9kZTMyNjktOC00LTEiIGluPSJyZXN1bHQxIi8+JiN4YTsgICAgICAgIDxmZU1lcmdlTm9kZSBpZD0iZmVNZXJnZU5vZGUzMjcxLTItMi01IiBpbj0iU291cmNlR3JhcGhpYyIvPiYjeGE7ICAgICAgPC9mZU1lcmdlPiYjeGE7ICAgIDwvZmlsdGVyPiYjeGE7ICAgIDxmaWx0ZXIgaW5rc2NhcGU6bGFiZWw9IkZpbGwgQmFja2dyb3VuZCIgaW5rc2NhcGU6bWVudT0iRmlsbCBhbmQgVHJhbnNwYXJlbmN5IiBpbmtzY2FwZTptZW51LXRvb2x0aXA9IkFkZHMgYSBjb2xvcml6YWJsZSBvcGFxdWUgYmFja2dyb3VuZCIgc3R5bGU9ImNvbG9yLWludGVycG9sYXRpb24tZmlsdGVyczpzUkdCIiBpZD0iZmlsdGVyMzI3NS00LTMtOS0yIiB4PSIwIiB5PSIwIiB3aWR0aD0iMSIgaGVpZ2h0PSIxIj4mI3hhOyAgICAgIDxmZUZsb29kIHJlc3VsdD0icmVzdWx0MSIgZmxvb2QtY29sb3I9InJnYigyNTUsMjU1LDI1NSkiIGZsb29kLW9wYWNpdHk9IjEiIGlkPSJmZUZsb29kMzI2My0yLTAtMi0wIi8+JiN4YTsgICAgICA8ZmVJbWFnZSB4bGluazpocmVmPSIiIHJlc3VsdD0icmVzdWx0MiIgaWQ9ImZlSW1hZ2UzMjY1LTEtMC00LTIiLz4mI3hhOyAgICAgIDxmZUJsZW5kIHJlc3VsdD0icmVzdWx0NCIgaW4yPSJyZXN1bHQxIiBtb2RlPSJtdWx0aXBseSIgaWQ9ImZlQmxlbmQzMjY3LTUtNS02LTciLz4mI3hhOyAgICAgIDxmZU1lcmdlIHJlc3VsdD0icmVzdWx0MyIgaWQ9ImZlTWVyZ2UzMjczLTQtNS02LTQiPiYjeGE7ICAgICAgICA8ZmVNZXJnZU5vZGUgaW49InJlc3VsdDEiIGlkPSJmZU1lcmdlTm9kZTMyNjktOC00LTEtNiIvPiYjeGE7ICAgICAgICA8ZmVNZXJnZU5vZGUgaW49IlNvdXJjZUdyYXBoaWMiIGlkPSJmZU1lcmdlTm9kZTMyNzEtMi0yLTUtNyIvPiYjeGE7ICAgICAgPC9mZU1lcmdlPiYjeGE7ICAgIDwvZmlsdGVyPiYjeGE7ICAgIDxmaWx0ZXIgaWQ9ImZpbHRlcjMyNzUtNC0zLTktMi01IiBzdHlsZT0iY29sb3ItaW50ZXJwb2xhdGlvbi1maWx0ZXJzOnNSR0IiIGlua3NjYXBlOm1lbnUtdG9vbHRpcD0iQWRkcyBhIGNvbG9yaXphYmxlIG9wYXF1ZSBiYWNrZ3JvdW5kIiBpbmtzY2FwZTptZW51PSJGaWxsIGFuZCBUcmFuc3BhcmVuY3kiIGlua3NjYXBlOmxhYmVsPSJGaWxsIEJhY2tncm91bmQiIHg9IjAiIHk9IjAiIHdpZHRoPSIxIiBoZWlnaHQ9IjEiPiYjeGE7ICAgICAgPGZlRmxvb2QgaWQ9ImZlRmxvb2QzMjYzLTItMC0yLTAtMyIgZmxvb2Qtb3BhY2l0eT0iMSIgZmxvb2QtY29sb3I9InJnYigyNTUsMjU1LDI1NSkiIHJlc3VsdD0icmVzdWx0MSIvPiYjeGE7ICAgICAgPGZlSW1hZ2UgaWQ9ImZlSW1hZ2UzMjY1LTEtMC00LTItOSIgcmVzdWx0PSJyZXN1bHQyIiB4bGluazpocmVmPSIiLz4mI3hhOyAgICAgIDxmZUJsZW5kIGlkPSJmZUJsZW5kMzI2Ny01LTUtNi03LTEiIG1vZGU9Im11bHRpcGx5IiBpbjI9InJlc3VsdDEiIHJlc3VsdD0icmVzdWx0NCIvPiYjeGE7ICAgICAgPGZlTWVyZ2UgaWQ9ImZlTWVyZ2UzMjczLTQtNS02LTQtNyIgcmVzdWx0PSJyZXN1bHQzIj4mI3hhOyAgICAgICAgPGZlTWVyZ2VOb2RlIGlkPSJmZU1lcmdlTm9kZTMyNjktOC00LTEtNi0wIiBpbj0icmVzdWx0MSIvPiYjeGE7ICAgICAgICA8ZmVNZXJnZU5vZGUgaWQ9ImZlTWVyZ2VOb2RlMzI3MS0yLTItNS03LTciIGluPSJTb3VyY2VHcmFwaGljIi8+JiN4YTsgICAgICA8L2ZlTWVyZ2U+JiN4YTsgICAgPC9maWx0ZXI+JiN4YTsgICAgPGZpbHRlciBpZD0iZmlsdGVyMzI3NS00LTMtOS0yLTciIHN0eWxlPSJjb2xvci1pbnRlcnBvbGF0aW9uLWZpbHRlcnM6c1JHQiIgaW5rc2NhcGU6bWVudS10b29sdGlwPSJBZGRzIGEgY29sb3JpemFibGUgb3BhcXVlIGJhY2tncm91bmQiIGlua3NjYXBlOm1lbnU9IkZpbGwgYW5kIFRyYW5zcGFyZW5jeSIgaW5rc2NhcGU6bGFiZWw9IkZpbGwgQmFja2dyb3VuZCIgeD0iMCIgeT0iMCIgd2lkdGg9IjEiIGhlaWdodD0iMSI+JiN4YTsgICAgICA8ZmVGbG9vZCBpZD0iZmVGbG9vZDMyNjMtMi0wLTItMC0wIiBmbG9vZC1vcGFjaXR5PSIxIiBmbG9vZC1jb2xvcj0icmdiKDI1NSwyNTUsMjU1KSIgcmVzdWx0PSJyZXN1bHQxIi8+JiN4YTsgICAgICA8ZmVJbWFnZSBpZD0iZmVJbWFnZTMyNjUtMS0wLTQtMi03IiByZXN1bHQ9InJlc3VsdDIiIHhsaW5rOmhyZWY9IiIvPiYjeGE7ICAgICAgPGZlQmxlbmQgaWQ9ImZlQmxlbmQzMjY3LTUtNS02LTctMCIgbW9kZT0ibXVsdGlwbHkiIGluMj0icmVzdWx0MSIgcmVzdWx0PSJyZXN1bHQ0Ii8+JiN4YTsgICAgICA8ZmVNZXJnZSBpZD0iZmVNZXJnZTMyNzMtNC01LTYtNC02IiByZXN1bHQ9InJlc3VsdDMiPiYjeGE7ICAgICAgICA8ZmVNZXJnZU5vZGUgaWQ9ImZlTWVyZ2VOb2RlMzI2OS04LTQtMS02LTQiIGluPSJyZXN1bHQxIi8+JiN4YTsgICAgICAgIDxmZU1lcmdlTm9kZSBpZD0iZmVNZXJnZU5vZGUzMjcxLTItMi01LTctMyIgaW49IlNvdXJjZUdyYXBoaWMiLz4mI3hhOyAgICAgIDwvZmVNZXJnZT4mI3hhOyAgICA8L2ZpbHRlcj4mI3hhOyAgICA8ZmlsdGVyIGlua3NjYXBlOmxhYmVsPSJGaWxsIEJhY2tncm91bmQiIGlua3NjYXBlOm1lbnU9IkZpbGwgYW5kIFRyYW5zcGFyZW5jeSIgaW5rc2NhcGU6bWVudS10b29sdGlwPSJBZGRzIGEgY29sb3JpemFibGUgb3BhcXVlIGJhY2tncm91bmQiIHN0eWxlPSJjb2xvci1pbnRlcnBvbGF0aW9uLWZpbHRlcnM6c1JHQiIgaWQ9ImZpbHRlcjMyNzUtNC0zLTktMi03LTUiIHg9IjAiIHk9IjAiIHdpZHRoPSIxIiBoZWlnaHQ9IjEiPiYjeGE7ICAgICAgPGZlRmxvb2QgcmVzdWx0PSJyZXN1bHQxIiBmbG9vZC1jb2xvcj0icmdiKDI1NSwyNTUsMjU1KSIgZmxvb2Qtb3BhY2l0eT0iMSIgaWQ9ImZlRmxvb2QzMjYzLTItMC0yLTAtMC04Ii8+JiN4YTsgICAgICA8ZmVJbWFnZSB4bGluazpocmVmPSIiIHJlc3VsdD0icmVzdWx0MiIgaWQ9ImZlSW1hZ2UzMjY1LTEtMC00LTItNy0zIi8+JiN4YTsgICAgICA8ZmVCbGVuZCByZXN1bHQ9InJlc3VsdDQiIGluMj0icmVzdWx0MSIgbW9kZT0ibXVsdGlwbHkiIGlkPSJmZUJsZW5kMzI2Ny01LTUtNi03LTAtMCIvPiYjeGE7ICAgICAgPGZlTWVyZ2UgcmVzdWx0PSJyZXN1bHQzIiBpZD0iZmVNZXJnZTMyNzMtNC01LTYtNC02LTciPiYjeGE7ICAgICAgICA8ZmVNZXJnZU5vZGUgaW49InJlc3VsdDEiIGlkPSJmZU1lcmdlTm9kZTMyNjktOC00LTEtNi00LTAiLz4mI3hhOyAgICAgICAgPGZlTWVyZ2VOb2RlIGluPSJTb3VyY2VHcmFwaGljIiBpZD0iZmVNZXJnZU5vZGUzMjcxLTItMi01LTctMy04Ii8+JiN4YTsgICAgICA8L2ZlTWVyZ2U+JiN4YTsgICAgPC9maWx0ZXI+JiN4YTsgICAgPGZpbHRlciBpZD0iZmlsdGVyMzI3NS00LTMtOS0yLTctNS02IiBzdHlsZT0iY29sb3ItaW50ZXJwb2xhdGlvbi1maWx0ZXJzOnNSR0IiIGlua3NjYXBlOm1lbnUtdG9vbHRpcD0iQWRkcyBhIGNvbG9yaXphYmxlIG9wYXF1ZSBiYWNrZ3JvdW5kIiBpbmtzY2FwZTptZW51PSJGaWxsIGFuZCBUcmFuc3BhcmVuY3kiIGlua3NjYXBlOmxhYmVsPSJGaWxsIEJhY2tncm91bmQiIHg9IjAiIHk9IjAiIHdpZHRoPSIxIiBoZWlnaHQ9IjEiPiYjeGE7ICAgICAgPGZlRmxvb2QgaWQ9ImZlRmxvb2QzMjYzLTItMC0yLTAtMC04LTIiIGZsb29kLW9wYWNpdHk9IjEiIGZsb29kLWNvbG9yPSJyZ2IoMjU1LDI1NSwyNTUpIiByZXN1bHQ9InJlc3VsdDEiLz4mI3hhOyAgICAgIDxmZUltYWdlIGlkPSJmZUltYWdlMzI2NS0xLTAtNC0yLTctMy0wIiByZXN1bHQ9InJlc3VsdDIiIHhsaW5rOmhyZWY9IiIvPiYjeGE7ICAgICAgPGZlQmxlbmQgaWQ9ImZlQmxlbmQzMjY3LTUtNS02LTctMC0wLTciIG1vZGU9Im11bHRpcGx5IiBpbjI9InJlc3VsdDEiIHJlc3VsdD0icmVzdWx0NCIvPiYjeGE7ICAgICAgPGZlTWVyZ2UgaWQ9ImZlTWVyZ2UzMjczLTQtNS02LTQtNi03LTQiIHJlc3VsdD0icmVzdWx0MyI+JiN4YTsgICAgICAgIDxmZU1lcmdlTm9kZSBpZD0iZmVNZXJnZU5vZGUzMjY5LTgtNC0xLTYtNC0wLTUiIGluPSJyZXN1bHQxIi8+JiN4YTsgICAgICAgIDxmZU1lcmdlTm9kZSBpZD0iZmVNZXJnZU5vZGUzMjcxLTItMi01LTctMy04LTgiIGluPSJTb3VyY2VHcmFwaGljIi8+JiN4YTsgICAgICA8L2ZlTWVyZ2U+JiN4YTsgICAgPC9maWx0ZXI+JiN4YTsgICAgPG1hcmtlciBpbmtzY2FwZTpzdG9ja2lkPSJBcnJvdzFMZW5kIiBvcmllbnQ9ImF1dG8iIHJlZlk9IjAiIHJlZlg9IjAiIGlkPSJBcnJvdzFMZW5kLTgtOTYtOS01IiBzdHlsZT0ib3ZlcmZsb3c6dmlzaWJsZSIgaW5rc2NhcGU6aXNzdG9jaz0idHJ1ZSI+JiN4YTsgICAgICA8cGF0aCBpZD0icGF0aDEwNzAtNC0xLTYtOSIgZD0iTSAwLDAgNSwtNSAtMTIuNSwwIDUsNSBaIiBzdHlsZT0iZmlsbDojMDA2ZmZmO2ZpbGwtb3BhY2l0eToxO2ZpbGwtcnVsZTpldmVub2RkO3N0cm9rZTojMDA2ZmZmO3N0cm9rZS13aWR0aDoxLjAwMDAwMDAzcHQ7c3Ryb2tlLW9wYWNpdHk6MSIgdHJhbnNmb3JtPSJtYXRyaXgoLTAuOCwwLDAsLTAuOCwtMTAsMCkiIGlua3NjYXBlOmNvbm5lY3Rvci1jdXJ2YXR1cmU9IjAiLz4mI3hhOyAgICA8L21hcmtlcj4mI3hhOyAgICA8cmVjdCB4PSIxMjMuMTk3NjciIHk9IjEyOS4xODUyIiB3aWR0aD0iNTguMDYwNzYiIGhlaWdodD0iMjIuNDk4NTQ1IiBpZD0icmVjdDY0OS0xLTMiLz4mI3hhOyAgICA8cmVjdCB4PSIxMjMuMTk3NjciIHk9IjEyOS4xODUyIiB3aWR0aD0iNTguMDYwNzYiIGhlaWdodD0iMjIuNDk4NTQ1IiBpZD0icmVjdDM3MTAiLz4mI3hhOyAgICA8cmVjdCBpZD0icmVjdDY0OS0xLTMtOSIgaGVpZ2h0PSIyMi40OTg1NDUiIHdpZHRoPSI1OC4wNjA3NiIgeT0iMTI5LjE4NTIiIHg9IjEyMy4xOTc2NyIvPiYjeGE7ICAgIDxyZWN0IGlkPSJyZWN0NDUwNyIgaGVpZ2h0PSIyMi40OTg1NDUiIHdpZHRoPSI1OC4wNjA3NiIgeT0iMTI5LjE4NTIiIHg9IjEyMy4xOTc2NyIvPiYjeGE7ICAgIDxtYXJrZXIgaW5rc2NhcGU6aXNzdG9jaz0idHJ1ZSIgc3R5bGU9Im92ZXJmbG93OnZpc2libGUiIGlkPSJBcnJvdzFMZW5kLTgtOTYtOS01LTEiIHJlZlg9IjAiIHJlZlk9IjAiIG9yaWVudD0iYXV0byIgaW5rc2NhcGU6c3RvY2tpZD0iQXJyb3cxTGVuZCI+JiN4YTsgICAgICA8cGF0aCB0cmFuc2Zvcm09Im1hdHJpeCgtMC44LDAsMCwtMC44LC0xMCwwKSIgc3R5bGU9ImZpbGw6I2RhNmZmZjtmaWxsLW9wYWNpdHk6MTtmaWxsLXJ1bGU6ZXZlbm9kZDtzdHJva2U6I2RhNmZmZjtzdHJva2Utd2lkdGg6MS4wMDAwMDAwM3B0O3N0cm9rZS1vcGFjaXR5OjEiIGQ9Ik0gMCwwIDUsLTUgLTEyLjUsMCA1LDUgWiIgaWQ9InBhdGgxMDcwLTQtMS02LTktNyIgaW5rc2NhcGU6Y29ubmVjdG9yLWN1cnZhdHVyZT0iMCIvPiYjeGE7ICAgIDwvbWFya2VyPiYjeGE7ICAgIDxyZWN0IGlkPSJyZWN0NjQ5LTEtMy03IiBoZWlnaHQ9IjIyLjQ5ODU0NSIgd2lkdGg9IjU4LjA2MDc2IiB5PSIxMjkuMTg1MiIgeD0iMTIzLjE5NzY3Ii8+JiN4YTsgICAgPHJlY3QgaWQ9InJlY3QxNjg0IiBoZWlnaHQ9IjIyLjQ5ODU0NSIgd2lkdGg9IjU4LjA2MDc2IiB5PSIxMjkuMTg1MiIgeD0iMTIzLjE5NzY3Ii8+JiN4YTsgICAgPG1hcmtlciBpbmtzY2FwZTpzdG9ja2lkPSJBcnJvdzFMZW5kIiBvcmllbnQ9ImF1dG8iIHJlZlk9IjAiIHJlZlg9IjAiIGlkPSJBcnJvdzFMZW5kLTgtOTYtOS00IiBzdHlsZT0ib3ZlcmZsb3c6dmlzaWJsZSIgaW5rc2NhcGU6aXNzdG9jaz0idHJ1ZSI+JiN4YTsgICAgICA8cGF0aCBpZD0icGF0aDEwNzAtNC0xLTYtMiIgZD0iTSAwLDAgNSwtNSAtMTIuNSwwIDUsNSBaIiBzdHlsZT0iZmlsbDojMDAwMGZmO2ZpbGwtb3BhY2l0eToxO2ZpbGwtcnVsZTpldmVub2RkO3N0cm9rZTojMTQxZGVhO3N0cm9rZS13aWR0aDoxLjAwMDAwMDAzcHQ7c3Ryb2tlLW9wYWNpdHk6MSIgdHJhbnNmb3JtPSJtYXRyaXgoLTAuOCwwLDAsLTAuOCwtMTAsMCkiIGlua3NjYXBlOmNvbm5lY3Rvci1jdXJ2YXR1cmU9IjAiLz4mI3hhOyAgICA8L21hcmtlcj4mI3hhOyAgICA8cmVjdCB4PSIxMjMuMTk3NjciIHk9IjEyOS4xODUyIiB3aWR0aD0iNTguMDYwNzYiIGhlaWdodD0iMjIuNDk4NTQ1IiBpZD0icmVjdDY0OS0xLTgiLz4mI3hhOyAgICA8cmVjdCB4PSIxMjMuMTk3NjciIHk9IjEyOS4xODUyIiB3aWR0aD0iNTguMDYwNzYiIGhlaWdodD0iMjIuNDk4NTQ1IiBpZD0icmVjdDQyOCIvPiYjeGE7ICAgIDxyZWN0IGlkPSJyZWN0NjQ5LTEtMy04IiBoZWlnaHQ9IjIyLjQ5ODU0NSIgd2lkdGg9IjU4LjA2MDc2IiB5PSIxMjkuMTg1MiIgeD0iMTIzLjE5NzY3Ii8+JiN4YTsgICAgPHJlY3QgaWQ9InJlY3Q0ODAiIGhlaWdodD0iMjIuNDk4NTQ1IiB3aWR0aD0iNTguMDYwNzYiIHk9IjEyOS4xODUyIiB4PSIxMjMuMTk3NjciLz4mI3hhOyAgICA8bWFya2VyIGlua3NjYXBlOmlzc3RvY2s9InRydWUiIHN0eWxlPSJvdmVyZmxvdzp2aXNpYmxlIiBpZD0iQXJyb3cxTGVuZC04LTk2LTk0IiByZWZYPSIwIiByZWZZPSIwIiBvcmllbnQ9ImF1dG8iIGlua3NjYXBlOnN0b2NraWQ9IkFycm93MUxlbmQiPiYjeGE7ICAgICAgPHBhdGggdHJhbnNmb3JtPSJtYXRyaXgoLTAuOCwwLDAsLTAuOCwtMTAsMCkiIHN0eWxlPSJmaWxsOiNkNGFhMDA7ZmlsbC1vcGFjaXR5OjE7ZmlsbC1ydWxlOmV2ZW5vZGQ7c3Ryb2tlOiNkNGFhMDA7c3Ryb2tlLXdpZHRoOjEuMDAwMDAwMDNwdDtzdHJva2Utb3BhY2l0eToxIiBkPSJNIDAsMCA1LC01IC0xMi41LDAgNSw1IFoiIGlkPSJwYXRoMTA3MC00LTEtMyIgaW5rc2NhcGU6Y29ubmVjdG9yLWN1cnZhdHVyZT0iMCIvPiYjeGE7ICAgIDwvbWFya2VyPiYjeGE7ICAgIDxyZWN0IGlkPSJyZWN0NjQ5LTQiIGhlaWdodD0iMjIuNDk4NTQ1IiB3aWR0aD0iNTguMDYwNzYiIHk9IjEyOS4xODUyIiB4PSIxMjMuMTk3NjciLz4mI3hhOyAgICA8cmVjdCBpZD0icmVjdDUyNCIgaGVpZ2h0PSIyMi40OTg1NDUiIHdpZHRoPSI1OC4wNjA3NiIgeT0iMTI5LjE4NTIiIHg9IjEyMy4xOTc2NyIvPiYjeGE7ICAgIDxyZWN0IHg9IjEyMy4xOTc2NyIgeT0iMTI5LjE4NTIiIHdpZHRoPSI1OC4wNjA3NiIgaGVpZ2h0PSIyMi40OTg1NDUiIGlkPSJyZWN0NjQ5LTEtMy05LTMiLz4mI3hhOyAgICA8cmVjdCB4PSIxMjMuMTk3NjciIHk9IjEyOS4xODUyIiB3aWR0aD0iNTguMDYwNzYiIGhlaWdodD0iMjIuNDk4NTQ1IiBpZD0icmVjdDU3NiIvPiYjeGE7ICAgIDxtYXJrZXIgaW5rc2NhcGU6c3RvY2tpZD0iQXJyb3cxTGVuZCIgb3JpZW50PSJhdXRvIiByZWZZPSIwIiByZWZYPSIwIiBpZD0iQXJyb3cxTGVuZC04LTk2LTktNS05IiBzdHlsZT0ib3ZlcmZsb3c6dmlzaWJsZSIgaW5rc2NhcGU6aXNzdG9jaz0idHJ1ZSI+JiN4YTsgICAgICA8cGF0aCBpbmtzY2FwZTpjb25uZWN0b3ItY3VydmF0dXJlPSIwIiBpZD0icGF0aDEwNzAtNC0xLTYtOS0zIiBkPSJNIDAsMCA1LC01IC0xMi41LDAgNSw1IFoiIHN0eWxlPSJmaWxsOiMwMDZjMDI7ZmlsbC1vcGFjaXR5OjE7ZmlsbC1ydWxlOmV2ZW5vZGQ7c3Ryb2tlOiMwMDZjMDI7c3Ryb2tlLXdpZHRoOjEuMDAwMDAwMDNwdDtzdHJva2Utb3BhY2l0eToxIiB0cmFuc2Zvcm09Im1hdHJpeCgtMC44LDAsMCwtMC44LC0xMCwwKSIvPiYjeGE7ICAgIDwvbWFya2VyPiYjeGE7ICAgIDxtYXJrZXIgaW5rc2NhcGU6c3RvY2tpZD0iQXJyb3cxTGVuZCIgb3JpZW50PSJhdXRvIiByZWZZPSIwIiByZWZYPSIwIiBpZD0iQXJyb3cxTGVuZC04LTk2LTktNS05MiIgc3R5bGU9Im92ZXJmbG93OnZpc2libGUiIGlua3NjYXBlOmlzc3RvY2s9InRydWUiPiYjeGE7ICAgICAgPHBhdGggaW5rc2NhcGU6Y29ubmVjdG9yLWN1cnZhdHVyZT0iMCIgaWQ9InBhdGgxMDcwLTQtMS02LTktMCIgZD0iTSAwLDAgNSwtNSAtMTIuNSwwIDUsNSBaIiBzdHlsZT0iZmlsbDojMDA2YzAyO2ZpbGwtb3BhY2l0eToxO2ZpbGwtcnVsZTpldmVub2RkO3N0cm9rZTojMDA2YzAyO3N0cm9rZS13aWR0aDoxLjAwMDAwMDAzcHQ7c3Ryb2tlLW9wYWNpdHk6MSIgdHJhbnNmb3JtPSJtYXRyaXgoLTAuOCwwLDAsLTAuOCwtMTAsMCkiLz4mI3hhOyAgICA8L21hcmtlcj4mI3hhOyAgICA8bWFya2VyIGlua3NjYXBlOnN0b2NraWQ9IkFycm93MUxlbmQiIG9yaWVudD0iYXV0byIgcmVmWT0iMCIgcmVmWD0iMCIgaWQ9IkFycm93MUxlbmQtOC05Ni05LTUtOCIgc3R5bGU9Im92ZXJmbG93OnZpc2libGUiIGlua3NjYXBlOmlzc3RvY2s9InRydWUiPiYjeGE7ICAgICAgPHBhdGggaW5rc2NhcGU6Y29ubmVjdG9yLWN1cnZhdHVyZT0iMCIgaWQ9InBhdGgxMDcwLTQtMS02LTktOSIgZD0iTSAwLDAgNSwtNSAtMTIuNSwwIDUsNSBaIiBzdHlsZT0iZmlsbDojMDA2YzAyO2ZpbGwtb3BhY2l0eToxO2ZpbGwtcnVsZTpldmVub2RkO3N0cm9rZTojMDA2YzAyO3N0cm9rZS13aWR0aDoxLjAwMDAwMDAzcHQ7c3Ryb2tlLW9wYWNpdHk6MSIgdHJhbnNmb3JtPSJtYXRyaXgoLTAuOCwwLDAsLTAuOCwtMTAsMCkiLz4mI3hhOyAgICA8L21hcmtlcj4mI3hhOyAgICA8bWFya2VyIGlua3NjYXBlOnN0b2NraWQ9IkFycm93MUxlbmQiIG9yaWVudD0iYXV0byIgcmVmWT0iMCIgcmVmWD0iMCIgaWQ9IkFycm93MUxlbmQtOC05Ni05LTUtOTItMyIgc3R5bGU9Im92ZXJmbG93OnZpc2libGUiIGlua3NjYXBlOmlzc3RvY2s9InRydWUiPiYjeGE7ICAgICAgPHBhdGggaW5rc2NhcGU6Y29ubmVjdG9yLWN1cnZhdHVyZT0iMCIgaWQ9InBhdGgxMDcwLTQtMS02LTktMC02IiBkPSJNIDAsMCA1LC01IC0xMi41LDAgNSw1IFoiIHN0eWxlPSJmaWxsOiMwMDZmZmY7ZmlsbC1vcGFjaXR5OjE7ZmlsbC1ydWxlOmV2ZW5vZGQ7c3Ryb2tlOiMwMDZmZmY7c3Ryb2tlLXdpZHRoOjEuMDAwMDAwMDNwdDtzdHJva2Utb3BhY2l0eToxIiB0cmFuc2Zvcm09Im1hdHJpeCgtMC44LDAsMCwtMC44LC0xMCwwKSIvPiYjeGE7ICAgIDwvbWFya2VyPiYjeGE7ICAgIDxtYXJrZXIgaW5rc2NhcGU6c3RvY2tpZD0iQXJyb3cxTGVuZCIgb3JpZW50PSJhdXRvIiByZWZZPSIwIiByZWZYPSIwIiBpZD0iQXJyb3cxTGVuZC04LTk2LTktNS04LTEiIHN0eWxlPSJvdmVyZmxvdzp2aXNpYmxlIiBpbmtzY2FwZTppc3N0b2NrPSJ0cnVlIj4mI3hhOyAgICAgIDxwYXRoIGlua3NjYXBlOmNvbm5lY3Rvci1jdXJ2YXR1cmU9IjAiIGlkPSJwYXRoMTA3MC00LTEtNi05LTktMiIgZD0iTSAwLDAgNSwtNSAtMTIuNSwwIDUsNSBaIiBzdHlsZT0iZmlsbDojMDA2ZmZmO2ZpbGwtb3BhY2l0eToxO2ZpbGwtcnVsZTpldmVub2RkO3N0cm9rZTojMDA2ZmZmO3N0cm9rZS13aWR0aDoxLjAwMDAwMDAzcHQ7c3Ryb2tlLW9wYWNpdHk6MSIgdHJhbnNmb3JtPSJtYXRyaXgoLTAuOCwwLDAsLTAuOCwtMTAsMCkiLz4mI3hhOyAgICA8L21hcmtlcj4mI3hhOyAgICA8bWFya2VyIGlua3NjYXBlOnN0b2NraWQ9IkFycm93MUxlbmQiIG9yaWVudD0iYXV0byIgcmVmWT0iMCIgcmVmWD0iMCIgaWQ9IkFycm93MUxlbmQtOC05Ni05LTUtOTItMy01IiBzdHlsZT0ib3ZlcmZsb3c6dmlzaWJsZSIgaW5rc2NhcGU6aXNzdG9jaz0idHJ1ZSI+JiN4YTsgICAgICA8cGF0aCBpbmtzY2FwZTpjb25uZWN0b3ItY3VydmF0dXJlPSIwIiBpZD0icGF0aDEwNzAtNC0xLTYtOS0wLTYtNCIgZD0iTSAwLDAgNSwtNSAtMTIuNSwwIDUsNSBaIiBzdHlsZT0iZmlsbDojZGE2ZmZmO2ZpbGwtb3BhY2l0eToxO2ZpbGwtcnVsZTpldmVub2RkO3N0cm9rZTojZGE2ZmZmO3N0cm9rZS13aWR0aDoxLjAwMDAwMDAzcHQ7c3Ryb2tlLW9wYWNpdHk6MSIgdHJhbnNmb3JtPSJtYXRyaXgoLTAuOCwwLDAsLTAuOCwtMTAsMCkiLz4mI3hhOyAgICA8L21hcmtlcj4mI3hhOyAgICA8bWFya2VyIGlua3NjYXBlOnN0b2NraWQ9IkFycm93MUxlbmQiIG9yaWVudD0iYXV0byIgcmVmWT0iMCIgcmVmWD0iMCIgaWQ9IkFycm93MUxlbmQtOC05Ni05LTUtOC0xLTciIHN0eWxlPSJvdmVyZmxvdzp2aXNpYmxlIiBpbmtzY2FwZTppc3N0b2NrPSJ0cnVlIj4mI3hhOyAgICAgIDxwYXRoIGlua3NjYXBlOmNvbm5lY3Rvci1jdXJ2YXR1cmU9IjAiIGlkPSJwYXRoMTA3MC00LTEtNi05LTktMi02IiBkPSJNIDAsMCA1LC01IC0xMi41LDAgNSw1IFoiIHN0eWxlPSJmaWxsOiMwMDZjMDI7ZmlsbC1vcGFjaXR5OjE7ZmlsbC1ydWxlOmV2ZW5vZGQ7c3Ryb2tlOiMwMDZjMDI7c3Ryb2tlLXdpZHRoOjEuMDAwMDAwMDNwdDtzdHJva2Utb3BhY2l0eToxIiB0cmFuc2Zvcm09Im1hdHJpeCgtMC44LDAsMCwtMC44LC0xMCwwKSIvPiYjeGE7ICAgIDwvbWFya2VyPiYjeGE7ICAgIDxtYXJrZXIgaW5rc2NhcGU6c3RvY2tpZD0iQXJyb3cxTHN0YXJ0IiBvcmllbnQ9ImF1dG8iIHJlZlk9IjAiIHJlZlg9IjAiIGlkPSJtYXJrZXI4Njg5LTQiIHN0eWxlPSJvdmVyZmxvdzp2aXNpYmxlIiBpbmtzY2FwZTppc3N0b2NrPSJ0cnVlIj4mI3hhOyAgICAgIDxwYXRoIGlua3NjYXBlOmNvbm5lY3Rvci1jdXJ2YXR1cmU9IjAiIGlkPSJwYXRoODY4Ny0zIiBkPSJNIDAsMCA1LC01IC0xMi41LDAgNSw1IFoiIHN0eWxlPSJmaWxsOiNkYTZmZmY7ZmlsbC1vcGFjaXR5OjE7ZmlsbC1ydWxlOmV2ZW5vZGQ7c3Ryb2tlOiNkYTZmZmY7c3Ryb2tlLXdpZHRoOjEuMDAwMDAwMDNwdDtzdHJva2Utb3BhY2l0eToxIiB0cmFuc2Zvcm09Im1hdHJpeCgwLjgsMCwwLDAuOCwxMCwwKSIvPiYjeGE7ICAgIDwvbWFya2VyPiYjeGE7ICAgIDxtYXJrZXIgaW5rc2NhcGU6c3RvY2tpZD0iQXJyb3cxTGVuZCIgb3JpZW50PSJhdXRvIiByZWZZPSIwIiByZWZYPSIwIiBpZD0iQXJyb3cxTGVuZC04LTk2LTktNS05Mi0zLTUtMSIgc3R5bGU9Im92ZXJmbG93OnZpc2libGUiIGlua3NjYXBlOmlzc3RvY2s9InRydWUiPiYjeGE7ICAgICAgPHBhdGggaW5rc2NhcGU6Y29ubmVjdG9yLWN1cnZhdHVyZT0iMCIgaWQ9InBhdGgxMDcwLTQtMS02LTktMC02LTQtNCIgZD0iTSAwLDAgNSwtNSAtMTIuNSwwIDUsNSBaIiBzdHlsZT0iZmlsbDojZGE2ZmZmO2ZpbGwtb3BhY2l0eToxO2ZpbGwtcnVsZTpldmVub2RkO3N0cm9rZTojZGE2ZmZmO3N0cm9rZS13aWR0aDoxLjAwMDAwMDAzcHQ7c3Ryb2tlLW9wYWNpdHk6MSIgdHJhbnNmb3JtPSJtYXRyaXgoLTAuOCwwLDAsLTAuOCwtMTAsMCkiLz4mI3hhOyAgICA8L21hcmtlcj4mI3hhOyAgPC9kZWZzPiYjeGE7ICA8c29kaXBvZGk6bmFtZWR2aWV3IGlkPSJiYXNlIiBwYWdlY29sb3I9IiNmZmZmZmYiIGJvcmRlcmNvbG9yPSIjNjY2NjY2IiBib3JkZXJvcGFjaXR5PSIxLjAiIGlua3NjYXBlOnBhZ2VvcGFjaXR5PSIwLjAiIGlua3NjYXBlOnBhZ2VzaGFkb3c9IjIiIGlua3NjYXBlOnpvb209IjEuNjg3ODc3OSIgaW5rc2NhcGU6Y3g9IjY0OC4zNTg4OSIgaW5rc2NhcGU6Y3k9IjM0Ny4xOTg4NiIgaW5rc2NhcGU6ZG9jdW1lbnQtdW5pdHM9Im1tIiBpbmtzY2FwZTpjdXJyZW50LWxheWVyPSJsYXllcjEiIGlua3NjYXBlOmRvY3VtZW50LXJvdGF0aW9uPSIwIiBzaG93Z3JpZD0iZmFsc2UiIHNob3dndWlkZXM9InRydWUiIGlua3NjYXBlOmd1aWRlLWJib3g9InRydWUiIGlua3NjYXBlOndpbmRvdy13aWR0aD0iMzg0MCIgaW5rc2NhcGU6d2luZG93LWhlaWdodD0iMTk1OSIgaW5rc2NhcGU6d2luZG93LXg9IjAiIGlua3NjYXBlOndpbmRvdy15PSIyNSIgaW5rc2NhcGU6d2luZG93LW1heGltaXplZD0iMSIgaW5rc2NhcGU6cGFnZWNoZWNrZXJib2FyZD0iMCIvPiYjeGE7ICAmI3hhOyAgPGcgaW5rc2NhcGU6bGFiZWw9IkViZW5lIDIiIGlkPSJsYXllcjIiIGlua3NjYXBlOmdyb3VwbW9kZT0ibGF5ZXIiIHRyYW5zZm9ybT0idHJhbnNsYXRlKDAsLTI4KSIvPiYjeGE7ICA8ZyBpbmtzY2FwZTpsYWJlbD0iRWJlbmUgMSIgaW5rc2NhcGU6Z3JvdXBtb2RlPSJsYXllciIgaWQ9ImxheWVyMSIgdHJhbnNmb3JtPSJ0cmFuc2xhdGUoMCwtMjgpIj4mI3hhOyAgICA8cmVjdCByeT0iMS4wMjg5ODg0IiByeD0iMS4wMjg5ODg0IiB5PSIxNDIuMjU1MjIiIHg9IjIwLjQ4NDAwNSIgaGVpZ2h0PSIyLjQzMzg2NDgiIHdpZHRoPSIyLjYwNzQ4MTciIGlkPSJyZWN0NzI5NCIgc3R5bGU9ImZpbGw6IzAwNmMwMjtmaWxsLW9wYWNpdHk6MTtzdHJva2U6IzAwNmMwMjtzdHJva2Utd2lkdGg6MC40OTk5OTg5OTtzdHJva2UtbGluZWNhcDpzcXVhcmU7c3Ryb2tlLW1pdGVybGltaXQ6NDtzdHJva2UtZGFzaGFycmF5Om5vbmU7c3Ryb2tlLW9wYWNpdHk6MTtwYWludC1vcmRlcjpzdHJva2UgZmlsbCBtYXJrZXJzIi8+JiN4YTsgICAgPHJlY3Qgc3R5bGU9ImZpbGw6I2RhNmZmZjtmaWxsLW9wYWNpdHk6MTtzdHJva2U6I2RhNmZmZjtzdHJva2Utd2lkdGg6MC41O3N0cm9rZS1saW5lY2FwOnNxdWFyZTtzdHJva2UtbWl0ZXJsaW1pdDo0O3N0cm9rZS1kYXNoYXJyYXk6bm9uZTtzdHJva2Utb3BhY2l0eToxO3BhaW50LW9yZGVyOnN0cm9rZSBmaWxsIG1hcmtlcnMiIGlkPSJyZWN0NzI5NC03IiB3aWR0aD0iMi40Njk4ODA2IiBoZWlnaHQ9IjIuMzAzNzM4NCIgeD0iMjUwLjcxNDg0IiB5PSIxMzkuMzc3MDEiIHJ4PSIxLjAyODk4ODQiIHJ5PSIxLjAyODk4ODQiLz4mI3hhOyAgICA8cmVjdCByeT0iMS4xMDMyNTE4IiByeD0iMS4xMDMyNTE4IiB5PSIxNDIuMjM5NzMiIHg9IjI1MC42NTk0MiIgaGVpZ2h0PSIyLjQ3MDAwMjIiIHdpZHRoPSIyLjY0ODEzNTIiIGlkPSJyZWN0NzI5NC03LTYiIHN0eWxlPSJmaWxsOiMwMDZmZmY7ZmlsbC1vcGFjaXR5OjE7c3Ryb2tlOm5vbmU7c3Ryb2tlLXdpZHRoOjAuNTM2MDg0NTk7c3Ryb2tlLWxpbmVjYXA6c3F1YXJlO3N0cm9rZS1taXRlcmxpbWl0OjQ7c3Ryb2tlLWRhc2hhcnJheTpub25lO3N0cm9rZS1vcGFjaXR5OjAuMzkyMTU2ODY7cGFpbnQtb3JkZXI6c3Ryb2tlIGZpbGwgbWFya2VycyIvPiYjeGE7ICAgIDxyZWN0IHJ5PSIxLjAyODk4ODQiIHJ4PSIxLjAyODk4ODQiIHk9IjUzLjMyNDA1MSIgeD0iMjUwLjY3NTY5IiBoZWlnaHQ9IjIuMzAzNzM4NCIgd2lkdGg9IjIuNDY5ODgwNiIgaWQ9InJlY3Q3Mjk0LTctMyIgc3R5bGU9ImZpbGw6I2RhNmZmZjtmaWxsLW9wYWNpdHk6MTtzdHJva2U6I2RhNmZmZjtzdHJva2Utd2lkdGg6MC40OTk5OTg5OTtzdHJva2UtbGluZWNhcDpzcXVhcmU7c3Ryb2tlLW1pdGVybGltaXQ6NDtzdHJva2UtZGFzaGFycmF5Om5vbmU7c3Ryb2tlLW9wYWNpdHk6MTtwYWludC1vcmRlcjpzdHJva2UgZmlsbCBtYXJrZXJzIi8+JiN4YTsgICAgPHJlY3Qgc3R5bGU9ImZpbGw6IzAwNmZmZjtmaWxsLW9wYWNpdHk6MTtzdHJva2U6IzAwNmZmZjtzdHJva2Utd2lkdGg6MC40OTk5OTg5OTtzdHJva2UtbGluZWNhcDpzcXVhcmU7c3Ryb2tlLW1pdGVybGltaXQ6NDtzdHJva2UtZGFzaGFycmF5Om5vbmU7c3Ryb2tlLW9wYWNpdHk6MTtwYWludC1vcmRlcjpzdHJva2UgZmlsbCBtYXJrZXJzIiBpZD0icmVjdDcyOTQtNy02LTQiIHdpZHRoPSIyLjQ2OTg4MDYiIGhlaWdodD0iMi4zMDM3Mzg0IiB4PSIyNTAuNjc1NjkiIHk9IjU2LjM1MzAyNyIgcng9IjEuMDI4OTg4NCIgcnk9IjEuMDI4OTg4NCIvPiYjeGE7ICAgIDxyZWN0IHJ5PSIxLjEzNDAxMjciIHJ4PSIxLjE1OTYwMTIiIHk9IjU1Ljg0NTYyMyIgeD0iMjAuMzgyODkzIiBoZWlnaHQ9IjIuNTM4ODcwOCIgd2lkdGg9IjIuNzgzMzkwNSIgaWQ9InJlY3Q3Mjk0LTctNi00LTUiIHN0eWxlPSJmaWxsOiMxZTFlMWU7ZmlsbC1vcGFjaXR5OjAuMzkyMTU2ODY7c3Ryb2tlOm5vbmU7c3Ryb2tlLXdpZHRoOjAuNTU3MjEzOTtzdHJva2UtbGluZWNhcDpzcXVhcmU7c3Ryb2tlLW1pdGVybGltaXQ6NDtzdHJva2UtZGFzaGFycmF5Om5vbmU7c3Ryb2tlLW9wYWNpdHk6MTtwYWludC1vcmRlcjpzdHJva2UgZmlsbCBtYXJrZXJzIi8+JiN4YTsgICAgPHRleHQgeG1sOnNwYWNlPSJwcmVzZXJ2ZSIgc3R5bGU9ImZvbnQtc3R5bGU6bm9ybWFsO2ZvbnQtd2VpZ2h0Om5vcm1hbDtmb250LXNpemU6NC45MzMwNDAxNHB4O2xpbmUtaGVpZ2h0OjMuMDgzMTQ5OTFweDtmb250LWZhbWlseTpzYW5zLXNlcmlmO2xldHRlci1zcGFjaW5nOjBweDt3b3JkLXNwYWNpbmc6MHB4O2ZpbGw6IzAwMDAwMDtmaWxsLW9wYWNpdHk6MTtzdHJva2U6bm9uZTtzdHJva2Utd2lkdGg6MC4yNjQ1ODI5OSIgeD0iNy4xMjgwNDg5IiB5PSI1My4yNzExMzciIGlkPSJ0ZXh0NzMzNS0wLTktNSIgdHJhbnNmb3JtPSJzY2FsZSgwLjk5OTcxMzc5LDEuMDAwMjg2MykiPjx0c3BhbiBzb2RpcG9kaTpyb2xlPSJsaW5lIiBpZD0idHNwYW43MzMzLTQtMy0yIiB4PSI3LjEyODA0ODkiIHk9IjUzLjI3MTEzNyIgc3R5bGU9ImZvbnQtc2l6ZTo0LjkzMzA0MDE0cHg7c3Ryb2tlLXdpZHRoOjAuMjY0NTgyOTkiPlM8dHNwYW4gc3R5bGU9ImZvbnQtc2l6ZTozLjIwNjQ4MDAzcHg7YmFzZWxpbmUtc2hpZnQ6c3ViO3N0cm9rZS13aWR0aDowLjI2NDU4Mjk5IiBpZD0idHNwYW43MzM3LTMtODQtNSI+QywxPC90c3Bhbj48L3RzcGFuPjwvdGV4dD4mI3hhOyAgICA8dGV4dCBpZD0idGV4dDczMzUtMC0wLTctMCIgeT0iNTkuNDM3NDU4IiB4PSI3LjA0MjQ0MzMiIHN0eWxlPSJmb250LXN0eWxlOm5vcm1hbDtmb250LXdlaWdodDpub3JtYWw7Zm9udC1zaXplOjQuOTMzMDQwMTRweDtsaW5lLWhlaWdodDozLjA4MzE0OTkxcHg7Zm9udC1mYW1pbHk6c2Fucy1zZXJpZjtsZXR0ZXItc3BhY2luZzowcHg7d29yZC1zcGFjaW5nOjBweDtmaWxsOiMwMDAwMDA7ZmlsbC1vcGFjaXR5OjE7c3Ryb2tlOm5vbmU7c3Ryb2tlLXdpZHRoOjAuMjY0NTgyOTkiIHhtbDpzcGFjZT0icHJlc2VydmUiIHRyYW5zZm9ybT0ic2NhbGUoMC45OTk3MTM3OSwxLjAwMDI4NjMpIj48dHNwYW4gc3R5bGU9ImZvbnQtc2l6ZTo0LjkzMzA0MDE0cHg7c3Ryb2tlLXdpZHRoOjAuMjY0NTgyOTkiIHk9IjU5LjQzNzQ1OCIgeD0iNy4wNDI0NDMzIiBpZD0idHNwYW43MzMzLTQtMi04LTgiIHNvZGlwb2RpOnJvbGU9ImxpbmUiPlM8dHNwYW4gaWQ9InRzcGFuNzMzNy0zLTgtMy05IiBzdHlsZT0iZm9udC1zaXplOjMuMjA2NDgwMDNweDtiYXNlbGluZS1zaGlmdDpzdWI7c3Ryb2tlLXdpZHRoOjAuMjY0NTgyOTkiPkQsMTwvdHNwYW4+PC90c3Bhbj48L3RleHQ+JiN4YTsgICAgPGVsbGlwc2UgY3k9IjEwNC43MzgyOCIgY3g9IjgzLjE4OTk1NyIgaWQ9InBhdGgyODA1IiBzdHlsZT0ib3BhY2l0eTowLjgwOTQ0Mzk5O2ZpbGw6bm9uZTtzdHJva2U6IzAwMDAwMDtzdHJva2Utd2lkdGg6MTtzdHJva2UtbGluZWNhcDpzcXVhcmU7c3Ryb2tlLW1pdGVybGltaXQ6NDtzdHJva2UtZGFzaGFycmF5Om5vbmU7c3Ryb2tlLW9wYWNpdHk6MTtwYWludC1vcmRlcjpzdHJva2UgZmlsbCBtYXJrZXJzIiByeD0iMTMuNzYwMTM5IiByeT0iMTMuNzY4MDE5Ii8+JiN4YTsgICAgPGVsbGlwc2Ugc3R5bGU9Im9wYWNpdHk6MC44MDk0NDM5OTtmaWxsOm5vbmU7c3Ryb2tlOiMwMDAwMDA7c3Ryb2tlLXdpZHRoOjE7c3Ryb2tlLWxpbmVjYXA6c3F1YXJlO3N0cm9rZS1taXRlcmxpbWl0OjQ7c3Ryb2tlLWRhc2hhcnJheTpub25lO3N0cm9rZS1vcGFjaXR5OjE7cGFpbnQtb3JkZXI6c3Ryb2tlIGZpbGwgbWFya2VycyIgaWQ9InBhdGgyODA1LTEiIGN4PSIxODUuMDU5NCIgY3k9IjEwNS4yODkiIHJ4PSIxMy43NjAxMzkiIHJ5PSIxMy43NjgwMTkiLz4mI3hhOyAgICA8cGF0aCBpbmtzY2FwZTpjb25uZWN0b3ItY3VydmF0dXJlPSIwIiBpZD0icGF0aDIxOTQtNyIgc3R5bGU9ImZpbGw6IzAwMDAwMDtzdHJva2Utd2lkdGg6MC4yNjQ1ODI5OSIgZD0ibSAyMy43NjU0OTksNTEuOTM1ODIyIGggLTQuMDE0MTgzIGEgMC4zODc4MTczOCwwLjM4ODAzOTQ2IDAgMCAwIC0wLjM4NzMzNSwwLjM4NzU2MSB2IDYuNTcxOTk1IGEgMC4zODc4MTczOCwwLjM4ODAzOTQ2IDAgMCAwIDAuMzg3MzM1LDAuMzg3NTYxIGggNC4wMTQxODMgYSAwLjM4NzgxNzM4LDAuMzg4MDM5NDYgMCAwIDAgMC4zODczMzYsLTAuMzg3NTYxIHYgLTYuNTcxOTk1IGEgMC4zODc4MTczOCwwLjM4ODAzOTQ2IDAgMCAwIC0wLjM4NzMzNiwtMC4zODc1NjEgeiBtIC0wLjI1MTE3NSw2LjcwODIzNyBoIC0zLjUxMTgzMiB2IC02LjA2OTM1NiBoIDMuNTExODMyIHogbSA1LjQyNzM2NCwtOS4yNjM3NTUgdiAxLjI3Nzc2MSBIIDI0LjQ3MjA5IHYgLTEuMjc3NzYxIGggLTYuMzg1MTQyIHYgMTIuNzc3NTkzIGggMS45MTU1NDQgdiAtMS4yNzc3NjEgaCAwLjYzODUyMiB2IDAuNjM4ODggaCAwLjYzODUxMSB2IC0wLjYzODg4IGggMC42Mzg1MTEgdiAwLjYzODg4IGggMC42Mzg1MjIgdiAtMC42Mzg4OCBoIDAuNjM5NjI5IGwgMC4wMDEyLDAuNjM4ODggaCAtMC4wMDIzIHYgMC42Mzg4ODEgaCAwLjAwMzUgdiAzLjAzZS00IGwgMC4xODIzNzMsLTMuMDNlLTQgaCAxLjA5MTI5MyB2IC0wLjYzODg4MSBoIC04Ljk3ZS00IHYgLTAuNjM4ODggaCAwLjYzOTQ2NiB2IDAuNjM4ODggaCAwLjYzODUxMSB2IC0wLjYzODg4IGggMC42Mzg1MjIgdiAwLjYzODg4IGggMC42Mzg1MjIgdiAtMC42Mzg4OCBoIDAuNjM4NTExIHYgMC42Mzg4OCBoIDAuNjM4NTExIHYgLTAuNjM4ODggaCAwLjYzODUxMSB2IDEuMjc3NzYxIGggMS45MTU0NzMgViA0OS4zODAzMDQgWiBtIDEuMjc3MDMzLDEyLjEzODcxMiBoIC0wLjYzODUyMiB2IC0xLjI3Nzc1OSBoIC01Ljc0NjYyIHYgLTYuMTZlLTQgbCAtMC4zMTkyNTUsNi4xNmUtNCBoIC00LjE1MDM0MyB2IDEuMjc3NzU5IGggLTAuNjM4NTEgViA1MC4wMTkxODUgaCA1LjEwODEwOCB2IDEuMjc3NzU3IGggMS4yNzQ3OTcgdiA1LjQzMDQ3OCBoIDAuNjQyOTg0IHYgLTUuNDMwNDc3IGggMC42MzI0NDEgdiA1LjQzMDQ3NyBoIDAuNjQyOTg0IHYgLTUuNDMwNDc3IGggMC42MzI2MTYgdiA1LjQzMDQ3NyBoIDAuNjQyOTczIHYgLTUuNDMwNDc3IGggMS4yNzc4MjUgdiAtMS4yNzc3NTggaCAwLjYzODUyMiB6Ii8+JiN4YTsgICAgPHRleHQgaWQ9InRleHQyOTIyIiB5PSI3MS4xOTAwMjUiIHg9IjI0Mi45NzAyIiBzdHlsZT0iZm9udC1zdHlsZTpub3JtYWw7Zm9udC13ZWlnaHQ6bm9ybWFsO2ZvbnQtc2l6ZTo3LjM5OTU2OTk5cHg7bGluZS1oZWlnaHQ6NC42MjQ3MzAxMXB4O2ZvbnQtZmFtaWx5OnNhbnMtc2VyaWY7bGV0dGVyLXNwYWNpbmc6MHB4O3dvcmQtc3BhY2luZzowcHg7ZmlsbDojMDAwMDAwO2ZpbGwtb3BhY2l0eToxO3N0cm9rZTpub25lO3N0cm9rZS13aWR0aDowLjI2NDU4Mjk5IiB4bWw6c3BhY2U9InByZXNlcnZlIiB0cmFuc2Zvcm09InNjYWxlKDAuOTk5NzEzNzksMS4wMDAyODYzKSI+PHRzcGFuIHN0eWxlPSJmb250LXNpemU6Ny4zOTk1Njk5OXB4O3N0cm9rZS13aWR0aDowLjI2NDU4Mjk5IiB5PSI3MS4xOTAwMjUiIHg9IjI0Mi45NzAyIiBpZD0idHNwYW4yOTIwIiBzb2RpcG9kaTpyb2xlPSJsaW5lIj5DVTx0c3BhbiBpZD0idHNwYW4yOTI2IiBzdHlsZT0iZm9udC1zaXplOjQuODA5NzIwMDRweDtiYXNlbGluZS1zaGlmdDpzdWI7c3Ryb2tlLXdpZHRoOjAuMjY0NTgyOTkiPjM8L3RzcGFuPjwvdHNwYW4+PC90ZXh0PiYjeGE7ICAgIDx0ZXh0IHhtbDpzcGFjZT0icHJlc2VydmUiIHN0eWxlPSJmb250LXN0eWxlOm5vcm1hbDtmb250LXdlaWdodDpub3JtYWw7Zm9udC1zaXplOjcuMzk5NTY5OTlweDtsaW5lLWhlaWdodDo0LjYyNDczMDExcHg7Zm9udC1mYW1pbHk6c2Fucy1zZXJpZjtsZXR0ZXItc3BhY2luZzowcHg7d29yZC1zcGFjaW5nOjBweDtmaWxsOiMwMDAwMDA7ZmlsbC1vcGFjaXR5OjE7c3Ryb2tlOm5vbmU7c3Ryb2tlLXdpZHRoOjAuMjY0NTgyOTkiIHg9IjI0Mi4wMDYyNCIgeT0iMTU3LjYwODgxIiBpZD0idGV4dDI5MjItMiIgdHJhbnNmb3JtPSJzY2FsZSgwLjk5OTcxMzc5LDEuMDAwMjg2MykiPjx0c3BhbiBzb2RpcG9kaTpyb2xlPSJsaW5lIiBpZD0idHNwYW4yOTIwLTAiIHg9IjI0Mi4wMDYyNCIgeT0iMTU3LjYwODgxIiBzdHlsZT0iZm9udC1zaXplOjcuMzk5NTY5OTlweDtzdHJva2Utd2lkdGg6MC4yNjQ1ODI5OSI+Q1U8dHNwYW4gaWQ9InRzcGFuMjk0OSIgc3R5bGU9ImZvbnQtc2l6ZTo0LjgwOTcyMDA0cHg7YmFzZWxpbmUtc2hpZnQ6c3ViO3N0cm9rZS13aWR0aDowLjI2NDU4Mjk5Ij40PC90c3Bhbj48L3RzcGFuPjwvdGV4dD4mI3hhOyAgICA8dGV4dCBpZD0idGV4dDI5MjItMi0zIiB5PSIxNTcuNzExMjMiIHg9IjExLjQ5Njg5IiBzdHlsZT0iZm9udC1zdHlsZTpub3JtYWw7Zm9udC13ZWlnaHQ6bm9ybWFsO2ZvbnQtc2l6ZTo3LjM5OTU2OTk5cHg7bGluZS1oZWlnaHQ6NC42MjQ3MzAxMXB4O2ZvbnQtZmFtaWx5OnNhbnMtc2VyaWY7bGV0dGVyLXNwYWNpbmc6MHB4O3dvcmQtc3BhY2luZzowcHg7ZmlsbDojMDAwMDAwO2ZpbGwtb3BhY2l0eToxO3N0cm9rZTpub25lO3N0cm9rZS13aWR0aDowLjI2NDU4Mjk5IiB4bWw6c3BhY2U9InByZXNlcnZlIiB0cmFuc2Zvcm09InNjYWxlKDAuOTk5NzEzNzksMS4wMDAyODYzKSI+PHRzcGFuIHN0eWxlPSJmb250LXNpemU6Ny4zOTk1Njk5OXB4O3N0cm9rZS13aWR0aDowLjI2NDU4Mjk5IiB5PSIxNTcuNzExMjMiIHg9IjExLjQ5Njg5IiBpZD0idHNwYW4yOTIwLTAtNCIgc29kaXBvZGk6cm9sZT0ibGluZSI+Q1U8dHNwYW4gaWQ9InRzcGFuMjk5NSIgc3R5bGU9ImZvbnQtc2l6ZTo0LjgwOTcyMDA0cHg7YmFzZWxpbmUtc2hpZnQ6c3ViO3N0cm9rZS13aWR0aDowLjI2NDU4Mjk5Ij4yPC90c3Bhbj48L3RzcGFuPjwvdGV4dD4mI3hhOyAgICA8dGV4dCB4bWw6c3BhY2U9InByZXNlcnZlIiBzdHlsZT0iZm9udC1zdHlsZTpub3JtYWw7Zm9udC13ZWlnaHQ6bm9ybWFsO2ZvbnQtc2l6ZTo3LjM5OTU2OTk5cHg7bGluZS1oZWlnaHQ6NC42MjQ3MzAxMXB4O2ZvbnQtZmFtaWx5OnNhbnMtc2VyaWY7bGV0dGVyLXNwYWNpbmc6MHB4O3dvcmQtc3BhY2luZzowcHg7ZmlsbDojMDAwMDAwO2ZpbGwtb3BhY2l0eToxO3N0cm9rZTpub25lO3N0cm9rZS13aWR0aDowLjI2NDU4Mjk5IiB4PSIxMi4wMDQwMzEiIHk9IjcwLjc0NDIwMiIgaWQ9InRleHQyOTIyLTItMy0yIiB0cmFuc2Zvcm09InNjYWxlKDAuOTk5NzEzNzksMS4wMDAyODYzKSI+PHRzcGFuIHNvZGlwb2RpOnJvbGU9ImxpbmUiIGlkPSJ0c3BhbjI5MjAtMC00LTUiIHg9IjEyLjAwNDAzMSIgeT0iNzAuNzQ0MjAyIiBzdHlsZT0iZm9udC1zaXplOjcuMzk5NTY5OTlweDtzdHJva2Utd2lkdGg6MC4yNjQ1ODI5OSI+Q1U8dHNwYW4gaWQ9InRzcGFuMjk5MyIgc3R5bGU9ImZvbnQtc2l6ZTo0LjgwOTcyMDA0cHg7YmFzZWxpbmUtc2hpZnQ6c3ViO3N0cm9rZS13aWR0aDowLjI2NDU4Mjk5Ij4xPC90c3Bhbj48L3RzcGFuPjwvdGV4dD4mI3hhOyAgICA8cmVjdCBzdHlsZT0ib3BhY2l0eTowLjgwOTQ0Mzk5O2ZpbGw6bm9uZTtmaWxsLW9wYWNpdHk6MTtzdHJva2U6IzAwMDAwMDtzdHJva2Utd2lkdGg6MTtzdHJva2UtbGluZWNhcDpzcXVhcmU7c3Ryb2tlLW1pdGVybGltaXQ6NDtzdHJva2UtZGFzaGFycmF5Om5vbmU7c3Ryb2tlLW9wYWNpdHk6MTtwYWludC1vcmRlcjpzdHJva2UgZmlsbCBtYXJrZXJzIiBpZD0icmVjdDI4MjQtNiIgd2lkdGg9IjI4LjQwMDkyOCIgaGVpZ2h0PSIyOC40MTcxOTIiIHg9IjQuOTIyMjcyNyIgeT0iMTMzLjk3MDYxIiByeD0iMS4wMjg5ODg0IiByeT0iMS4wMjg5ODg0Ii8+JiN4YTsgICAgPHBhdGggaW5rc2NhcGU6Y29ubmVjdG9yLWN1cnZhdHVyZT0iMCIgZD0ibSAyMy43NjU1MDEsMTM4LjM3NjU2IGggLTQuMDE0MTgzIGEgMC4zODc4MTczOCwwLjM4ODAzOTQ2IDAgMCAwIC0wLjM4NzMzNiwwLjM4NzU2IHYgNi41NzE5OSBhIDAuMzg3ODE3MzgsMC4zODgwMzk0NiAwIDAgMCAwLjM4NzMzNiwwLjM4NzU2IGggNC4wMTQxODMgYSAwLjM4NzgxNzM4LDAuMzg4MDM5NDYgMCAwIDAgMC4zODczMzUsLTAuMzg3NTYgdiAtNi41NzE5OSBhIDAuMzg3ODE3MzgsMC4zODgwMzk0NiAwIDAgMCAtMC4zODczMzUsLTAuMzg3NTYgeiBtIC0wLjI1MTE3Niw2LjcwODIzIGggLTMuNTExODMyIHYgLTYuMDY5MzUgaCAzLjUxMTgzMiB6IG0gNS40MjczNjQsLTkuMjYzNzUgdiAxLjI3Nzc2IGggLTQuNDY5NTk4IHYgLTEuMjc3NzYgaCAtNi4zODUxNDIgdiAxMi43Nzc1OSBoIDEuOTE1NTQ0IHYgLTEuMjc3NzYgaCAwLjYzODUyMiB2IDAuNjM4ODggaCAwLjYzODUxMSB2IC0wLjYzODg4IGggMC42Mzg1MTEgdiAwLjYzODg4IGggMC42Mzg1MjIgdiAtMC42Mzg4OCBoIDAuNjM5NjI5IGwgMC4wMDEyLDAuNjM4ODggaCAtMC4wMDIzIHYgMC42Mzg4OCBoIDAuMDAzNSB2IDMuMWUtNCBsIDAuMTgyMzczLC0zLjFlLTQgaCAxLjA5MTI5MyB2IC0wLjYzODg4IGggLTguOTNlLTQgdiAtMC42Mzg4OCBoIDAuNjM5NDY2IHYgMC42Mzg4OCBoIDAuNjM4NTEgdiAtMC42Mzg4OCBoIDAuNjM4NTIzIHYgMC42Mzg4OCBoIDAuNjM4NTIyIHYgLTAuNjM4ODggaCAwLjYzODUxMSB2IDAuNjM4ODggaCAwLjYzODUxMSB2IC0wLjYzODg4IGggMC42Mzg1MSB2IDEuMjc3NzYgaCAxLjkxNTU0NCB2IC0xMi43Nzc1OSB6IG0gMS4yNzcwMzMsMTIuMTM4NzEgSCAyOS41ODAyIHYgLTEuMjc3NzYgaCAtNS43NDY2MiB2IC02LjJlLTQgbCAtMC4zMTkyNTUsNi4yZS00IGggLTQuMTUwMzQzIHYgMS4yNzc3NiBoIC0wLjYzODUxIHYgLTExLjQ5OTgzIGggNS4xMDgxMDggdiAxLjI3Nzc2IGggMS4yNzQ3OTcgdiA1LjQzMDQ3IGggMC42NDI5ODQgdiAtNS40MzA0NyBoIDAuNjMyNDQxIHYgNS40MzA0NyBoIDAuNjQyOTg0IHYgLTUuNDMwNDcgaCAwLjYzMjYxNiB2IDUuNDMwNDcgaCAwLjY0Mjk3MyB2IC01LjQzMDQ3IEggMjkuNTgwMiB2IC0xLjI3Nzc2IGggMC42Mzg1MjIgeiIgc3R5bGU9ImZpbGw6IzAwMDAwMDtzdHJva2Utd2lkdGg6MC4yNjQ1ODI5OSIgaWQ9InBhdGgyMTk0LTctMiIvPiYjeGE7ICAgIDx0ZXh0IGlkPSJ0ZXh0MjkyMi0yLTMtMi04IiB5PSIxMDYuNjUxNDEiIHg9Ijc2LjE5MDExNyIgc3R5bGU9ImZvbnQtc3R5bGU6bm9ybWFsO2ZvbnQtd2VpZ2h0Om5vcm1hbDtmb250LXNpemU6Ny4zOTk1Njk5OXB4O2xpbmUtaGVpZ2h0OjQuNjI0NzMwMTFweDtmb250LWZhbWlseTpzYW5zLXNlcmlmO2xldHRlci1zcGFjaW5nOjBweDt3b3JkLXNwYWNpbmc6MHB4O2ZpbGw6IzAwMDAwMDtmaWxsLW9wYWNpdHk6MTtzdHJva2U6bm9uZTtzdHJva2Utd2lkdGg6MC4yNjQ1ODI5OSIgeG1sOnNwYWNlPSJwcmVzZXJ2ZSIgdHJhbnNmb3JtPSJzY2FsZSgwLjk5OTcxMzc5LDEuMDAwMjg2MykiPjx0c3BhbiBzdHlsZT0iZm9udC1zaXplOjcuMzk5NTY5OTlweDtzdHJva2Utd2lkdGg6MC4yNjQ1ODI5OSIgeT0iMTA2LjY1MTQxIiB4PSI3Ni4xOTAxMTciIGlkPSJ0c3BhbjI5MjAtMC00LTUtMyIgc29kaXBvZGk6cm9sZT0ibGluZSI+U1c8dHNwYW4gc3R5bGU9ImZvbnQtc2l6ZTo0LjgwOTcyMDA0cHg7YmFzZWxpbmUtc2hpZnQ6c3ViO3N0cm9rZS13aWR0aDowLjI2NDU4Mjk5IiBpZD0idHNwYW4yOTkzLTgiPjE8L3RzcGFuPjwvdHNwYW4+PC90ZXh0PiYjeGE7ICAgIDx0ZXh0IHhtbDpzcGFjZT0icHJlc2VydmUiIHN0eWxlPSJmb250LXN0eWxlOm5vcm1hbDtmb250LXdlaWdodDpub3JtYWw7Zm9udC1zaXplOjcuMzk5NTY5OTlweDtsaW5lLWhlaWdodDo0LjYyNDczMDExcHg7Zm9udC1mYW1pbHk6c2Fucy1zZXJpZjtsZXR0ZXItc3BhY2luZzowcHg7d29yZC1zcGFjaW5nOjBweDtmaWxsOiMwMDAwMDA7ZmlsbC1vcGFjaXR5OjE7c3Ryb2tlOm5vbmU7c3Ryb2tlLXdpZHRoOjAuMjY0NTgyOTkiIHg9IjE3Ny45MjAzNiIgeT0iMTA3LjM2ODExIiBpZD0idGV4dDI5MjItMi0zLTItOC00IiB0cmFuc2Zvcm09InNjYWxlKDAuOTk5NzEzNzksMS4wMDAyODYzKSI+PHRzcGFuIHNvZGlwb2RpOnJvbGU9ImxpbmUiIGlkPSJ0c3BhbjI5MjAtMC00LTUtMy04IiB4PSIxNzcuOTIwMzYiIHk9IjEwNy4zNjgxMSIgc3R5bGU9ImZvbnQtc2l6ZTo3LjM5OTU2OTk5cHg7c3Ryb2tlLXdpZHRoOjAuMjY0NTgyOTkiPlNXPHRzcGFuIGlkPSJ0c3BhbjMwNjkiIHN0eWxlPSJmb250LXNpemU6NC44MDk3MjAwNHB4O2Jhc2VsaW5lLXNoaWZ0OnN1YjtzdHJva2Utd2lkdGg6MC4yNjQ1ODI5OSI+MjwvdHNwYW4+PC90c3Bhbj48L3RleHQ+JiN4YTsgICAgPHJlY3Qgcnk9IjEuMDI4OTg4NCIgcng9IjEuMDI4OTg4NCIgeT0iMTMzLjkxNDU0IiB4PSIyMzUuMDcwMSIgaGVpZ2h0PSIyOC40MTcxOTIiIHdpZHRoPSIyOC40MDA5MjgiIGlkPSJyZWN0MjgyNC02LTIiIHN0eWxlPSJvcGFjaXR5OjAuODA5NDQzOTk7ZmlsbDpub25lO2ZpbGwtb3BhY2l0eToxO3N0cm9rZTojMDAwMDAwO3N0cm9rZS13aWR0aDoxO3N0cm9rZS1saW5lY2FwOnNxdWFyZTtzdHJva2UtbWl0ZXJsaW1pdDo0O3N0cm9rZS1kYXNoYXJyYXk6bm9uZTtzdHJva2Utb3BhY2l0eToxO3BhaW50LW9yZGVyOnN0cm9rZSBmaWxsIG1hcmtlcnMiLz4mI3hhOyAgICA8cGF0aCBpbmtzY2FwZTpjb25uZWN0b3ItY3VydmF0dXJlPSIwIiBpZD0icGF0aDIxOTQtNy0yLTciIHN0eWxlPSJmaWxsOiMwMDAwMDA7c3Ryb2tlLXdpZHRoOjAuMjY0NTgyOTkiIGQ9Im0gMjUzLjkxMjgyLDEzOC4zMjA0OCBoIC00LjAxNDE4IGEgMC4zODc4MTczOCwwLjM4ODAzOTQ2IDAgMCAwIC0wLjM4NzM0LDAuMzg3NTYgdiA2LjU3MTk5IGEgMC4zODc4MTczOCwwLjM4ODAzOTQ2IDAgMCAwIDAuMzg3MzQsMC4zODc1NiBoIDQuMDE0MTggYSAwLjM4NzgxNzM4LDAuMzg4MDM5NDYgMCAwIDAgMC4zODczNCwtMC4zODc1NiB2IC02LjU3MTk5IGEgMC4zODc4MTczOCwwLjM4ODAzOTQ2IDAgMCAwIC0wLjM4NzM0LC0wLjM4NzU2IHogbSAtMC4yNTExNyw2LjcwODIzIGggLTMuNTExODQgdiAtNi4wNjkzNSBoIDMuNTExODQgeiBtIDUuNDI3MzYsLTkuMjYzNzUgdiAxLjI3Nzc2IGggLTQuNDY5NiB2IC0xLjI3Nzc2IGggLTYuMzg1MTQgdiAxMi43Nzc2IGggMS45MTU1NCB2IC0xLjI3Nzc3IGggMC42Mzg1MyB2IDAuNjM4ODggaCAwLjYzODUxIHYgLTAuNjM4ODggaCAwLjYzODUxIHYgMC42Mzg4OCBoIDAuNjM4NTIgdiAtMC42Mzg4OCBoIDAuNjM5NjMgbCAwLjAwMSwwLjYzODg4IGggLTAuMDAyIHYgMC42Mzg4OSBoIDAuMDAzIHYgM2UtNCBsIDAuMTgyMzcsLTNlLTQgaCAxLjA5MTMgdiAtMC42Mzg4OSBoIC04LjllLTQgdiAtMC42Mzg4OCBoIDAuNjM5NDcgdiAwLjYzODg4IGggMC42Mzg1MSB2IC0wLjYzODg4IGggMC42Mzg1MiB2IDAuNjM4ODggaCAwLjYzODUyIHYgLTAuNjM4ODggaCAwLjYzODUxIHYgMC42Mzg4OCBoIDAuNjM4NTEgdiAtMC42Mzg4OCBoIDAuNjM4NTEgdiAxLjI3Nzc3IGggMS45MTU1NSB2IC0xMi43Nzc2IHogbSAxLjI3NzAzLDEyLjEzODcxIGggLTAuNjM4NTIgdiAtMS4yNzc3NiBoIC01Ljc0NjYyIHYgLTYuMmUtNCBsIC0wLjMxOTI1LDYuMmUtNCBoIC00LjE1MDM1IHYgMS4yNzc3NiBoIC0wLjYzODUxIHYgLTExLjQ5OTgzIGggNS4xMDgxMSB2IDEuMjc3NzYgaCAxLjI3NDggdiA1LjQzMDQ3IGggMC42NDI5OCB2IC01LjQzMDQ3IGggMC42MzI0NCB2IDUuNDMwNDcgaCAwLjY0Mjk5IHYgLTUuNDMwNDcgaCAwLjYzMjYxIHYgNS40MzA0NyBoIDAuNjQyOTggdiAtNS40MzA0NyBoIDEuMjc3ODIgdiAtMS4yNzc3NiBoIDAuNjM4NTIgeiIvPiYjeGE7ICAgIDxwYXRoIGlua3NjYXBlOmNvbm5lY3Rvci1jdXJ2YXR1cmU9IjAiIGQ9Im0gMjUzLjg2ODI1LDUyLjM0MzExMSBoIC00LjAxNDE4IGEgMC4zODc4MTczOCwwLjM4ODAzOTQ2IDAgMCAwIC0wLjM4NzM0LDAuMzg3NTYgdiA2LjU3MTk5NiBhIDAuMzg3ODE3MzgsMC4zODgwMzk0NiAwIDAgMCAwLjM4NzM0LDAuMzg3NTYxIGggNC4wMTQxOCBhIDAuMzg3ODE3MzgsMC4zODgwMzk0NiAwIDAgMCAwLjM4NzM0LC0wLjM4NzU2MSB2IC02LjU3MTk5NiBhIDAuMzg3ODE3MzgsMC4zODgwMzk0NiAwIDAgMCAtMC4zODczNCwtMC4zODc1NiB6IG0gLTAuMjUxMTcsNi43MDgyMzYgaCAtMy41MTE4NCB2IC02LjA2OTM1NSBoIDMuNTExODQgeiBtIDUuNDI3MzYsLTkuMjYzNzU0IHYgMS4yNzc3NjEgaCAtNC40Njk2IHYgLTEuMjc3NzYxIGggLTYuMzg1MTQgdiAxMi43Nzc1OTYgaCAxLjkxNTU0IHYgLTEuMjc3NzY1IGggMC42Mzg1MyB2IDAuNjM4ODgxIGggMC42Mzg1MSB2IC0wLjYzODg4MSBoIDAuNjM4NTEgdiAwLjYzODg4MSBoIDAuNjM4NTIgdiAtMC42Mzg4ODEgaCAwLjYzOTYzIGwgMC4wMDEsMC42Mzg4ODEgaCAtMC4wMDIgdiAwLjYzODg4NCBoIDAuMDAzIHYgMy4wM2UtNCBsIDAuMTgyMzcsLTMuMDNlLTQgaCAxLjA5MTMgdiAtMC42Mzg4ODQgaCAtOC45ZS00IHYgLTAuNjM4ODgxIGggMC42Mzk0NyB2IDAuNjM4ODgxIGggMC42Mzg1MSB2IC0wLjYzODg4MSBoIDAuNjM4NTIgdiAwLjYzODg4MSBoIDAuNjM4NTIgdiAtMC42Mzg4ODEgaCAwLjYzODUxIHYgMC42Mzg4ODEgaCAwLjYzODUxIHYgLTAuNjM4ODgxIGggMC42Mzg1MSB2IDEuMjc3NzY1IGggMS45MTU1NSBWIDQ5Ljc4NzU5MyBaIG0gMS4yNzcwMywxMi4xMzg3MTMgaCAtMC42Mzg1MiB2IC0xLjI3Nzc1OSBoIC01Ljc0NjYyIHYgLTYuMTllLTQgbCAtMC4zMTkyNSw2LjE5ZS00IGggLTQuMTUwMzUgdiAxLjI3Nzc1OSBoIC0wLjYzODUxIFYgNTAuNDI2NDczIGggNS4xMDgxMSB2IDEuMjc3NzU4IGggMS4yNzQ4IHYgNS40MzA0NzcgaCAwLjY0Mjk4IHYgLTUuNDMwNDc3IGggMC42MzI0NCB2IDUuNDMwNDc3IGggMC42NDI5OSB2IC01LjQzMDQ3NyBoIDAuNjMyNjEgdiA1LjQzMDQ3NyBoIDAuNjQyOTggdiAtNS40MzA0NzcgaCAxLjI3NzgyIHYgLTEuMjc3NzU4IGggMC42Mzg1MiB6IiBzdHlsZT0iZmlsbDojMDAwMDAwO3N0cm9rZS13aWR0aDowLjI2NDU4Mjk5IiBpZD0icGF0aDIxOTQtNy0yLTctOCIvPiYjeGE7ICAgIDxwYXRoIGlua3NjYXBlOmNvbm5lY3Rvci1jdXJ2YXR1cmU9IjAiIGlkPSJwYXRoMzE1MiIgZD0iTSAzMy4zMjMyMDMsMTMzLjk3MDYyIDcxLjIwNzIwMSwxMTIuMDg1NzUiIHN0eWxlPSJmaWxsOm5vbmU7c3Ryb2tlOiMwMDAwMDA7c3Ryb2tlLXdpZHRoOjE7c3Ryb2tlLWxpbmVjYXA6YnV0dDtzdHJva2UtbGluZWpvaW46bWl0ZXI7c3Ryb2tlLW1pdGVybGltaXQ6NDtzdHJva2UtZGFzaGFycmF5Om5vbmU7c3Ryb2tlLW9wYWNpdHk6MSIvPiYjeGE7ICAgIDxwYXRoIGlua3NjYXBlOmNvbm5lY3Rvci1jdXJ2YXR1cmU9IjAiIHN0eWxlPSJmaWxsOm5vbmU7c3Ryb2tlOiMwMDAwMDA7c3Ryb2tlLXdpZHRoOjE7c3Ryb2tlLWxpbmVjYXA6YnV0dDtzdHJva2UtbGluZWpvaW46bWl0ZXI7c3Ryb2tlLW1pdGVybGltaXQ6NDtzdHJva2UtZGFzaGFycmF5Om5vbmU7c3Ryb2tlLW9wYWNpdHk6MSIgZD0iTSAzMy41NTczMzYsNzUuNDg5ODg1IDcxLjQ0MTMzNCw5Ny4zNzQ3NDgiIGlkPSJwYXRoMzE1Mi03Ii8+JiN4YTsgICAgPHBhdGggaW5rc2NhcGU6Y29ubmVjdG9yLWN1cnZhdHVyZT0iMCIgc3R5bGU9ImZpbGw6bm9uZTtzdHJva2U6IzAwMDAwMDtzdHJva2Utd2lkdGg6MTtzdHJva2UtbGluZWNhcDpidXR0O3N0cm9rZS1saW5lam9pbjptaXRlcjtzdHJva2UtbWl0ZXJsaW1pdDo0O3N0cm9rZS1kYXNoYXJyYXk6bm9uZTtzdHJva2Utb3BhY2l0eToxIiBkPSJNIDIzNC45NDE0LDEzNC4yOTUxNyAxOTcuMDU3MzMsMTEyLjQxMDMxIiBpZD0icGF0aDMxNTItMCIvPiYjeGE7ICAgIDxwYXRoIGlua3NjYXBlOmNvbm5lY3Rvci1jdXJ2YXR1cmU9IjAiIGlkPSJwYXRoMzE1Mi03LTgiIGQ9Ik0gMjM0LjcwNzI3LDc1LjgxNDQzNiAxOTYuODIzMiw5Ny42OTkyOTciIHN0eWxlPSJmaWxsOm5vbmU7c3Ryb2tlOiMwMDAwMDA7c3Ryb2tlLXdpZHRoOjE7c3Ryb2tlLWxpbmVjYXA6YnV0dDtzdHJva2UtbGluZWpvaW46bWl0ZXI7c3Ryb2tlLW1pdGVybGltaXQ6NDtzdHJva2UtZGFzaGFycmF5Om5vbmU7c3Ryb2tlLW9wYWNpdHk6MSIvPiYjeGE7ICAgIDxwYXRoIGlua3NjYXBlOmNvbm5lY3Rvci1jdXJ2YXR1cmU9IjAiIGlkPSJwYXRoMzE4NyIgZD0iTSA5Ny4zOTA0MDMsMTA0LjYyODE0IEggMTcxLjE0NDc1IiBzdHlsZT0iZmlsbDpub25lO3N0cm9rZTojMDAwMDAwO3N0cm9rZS13aWR0aDoxO3N0cm9rZS1saW5lY2FwOmJ1dHQ7c3Ryb2tlLWxpbmVqb2luOm1pdGVyO3N0cm9rZS1taXRlcmxpbWl0OjQ7c3Ryb2tlLWRhc2hhcnJheTpub25lO3N0cm9rZS1vcGFjaXR5OjEiLz4mI3hhOyAgICA8dGV4dCBpZD0idGV4dDczMzUiIHk9IjEzOS42MDYxNiIgeD0iNy4xNzU1NzYyIiBzdHlsZT0iZm9udC1zdHlsZTpub3JtYWw7Zm9udC13ZWlnaHQ6bm9ybWFsO2ZvbnQtc2l6ZTo0LjkzMzA0MDE0cHg7bGluZS1oZWlnaHQ6My4wODMxNDk5MXB4O2ZvbnQtZmFtaWx5OnNhbnMtc2VyaWY7bGV0dGVyLXNwYWNpbmc6MHB4O3dvcmQtc3BhY2luZzowcHg7ZmlsbDojMDAwMDAwO2ZpbGwtb3BhY2l0eToxO3N0cm9rZTpub25lO3N0cm9rZS13aWR0aDowLjI2NDU4Mjk5IiB4bWw6c3BhY2U9InByZXNlcnZlIiB0cmFuc2Zvcm09InNjYWxlKDAuOTk5NzEzNzksMS4wMDAyODYzKSI+PHRzcGFuIHN0eWxlPSJmb250LXNpemU6NC45MzMwNDAxNHB4O3N0cm9rZS13aWR0aDowLjI2NDU4Mjk5IiB5PSIxMzkuNjA2MTYiIHg9IjcuMTc1NTc2MiIgaWQ9InRzcGFuNzMzMyIgc29kaXBvZGk6cm9sZT0ibGluZSI+Uzx0c3BhbiBpZD0idHNwYW43MzM3IiBzdHlsZT0iZm9udC1zaXplOjMuMjA2NDgwMDNweDtiYXNlbGluZS1zaGlmdDpzdWI7c3Ryb2tlLXdpZHRoOjAuMjY0NTgyOTkiPkMsMjwvdHNwYW4+PC90c3Bhbj48L3RleHQ+JiN4YTsgICAgPHRleHQgeG1sOnNwYWNlPSJwcmVzZXJ2ZSIgc3R5bGU9ImZvbnQtc3R5bGU6bm9ybWFsO2ZvbnQtd2VpZ2h0Om5vcm1hbDtmb250LXNpemU6NC45MzMwNDAxNHB4O2xpbmUtaGVpZ2h0OjMuMDgzMTQ5OTFweDtmb250LWZhbWlseTpzYW5zLXNlcmlmO2xldHRlci1zcGFjaW5nOjBweDt3b3JkLXNwYWNpbmc6MHB4O2ZpbGw6IzAwMDAwMDtmaWxsLW9wYWNpdHk6MTtzdHJva2U6bm9uZTtzdHJva2Utd2lkdGg6MC4yNjQ1ODI5OSIgeD0iMjM3LjU3NTkxIiB5PSIxMzkuNjM2OCIgaWQ9InRleHQ3MzM1LTAiIHRyYW5zZm9ybT0ic2NhbGUoMC45OTk3MTM3OSwxLjAwMDI4NjMpIj48dHNwYW4gc29kaXBvZGk6cm9sZT0ibGluZSIgaWQ9InRzcGFuNzMzMy00IiB4PSIyMzcuNTc1OTEiIHk9IjEzOS42MzY4IiBzdHlsZT0iZm9udC1zaXplOjQuOTMzMDQwMTRweDtzdHJva2Utd2lkdGg6MC4yNjQ1ODI5OSI+Uzx0c3BhbiBzdHlsZT0iZm9udC1zaXplOjMuMjA2NDgwMDNweDtiYXNlbGluZS1zaGlmdDpzdWI7c3Ryb2tlLXdpZHRoOjAuMjY0NTgyOTkiIGlkPSJ0c3BhbjczMzctMyI+SSw0PC90c3Bhbj48L3RzcGFuPjwvdGV4dD4mI3hhOyAgICA8dGV4dCBpZD0idGV4dDczMzUtMC0wIiB5PSIxNDUuODAzMTIiIHg9IjIzNy40OTAzMSIgc3R5bGU9ImZvbnQtc3R5bGU6bm9ybWFsO2ZvbnQtd2VpZ2h0Om5vcm1hbDtmb250LXNpemU6NC45MzMwNDAxNHB4O2xpbmUtaGVpZ2h0OjMuMDgzMTQ5OTFweDtmb250LWZhbWlseTpzYW5zLXNlcmlmO2xldHRlci1zcGFjaW5nOjBweDt3b3JkLXNwYWNpbmc6MHB4O2ZpbGw6IzAwMDAwMDtmaWxsLW9wYWNpdHk6MTtzdHJva2U6bm9uZTtzdHJva2Utd2lkdGg6MC4yNjQ1ODI5OSIgeG1sOnNwYWNlPSJwcmVzZXJ2ZSIgdHJhbnNmb3JtPSJzY2FsZSgwLjk5OTcxMzc5LDEuMDAwMjg2MykiPjx0c3BhbiBzdHlsZT0iZm9udC1zaXplOjQuOTMzMDQwMTRweDtzdHJva2Utd2lkdGg6MC4yNjQ1ODI5OSIgeT0iMTQ1LjgwMzEyIiB4PSIyMzcuNDkwMzEiIGlkPSJ0c3BhbjczMzMtNC0yIiBzb2RpcG9kaTpyb2xlPSJsaW5lIj5TPHRzcGFuIGlkPSJ0c3BhbjczMzctMy04IiBzdHlsZT0iZm9udC1zaXplOjMuMjA2NDgwMDNweDtiYXNlbGluZS1zaGlmdDpzdWI7c3Ryb2tlLXdpZHRoOjAuMjY0NTgyOTkiPk8sNDwvdHNwYW4+PC90c3Bhbj48L3RleHQ+JiN4YTsgICAgPHRleHQgaWQ9InRleHQ3MzM1LTAtOSIgeT0iNTQuMTg5ODgiIHg9IjIzNy4zMjk5NyIgc3R5bGU9ImZvbnQtc3R5bGU6bm9ybWFsO2ZvbnQtd2VpZ2h0Om5vcm1hbDtmb250LXNpemU6NC45MzMwNDAxNHB4O2xpbmUtaGVpZ2h0OjMuMDgzMTQ5OTFweDtmb250LWZhbWlseTpzYW5zLXNlcmlmO2xldHRlci1zcGFjaW5nOjBweDt3b3JkLXNwYWNpbmc6MHB4O2ZpbGw6IzAwMDAwMDtmaWxsLW9wYWNpdHk6MTtzdHJva2U6bm9uZTtzdHJva2Utd2lkdGg6MC4yNjQ1ODI5OSIgeG1sOnNwYWNlPSJwcmVzZXJ2ZSIgdHJhbnNmb3JtPSJzY2FsZSgwLjk5OTcxMzc5LDEuMDAwMjg2MykiPjx0c3BhbiBzdHlsZT0iZm9udC1zaXplOjQuOTMzMDQwMTRweDtzdHJva2Utd2lkdGg6MC4yNjQ1ODI5OSIgeT0iNTQuMTg5ODgiIHg9IjIzNy4zMjk5NyIgaWQ9InRzcGFuNzMzMy00LTMiIHNvZGlwb2RpOnJvbGU9ImxpbmUiPlM8dHNwYW4gaWQ9InRzcGFuNzMzNy0zLTg0IiBzdHlsZT0iZm9udC1zaXplOjMuMjA2NDgwMDNweDtiYXNlbGluZS1zaGlmdDpzdWI7c3Ryb2tlLXdpZHRoOjAuMjY0NTgyOTkiPkksMzwvdHNwYW4+PC90c3Bhbj48L3RleHQ+JiN4YTsgICAgPHRleHQgeG1sOnNwYWNlPSJwcmVzZXJ2ZSIgc3R5bGU9ImZvbnQtc3R5bGU6bm9ybWFsO2ZvbnQtd2VpZ2h0Om5vcm1hbDtmb250LXNpemU6NC45MzMwNDAxNHB4O2xpbmUtaGVpZ2h0OjMuMDgzMTQ5OTFweDtmb250LWZhbWlseTpzYW5zLXNlcmlmO2xldHRlci1zcGFjaW5nOjBweDt3b3JkLXNwYWNpbmc6MHB4O2ZpbGw6IzAwMDAwMDtmaWxsLW9wYWNpdHk6MTtzdHJva2U6bm9uZTtzdHJva2Utd2lkdGg6MC4yNjQ1ODI5OSIgeD0iMjM3LjI0NDM3IiB5PSI2MC4zNTYyMDEiIGlkPSJ0ZXh0NzMzNS0wLTAtNyIgdHJhbnNmb3JtPSJzY2FsZSgwLjk5OTcxMzc5LDEuMDAwMjg2MykiPjx0c3BhbiBzb2RpcG9kaTpyb2xlPSJsaW5lIiBpZD0idHNwYW43MzMzLTQtMi04IiB4PSIyMzcuMjQ0MzciIHk9IjYwLjM1NjIwMSIgc3R5bGU9ImZvbnQtc2l6ZTo0LjkzMzA0MDE0cHg7c3Ryb2tlLXdpZHRoOjAuMjY0NTgyOTkiPlM8dHNwYW4gc3R5bGU9ImZvbnQtc2l6ZTozLjIwNjQ4MDAzcHg7YmFzZWxpbmUtc2hpZnQ6c3ViO3N0cm9rZS13aWR0aDowLjI2NDU4Mjk5IiBpZD0idHNwYW43MzM3LTMtOC0zIj5PLDM8L3RzcGFuPjwvdHNwYW4+PC90ZXh0PiYjeGE7ICAgIDxlbGxpcHNlIGN5PSIxMDQuNTU5NTMiIGN4PSIyNTguNzA1ODciIGlkPSJwYXRoMjgwNS0xLTciIHN0eWxlPSJvcGFjaXR5OjAuODA5NDQzOTk7ZmlsbDpub25lO3N0cm9rZTojMDAwMDAwO3N0cm9rZS13aWR0aDoxO3N0cm9rZS1saW5lY2FwOnNxdWFyZTtzdHJva2UtbWl0ZXJsaW1pdDo0O3N0cm9rZS1kYXNoYXJyYXk6bm9uZTtzdHJva2Utb3BhY2l0eToxO3BhaW50LW9yZGVyOnN0cm9rZSBmaWxsIG1hcmtlcnMiIHJ4PSI0LjE4NTkyOTgiIHJ5PSI0LjE4ODMyNjgiLz4mI3hhOyAgICA8cmVjdCByeT0iMS4wMjg5ODg2IiByeD0iMS4wMjg5ODg0IiB5PSIxMDAuMzk2NCIgeD0iMjMwLjY0NTMyIiBoZWlnaHQ9IjguOTc2NzQ4NSIgd2lkdGg9IjguOTE2NTY5NyIgaWQ9InJlY3Q3NjIwIiBzdHlsZT0ib3BhY2l0eTowLjgwODk5OTk5O2ZpbGw6bm9uZTtmaWxsLW9wYWNpdHk6MTtzdHJva2U6IzAwMDAwMDtzdHJva2Utd2lkdGg6MTtzdHJva2UtbGluZWNhcDpzcXVhcmU7c3Ryb2tlLW1pdGVybGltaXQ6NDtzdHJva2UtZGFzaGFycmF5Om5vbmU7c3Ryb2tlLW9wYWNpdHk6MTtwYWludC1vcmRlcjpzdHJva2UgZmlsbCBtYXJrZXJzIi8+JiN4YTsgICAgPHRleHQgaWQ9InRleHQ3NjQxIiB5PSIxMDYuMzYiIHg9IjIzMi45OTA3NCIgc3R5bGU9ImZvbnQtc3R5bGU6bm9ybWFsO2ZvbnQtd2VpZ2h0Om5vcm1hbDtmb250LXNpemU6MTIuMzMyNTk5NjRweDtsaW5lLWhlaWdodDo3LjcwNzg4MDAycHg7Zm9udC1mYW1pbHk6c2Fucy1zZXJpZjtsZXR0ZXItc3BhY2luZzowcHg7d29yZC1zcGFjaW5nOjBweDtmaWxsOiMwMDAwMDA7ZmlsbC1vcGFjaXR5OjE7c3Ryb2tlOm5vbmU7c3Ryb2tlLXdpZHRoOjAuMjY0NTgyOTkiIHhtbDpzcGFjZT0icHJlc2VydmUiIHRyYW5zZm9ybT0ic2NhbGUoMC45OTk3MTM3OSwxLjAwMDI4NjMpIj48dHNwYW4gc3R5bGU9ImZvbnQtc2l6ZTo0LjkzMzA0MDE0cHg7c3Ryb2tlLXdpZHRoOjAuMjY0NTgyOTkiIHk9IjEwNi4zNiIgeD0iMjMyLjk5MDc0IiBpZD0idHNwYW43NjM5IiBzb2RpcG9kaTpyb2xlPSJsaW5lIj5PPC90c3Bhbj48L3RleHQ+JiN4YTsgICAgPHRleHQgaWQ9InRleHQyOTIyLTItNyIgeT0iMTE1Ljg0NjM5IiB4PSIyNTEuMjYwNzMiIHN0eWxlPSJmb250LXN0eWxlOm5vcm1hbDtmb250LXdlaWdodDpub3JtYWw7Zm9udC1zaXplOjUuNzU1MjE5OTRweDtsaW5lLWhlaWdodDozLjU5NzAxOTkxcHg7Zm9udC1mYW1pbHk6c2Fucy1zZXJpZjtsZXR0ZXItc3BhY2luZzowcHg7d29yZC1zcGFjaW5nOjBweDtmaWxsOiMwMDAwMDA7ZmlsbC1vcGFjaXR5OjE7c3Ryb2tlOm5vbmU7c3Ryb2tlLXdpZHRoOjAuMjY0NTgyOTkiIHhtbDpzcGFjZT0icHJlc2VydmUiIHRyYW5zZm9ybT0ic2NhbGUoMC45OTk3MTM3OSwxLjAwMDI4NjMpIj48dHNwYW4gc3R5bGU9ImZvbnQtc2l6ZTo1Ljc1NTIxOTk0cHg7c3Ryb2tlLXdpZHRoOjAuMjY0NTgyOTkiIHk9IjExNS44NDYzOSIgeD0iMjUxLjI2MDczIiBpZD0idHNwYW4yOTIwLTAtOSIgc29kaXBvZGk6cm9sZT0ibGluZSI+U2Vuc29yPC90c3Bhbj48L3RleHQ+JiN4YTsgICAgPHRleHQgeG1sOnNwYWNlPSJwcmVzZXJ2ZSIgc3R5bGU9ImZvbnQtc3R5bGU6bm9ybWFsO2ZvbnQtd2VpZ2h0Om5vcm1hbDtmb250LXNpemU6NS43NTUyMjk5NXB4O2xpbmUtaGVpZ2h0OjMuNTk3MDE5OTFweDtmb250LWZhbWlseTpzYW5zLXNlcmlmO2xldHRlci1zcGFjaW5nOjBweDt3b3JkLXNwYWNpbmc6MHB4O2ZpbGw6IzAwMDAwMDtmaWxsLW9wYWNpdHk6MTtzdHJva2U6bm9uZTtzdHJva2Utd2lkdGg6MC4yNjQ1ODI5OSIgeD0iMjI3LjE4MzIzIiB5PSIxMTUuNzg2MTciIGlkPSJ0ZXh0MjkyMi0yLTctOSIgdHJhbnNmb3JtPSJzY2FsZSgwLjk5OTcxMzc5LDEuMDAwMjg2MykiPjx0c3BhbiBzb2RpcG9kaTpyb2xlPSJsaW5lIiBpZD0idHNwYW4yOTIwLTAtOS01IiB4PSIyMjcuMTgzMjMiIHk9IjExNS43ODYxNyIgc3R5bGU9ImZvbnQtc2l6ZTo1Ljc1NTIyOTk1cHg7c3Ryb2tlLXdpZHRoOjAuMjY0NTgyOTkiPkFjdG9yPC90c3Bhbj48L3RleHQ+JiN4YTsgICAgPHRleHQgeG1sOnNwYWNlPSJwcmVzZXJ2ZSIgc3R5bGU9ImZvbnQtc3R5bGU6bm9ybWFsO2ZvbnQtd2VpZ2h0Om5vcm1hbDtmb250LXNpemU6MTIuMzMyNTk5NjRweDtsaW5lLWhlaWdodDo3LjcwNzg4MDAycHg7Zm9udC1mYW1pbHk6c2Fucy1zZXJpZjtsZXR0ZXItc3BhY2luZzowcHg7d29yZC1zcGFjaW5nOjBweDtmaWxsOiMwMDAwMDA7ZmlsbC1vcGFjaXR5OjE7c3Ryb2tlOm5vbmU7c3Ryb2tlLXdpZHRoOjAuMjY0NTgyOTkiIHg9IjI1Ny42OTA3IiB5PSIxMDYuMTczIiBpZD0idGV4dDc2NDEtMyIgdHJhbnNmb3JtPSJzY2FsZSgwLjk5OTcxMzc5LDEuMDAwMjg2MykiPjx0c3BhbiBzb2RpcG9kaTpyb2xlPSJsaW5lIiBpZD0idHNwYW43NjM5LTUiIHg9IjI1Ny42OTA3IiB5PSIxMDYuMTczIiBzdHlsZT0iZm9udC1zaXplOjQuOTMzMDQwMTRweDtzdHJva2Utd2lkdGg6MC4yNjQ1ODI5OSI+STwvdHNwYW4+PC90ZXh0PiYjeGE7ICAgIDxwYXRoIGlua3NjYXBlOmNvbm5lY3Rvci1jdXJ2YXR1cmU9IjAiIGlkPSJwYXRoNzcxMiIgZD0iTSAyNDMuMzc2MjcsNzYuNjM4MjI2IFYgMTMzLjI1OTY2IiBzdHlsZT0iZmlsbDpub25lO3N0cm9rZTojMDAwMDAwO3N0cm9rZS13aWR0aDowLjU7c3Ryb2tlLWxpbmVjYXA6YnV0dDtzdHJva2UtbGluZWpvaW46bWl0ZXI7c3Ryb2tlLW1pdGVybGltaXQ6NDtzdHJva2UtZGFzaGFycmF5OjIsIDI7c3Ryb2tlLWRhc2hvZmZzZXQ6MDtzdHJva2Utb3BhY2l0eToxIi8+JiN4YTsgICAgPHBhdGggaW5rc2NhcGU6Y29ubmVjdG9yLWN1cnZhdHVyZT0iMCIgc3R5bGU9ImZpbGw6bm9uZTtzdHJva2U6IzAwMDAwMDtzdHJva2Utd2lkdGg6MC40OTk5OTg5OTtzdHJva2UtbGluZWNhcDpidXR0O3N0cm9rZS1saW5lam9pbjptaXRlcjtzdHJva2UtbWl0ZXJsaW1pdDo0O3N0cm9rZS1kYXNoYXJyYXk6MiwgMjtzdHJva2UtZGFzaG9mZnNldDowO3N0cm9rZS1vcGFjaXR5OjEiIGQ9Ik0gMjQ5Ljc5OCw3Ni41NTM2NiBWIDEzMy4xNzUxIiBpZD0icGF0aDc3MTItMSIvPiYjeGE7ICAgIDxwYXRoIGlua3NjYXBlOmNvbm5lY3Rvci1jdXJ2YXR1cmU9IjAiIGlkPSJwYXRoNzcxMi0xLTYiIGQ9Im0gMjQzLjY2ODE3LDEwNC42MjgxNCBoIC0zLjk5NzkzIiBzdHlsZT0iZmlsbDpub25lO3N0cm9rZTojMDAwMDAwO3N0cm9rZS13aWR0aDowLjQ5OTk5ODk5O3N0cm9rZS1saW5lY2FwOmJ1dHQ7c3Ryb2tlLWxpbmVqb2luOm1pdGVyO3N0cm9rZS1taXRlcmxpbWl0OjQ7c3Ryb2tlLWRhc2hhcnJheTowLjk5OTk5OSwgMC45OTk5OTk7c3Ryb2tlLWRhc2hvZmZzZXQ6MDtzdHJva2Utb3BhY2l0eToxIi8+JiN4YTsgICAgPHBhdGggaW5rc2NhcGU6Y29ubmVjdG9yLWN1cnZhdHVyZT0iMCIgc3R5bGU9ImZpbGw6bm9uZTtzdHJva2U6IzAwMDAwMDtzdHJva2Utd2lkdGg6MC40OTk5OTg5OTtzdHJva2UtbGluZWNhcDpidXR0O3N0cm9rZS1saW5lam9pbjptaXRlcjtzdHJva2UtbWl0ZXJsaW1pdDo0O3N0cm9rZS1kYXNoYXJyYXk6MC45OTk5OTksIDAuOTk5OTk5O3N0cm9rZS1kYXNob2Zmc2V0OjA7c3Ryb2tlLW9wYWNpdHk6MSIgZD0ibSAyNTMuNzk1OTMsMTA0LjYyODE0IGggLTQuMjgwMDEiIGlkPSJwYXRoNzcxMi0xLTYtMCIvPiYjeGE7ICAgIDxlbGxpcHNlIHJ5PSIxMy43NjgwMTkiIHJ4PSIxMy43NjAxNCIgY3k9IjUyLjQxNzA0OSIgY3g9IjEzNS43MzEyOCIgaWQ9InBhdGgyODA1LTEtNzAiIHN0eWxlPSJvcGFjaXR5OjAuODA5NDQzOTk7ZmlsbDpub25lO3N0cm9rZTojMDAwMDAwO3N0cm9rZS13aWR0aDoxO3N0cm9rZS1saW5lY2FwOnNxdWFyZTtzdHJva2UtbWl0ZXJsaW1pdDo0O3N0cm9rZS1kYXNoYXJyYXk6bm9uZTtzdHJva2Utb3BhY2l0eToxO3BhaW50LW9yZGVyOnN0cm9rZSBmaWxsIG1hcmtlcnMiLz4mI3hhOyAgICA8dGV4dCB0cmFuc2Zvcm09InNjYWxlKDAuOTk5NzEzNzksMS4wMDAyODYzKSIgaWQ9InRleHQyOTIyLTItMy0yLTgtNC0xIiB5PSI1NC42NjI2MjEiIHg9IjEyOC4yMzE3NSIgc3R5bGU9ImZvbnQtc3R5bGU6bm9ybWFsO2ZvbnQtd2VpZ2h0Om5vcm1hbDtmb250LXNpemU6Ny4zOTk1OHB4O2xpbmUtaGVpZ2h0OjQuNjI0NzMwMTFweDtmb250LWZhbWlseTpzYW5zLXNlcmlmO2xldHRlci1zcGFjaW5nOjBweDt3b3JkLXNwYWNpbmc6MHB4O2ZpbGw6IzAwMDAwMDtmaWxsLW9wYWNpdHk6MTtzdHJva2U6bm9uZTtzdHJva2Utd2lkdGg6MC4yNjQ1ODI5OSIgeG1sOnNwYWNlPSJwcmVzZXJ2ZSI+PHRzcGFuIHN0eWxlPSJmb250LXNpemU6Ny4zOTk1OHB4O3N0cm9rZS13aWR0aDowLjI2NDU4Mjk5IiB5PSI1NC42NjI2MjEiIHg9IjEyOC4yMzE3NSIgaWQ9InRzcGFuMjkyMC0wLTQtNS0zLTgtNyIgc29kaXBvZGk6cm9sZT0ibGluZSI+U1c8dHNwYW4gc3R5bGU9ImZvbnQtc2l6ZTo2NC45OTk5OTc2MiU7YmFzZWxpbmUtc2hpZnQ6c3ViIiBpZD0idHNwYW4zOTMiPjM8L3RzcGFuPjwvdHNwYW4+PC90ZXh0PiYjeGE7ICAgIDxwYXRoIGlua3NjYXBlOmNvbm5lY3Rvci1jdXJ2YXR1cmU9IjAiIHN0eWxlPSJmaWxsOm5vbmU7c3Ryb2tlOiMwMDAwMDA7c3Ryb2tlLXdpZHRoOjE7c3Ryb2tlLWxpbmVjYXA6YnV0dDtzdHJva2UtbGluZWpvaW46bWl0ZXI7c3Ryb2tlLW1pdGVybGltaXQ6NDtzdHJva2UtZGFzaGFycmF5Om5vbmU7c3Ryb2tlLW9wYWNpdHk6MSIgZD0iTSA4NC45NTAwNzMsOTAuNjM2NTg5IDEyMS44MzMyNiw1NC44MjI0NzMiIGlkPSJwYXRoNDEwIi8+JiN4YTsgICAgPHBhdGggaW5rc2NhcGU6Y29ubmVjdG9yLWN1cnZhdHVyZT0iMCIgc3R5bGU9ImZpbGw6bm9uZTtzdHJva2U6IzAwMDAwMDtzdHJva2Utd2lkdGg6MTtzdHJva2UtbGluZWNhcDpidXR0O3N0cm9rZS1saW5lam9pbjptaXRlcjtzdHJva2UtbWl0ZXJsaW1pdDo0O3N0cm9rZS1kYXNoYXJyYXk6bm9uZTtzdHJva2Utb3BhY2l0eToxIiBkPSJtIDE0OS4zNjIwMiw1My4yMTg4NTcgMzMuNjc1OTYsMzguNDg2ODExIiBpZD0icGF0aDQxMiIvPiYjeGE7ICAgIDxwYXRoIGlua3NjYXBlOmNvbm5lY3Rvci1jdXJ2YXR1cmU9IjAiIHN0eWxlPSJmaWxsOm5vbmU7c3Ryb2tlOiMwMDAwMDA7c3Ryb2tlLXdpZHRoOjE7c3Ryb2tlLWxpbmVjYXA6YnV0dDtzdHJva2UtbGluZWpvaW46bWl0ZXI7c3Ryb2tlLW1pdGVybGltaXQ6NDtzdHJva2UtZGFzaGFycmF5Om5vbmU7c3Ryb2tlLW9wYWNpdHk6MSIgZD0ibSAxNDguNTYwMjIsNDcuMzM4OTI3IDg2LjMyODA1LDEwLjk1ODA1MiIgaWQ9InBhdGgyMjUxIi8+JiN4YTsgICAgPHBhdGggaW5rc2NhcGU6Y29ubmVjdG9yLWN1cnZhdHVyZT0iMCIgc3R5bGU9ImZpbGw6bm9uZTtzdHJva2U6IzAwMDAwMDtzdHJva2Utd2lkdGg6MTtzdHJva2UtbGluZWNhcDpidXR0O3N0cm9rZS1saW5lam9pbjptaXRlcjtzdHJva2UtbWl0ZXJsaW1pdDo0O3N0cm9rZS1kYXNoYXJyYXk6bm9uZTtzdHJva2Utb3BhY2l0eToxIiBkPSJNIDMzLjkwMTU5Miw1NS44OTE1NTEgMTIzLjE2OTYxLDQ3LjA3MTY1OCIgaWQ9InBhdGgyMjUzIi8+JiN4YTsgICAgPHRleHQgaWQ9InRleHQyOTIyLTItMy0yLTgtMy0zIiB5PSIxNDIuMTU4MjkiIHg9Ijk5Ljc3NjcxOCIgc3R5bGU9ImZvbnQtc3R5bGU6bm9ybWFsO2ZvbnQtdmFyaWFudDpub3JtYWw7Zm9udC13ZWlnaHQ6bm9ybWFsO2ZvbnQtc3RyZXRjaDpub3JtYWw7Zm9udC1zaXplOjcuMzk5NThweDtsaW5lLWhlaWdodDo0LjYyNDczMDExcHg7Zm9udC1mYW1pbHk6c2Fucy1zZXJpZjstaW5rc2NhcGUtZm9udC1zcGVjaWZpY2F0aW9uOidzYW5zLXNlcmlmLCBOb3JtYWwnO2ZvbnQtdmFyaWFudC1saWdhdHVyZXM6bm9ybWFsO2ZvbnQtdmFyaWFudC1jYXBzOm5vcm1hbDtmb250LXZhcmlhbnQtbnVtZXJpYzpub3JtYWw7bGV0dGVyLXNwYWNpbmc6MHB4O3dvcmQtc3BhY2luZzowcHg7ZmlsbDojMDAwMDAwO2ZpbGwtb3BhY2l0eToxO3N0cm9rZTpub25lO3N0cm9rZS13aWR0aDowLjI2NDU4Mjk5O3N0cm9rZS1vcGFjaXR5OjE7ZmlsdGVyOnVybCgjZmlsdGVyMzI3NSkiIHhtbDpzcGFjZT0icHJlc2VydmUiIHRyYW5zZm9ybT0ibWF0cml4KDAuOTk5NzEzNzksMCwwLDEuMDAwMjg2MywtNTEuNDc2ODA2LC0xNy44MDA5MTIpIj48dHNwYW4gc29kaXBvZGk6cm9sZT0ibGluZSIgaWQ9InRzcGFuMjkxNSIgeD0iOTkuNzc2NzE4IiB5PSIxNDIuMTU4MjkiIHN0eWxlPSJmb250LXN0eWxlOml0YWxpYztmb250LXZhcmlhbnQ6bm9ybWFsO2ZvbnQtd2VpZ2h0Om5vcm1hbDtmb250LXN0cmV0Y2g6bm9ybWFsO2ZvbnQtc2l6ZTo2LjEwNDY1MDAycHg7Zm9udC1mYW1pbHk6c2Fucy1zZXJpZjstaW5rc2NhcGUtZm9udC1zcGVjaWZpY2F0aW9uOidzYW5zLXNlcmlmLCBJdGFsaWMnO2ZvbnQtdmFyaWFudC1saWdhdHVyZXM6bm9ybWFsO2ZvbnQtdmFyaWFudC1jYXBzOm5vcm1hbDtmb250LXZhcmlhbnQtbnVtZXJpYzpub3JtYWw7ZmlsbDojMDAwMDAwO2ZpbGwtb3BhY2l0eToxO3N0cm9rZTpub25lO3N0cm9rZS1vcGFjaXR5OjEiPmU8dHNwYW4gc3R5bGU9ImZvbnQtc2l6ZTo2NC45OTk5OTc2MiU7YmFzZWxpbmUtc2hpZnQ6c3ViO2ZpbGw6IzAwMDAwMDtmaWxsLW9wYWNpdHk6MTtzdHJva2U6bm9uZTtzdHJva2Utb3BhY2l0eToxIiBpZD0idHNwYW4yOTE5Ij4yPC90c3Bhbj48L3RzcGFuPjwvdGV4dD4mI3hhOyAgICA8cGF0aCBpbmtzY2FwZTpjb25uZWN0b3ItY3VydmF0dXJlPSIwIiBzdHlsZT0iZmlsbDpub25lO3N0cm9rZTojMDA2YzAyO3N0cm9rZS13aWR0aDowLjYzNDYxNTtzdHJva2UtbGluZWNhcDpidXR0O3N0cm9rZS1saW5lam9pbjptaXRlcjtzdHJva2UtbWl0ZXJsaW1pdDo0O3N0cm9rZS1kYXNoYXJyYXk6MS45MDM4NCwgMC42MzQ2MTU7c3Ryb2tlLWRhc2hvZmZzZXQ6MC4xMjY5MjI5OTtzdHJva2Utb3BhY2l0eToxO21hcmtlci1lbmQ6dXJsKCNtYXJrZXI2MjYwKSIgZD0ibSAyMzEuOTU1MzYsMTM2LjE2MjAzIC0zNC4zNzc3NSwtMjAuMjE5OTYgYyAtNS4zODc5Miw5LjM4NzE0IC0yNy42NDE1Nyw3LjU2MzM0IC0yOC41NTMyMSwtOC4zMDU3MiBsIC02OS4yNDI0NDcsMC4yNzIxNyB2IDAgMCBjIC00Ljk1NDM2LDEzLjU2NTU2IC0xNC4xNjA0MiwxOS4wNTg5NCAtMzAuMjQxMTY1LDguMjQ2OTQgLTEyLjkxODYxNCw4LjM2Njg1IC0yMi42NzI2MzMsMTQuMDkxODQgLTMzLjAzMDg0NiwyMC42OTQ2NyIgaWQ9InBhdGgzNjYwIiBzb2RpcG9kaTpub2RldHlwZXM9ImNjY2NjY2NjIi8+JiN4YTsgICAgPHBhdGggaW5rc2NhcGU6Y29ubmVjdG9yLWN1cnZhdHVyZT0iMCIgc3R5bGU9ImZpbGw6bm9uZTtzdHJva2U6IzAwNmZmZjtzdHJva2Utd2lkdGg6MC42OTk5OTk5OTtzdHJva2UtbGluZWNhcDpidXR0O3N0cm9rZS1saW5lam9pbjptaXRlcjtzdHJva2UtbWl0ZXJsaW1pdDo0O3N0cm9rZS1kYXNoYXJyYXk6MS40LCAwLjc7c3Ryb2tlLWRhc2hvZmZzZXQ6MDtzdHJva2Utb3BhY2l0eToxO21hcmtlci1lbmQ6dXJsKCNtYXJrZXI3NDk2KSIgZD0iTSAzMy4yNjU2MiwxMjkuNjk2MDcgQyA2Ny4xOTU1NDIsMTEwLjQyMDMxIDY3LjEwNDMzNCwxMTAuNDIwMzEgNjcuMTA0MzM0LDExMC40MjAzMSA2NC44MDczNSw5My4wODQ1MjMgNzQuNDg5NTU4LDg4LjA5OTkyMyA4My42NDg5MDMsODcuNjc4NDU3IDExOC4zMTQ3OSw1My42ODkyNyAxMjAuMTU0MzEsNTMuMTk2OTg0IDEyMC4xNTQzMSw1My4xOTY5ODQgYyAtMC44MTgwNSwtMTQuMzA3NDIzIDE3LjQ1ODEzLC0yNC40NjE2MzYgMjkuOTMzNzQsLTguMTM0NiA4MS41MDUwMSw5LjgxNDQ5MiA4MS44Nzg1Miw5Ljg3NTM4MyA4MS44Nzg1Miw5Ljg3NTM4MyIgaWQ9InBhdGg0NjU2IiBzb2RpcG9kaTpub2RldHlwZXM9ImNjY2NjYyIvPiYjeGE7ICAgIDxwYXRoIGlua3NjYXBlOmNvbm5lY3Rvci1jdXJ2YXR1cmU9IjAiIHN0eWxlPSJmaWxsOm5vbmU7c3Ryb2tlOiNkYTZmZmY7c3Ryb2tlLXdpZHRoOjAuNTk5MzYyMDg7c3Ryb2tlLWxpbmVjYXA6YnV0dDtzdHJva2UtbGluZWpvaW46bWl0ZXI7c3Ryb2tlLW1pdGVybGltaXQ6NDtzdHJva2UtZGFzaGFycmF5OjAuNTk5MzYyMDcsIDIuMzk3NDQ4Mjc7c3Ryb2tlLWRhc2hvZmZzZXQ6MDtzdHJva2Utb3BhY2l0eToxO21hcmtlci1zdGFydDp1cmwoI0Fycm93MkxzdGFydCk7bWFya2VyLWVuZDp1cmwoI0Fycm93MkxlbmQpIiBkPSJtIDM2LjA1NjkzMSw1MC4zMDUzNiA4My4zMzY1NzksLTcuMzA3MzM5IGMgMi4yNTk0MywtOS44NDU1NjcgMjIuMTExOTIsLTE2LjE0MjkwNCAzMC41MjA1NiwtMi42MTUzMjEgbCA4MC42MDIwNiwxMC4zODM5NzUgdiAwIiBpZD0icGF0aDgzMjgiIHNvZGlwb2RpOm5vZGV0eXBlcz0iY2NjY2MiLz4mI3hhOyAgICA8dGV4dCB0cmFuc2Zvcm09Im1hdHJpeCgwLjk5OTcxMzc4LDAsMCwxLjAwMDI4NjMsLTQ4LjE2NzI2OSwtNTMuMzQxNTA0KSIgeG1sOnNwYWNlPSJwcmVzZXJ2ZSIgc3R5bGU9ImZvbnQtc3R5bGU6bm9ybWFsO2ZvbnQtdmFyaWFudDpub3JtYWw7Zm9udC13ZWlnaHQ6bm9ybWFsO2ZvbnQtc3RyZXRjaDpub3JtYWw7Zm9udC1zaXplOjcuMzk5NThweDtsaW5lLWhlaWdodDo0LjYyNDczMDExcHg7Zm9udC1mYW1pbHk6c2Fucy1zZXJpZjstaW5rc2NhcGUtZm9udC1zcGVjaWZpY2F0aW9uOidzYW5zLXNlcmlmLCBOb3JtYWwnO2ZvbnQtdmFyaWFudC1saWdhdHVyZXM6bm9ybWFsO2ZvbnQtdmFyaWFudC1jYXBzOm5vcm1hbDtmb250LXZhcmlhbnQtbnVtZXJpYzpub3JtYWw7bGV0dGVyLXNwYWNpbmc6MHB4O3dvcmQtc3BhY2luZzowcHg7ZmlsbDojMDAwMDAwO2ZpbGwtb3BhY2l0eToxO3N0cm9rZTpub25lO3N0cm9rZS13aWR0aDowLjI2NDU4Mjk5O3N0cm9rZS1vcGFjaXR5OjE7ZmlsdGVyOnVybCgjZmlsdGVyMzI3NS00KSIgeD0iOTkuNzc2NzE4IiB5PSIxNDIuMTU4MjkiIGlkPSJ0ZXh0MjkyMi0yLTMtMi04LTMtMy01Ij48dHNwYW4gc3R5bGU9ImZvbnQtc3R5bGU6aXRhbGljO2ZvbnQtdmFyaWFudDpub3JtYWw7Zm9udC13ZWlnaHQ6bm9ybWFsO2ZvbnQtc3RyZXRjaDpub3JtYWw7Zm9udC1zaXplOjYuMTA0NjUwMDJweDtmb250LWZhbWlseTpzYW5zLXNlcmlmOy1pbmtzY2FwZS1mb250LXNwZWNpZmljYXRpb246J3NhbnMtc2VyaWYsIEl0YWxpYyc7Zm9udC12YXJpYW50LWxpZ2F0dXJlczpub3JtYWw7Zm9udC12YXJpYW50LWNhcHM6bm9ybWFsO2ZvbnQtdmFyaWFudC1udW1lcmljOm5vcm1hbDtmaWxsOiMwMDAwMDA7ZmlsbC1vcGFjaXR5OjE7c3Ryb2tlOm5vbmU7c3Ryb2tlLW9wYWNpdHk6MSIgeT0iMTQyLjE1ODI5IiB4PSI5OS43NzY3MTgiIGlkPSJ0c3BhbjI5MTUtOSIgc29kaXBvZGk6cm9sZT0ibGluZSI+ZTx0c3BhbiBpZD0idHNwYW4zMzE5IiBzdHlsZT0iZm9udC1zaXplOjY0Ljk5OTk5NzYyJTtiYXNlbGluZS1zaGlmdDpzdWIiPjE8L3RzcGFuPjwvdHNwYW4+PC90ZXh0PiYjeGE7ICAgIDx0ZXh0IGlkPSJ0ZXh0MjkyMi0yLTMtMi04LTMtMy01LTYiIHk9IjE0Mi4xNTgyOSIgeD0iOTkuNzc2NzE4IiBzdHlsZT0iZm9udC1zdHlsZTpub3JtYWw7Zm9udC12YXJpYW50Om5vcm1hbDtmb250LXdlaWdodDpub3JtYWw7Zm9udC1zdHJldGNoOm5vcm1hbDtmb250LXNpemU6Ny4zOTk1OHB4O2xpbmUtaGVpZ2h0OjQuNjI0NzMwMTFweDtmb250LWZhbWlseTpzYW5zLXNlcmlmOy1pbmtzY2FwZS1mb250LXNwZWNpZmljYXRpb246J3NhbnMtc2VyaWYsIE5vcm1hbCc7Zm9udC12YXJpYW50LWxpZ2F0dXJlczpub3JtYWw7Zm9udC12YXJpYW50LWNhcHM6bm9ybWFsO2ZvbnQtdmFyaWFudC1udW1lcmljOm5vcm1hbDtsZXR0ZXItc3BhY2luZzowcHg7d29yZC1zcGFjaW5nOjBweDtmaWxsOiMwMDAwMDA7ZmlsbC1vcGFjaXR5OjE7c3Ryb2tlOm5vbmU7c3Ryb2tlLXdpZHRoOjAuMjY0NTgyOTk7c3Ryb2tlLW9wYWNpdHk6MTtmaWx0ZXI6dXJsKCNmaWx0ZXIzMjc1LTQtMykiIHhtbDpzcGFjZT0icHJlc2VydmUiIHRyYW5zZm9ybT0ibWF0cml4KDAuOTk5NzEzNzgsMCwwLDEuMDAwMjg2MywtMjQuOTE3MTUyLC04OS40NjMxOTEpIj48dHNwYW4gc29kaXBvZGk6cm9sZT0ibGluZSIgaWQ9InRzcGFuMjkxNS05LTIiIHg9Ijk5Ljc3NjcxOCIgeT0iMTQyLjE1ODI5IiBzdHlsZT0iZm9udC1zdHlsZTppdGFsaWM7Zm9udC12YXJpYW50Om5vcm1hbDtmb250LXdlaWdodDpub3JtYWw7Zm9udC1zdHJldGNoOm5vcm1hbDtmb250LXNpemU6Ni4xMDQ2NTAwMnB4O2ZvbnQtZmFtaWx5OnNhbnMtc2VyaWY7LWlua3NjYXBlLWZvbnQtc3BlY2lmaWNhdGlvbjonc2Fucy1zZXJpZiwgSXRhbGljJztmb250LXZhcmlhbnQtbGlnYXR1cmVzOm5vcm1hbDtmb250LXZhcmlhbnQtY2Fwczpub3JtYWw7Zm9udC12YXJpYW50LW51bWVyaWM6bm9ybWFsO2ZpbGw6IzAwMDAwMDtmaWxsLW9wYWNpdHk6MTtzdHJva2U6bm9uZTtzdHJva2Utb3BhY2l0eToxIj5lPHRzcGFuIGlkPSJ0c3BhbjMzNjMiIHN0eWxlPSJmb250LXNpemU6NjQuOTk5OTk3NjIlO2Jhc2VsaW5lLXNoaWZ0OnN1YiI+MzwvdHNwYW4+PC90c3Bhbj48L3RleHQ+JiN4YTsgICAgPHRleHQgdHJhbnNmb3JtPSJtYXRyaXgoMC45OTk3MTM3OCwwLDAsMS4wMDAyODYzLDAuNzk1OTcyLC02Ny45MDE4ODYpIiB4bWw6c3BhY2U9InByZXNlcnZlIiBzdHlsZT0iZm9udC1zdHlsZTpub3JtYWw7Zm9udC12YXJpYW50Om5vcm1hbDtmb250LXdlaWdodDpub3JtYWw7Zm9udC1zdHJldGNoOm5vcm1hbDtmb250LXNpemU6Ny4zOTk1OHB4O2xpbmUtaGVpZ2h0OjQuNjI0NzMwMTFweDtmb250LWZhbWlseTpzYW5zLXNlcmlmOy1pbmtzY2FwZS1mb250LXNwZWNpZmljYXRpb246J3NhbnMtc2VyaWYsIE5vcm1hbCc7Zm9udC12YXJpYW50LWxpZ2F0dXJlczpub3JtYWw7Zm9udC12YXJpYW50LWNhcHM6bm9ybWFsO2ZvbnQtdmFyaWFudC1udW1lcmljOm5vcm1hbDtsZXR0ZXItc3BhY2luZzowcHg7d29yZC1zcGFjaW5nOjBweDtmaWxsOiMwMDAwMDA7ZmlsbC1vcGFjaXR5OjE7c3Ryb2tlOm5vbmU7c3Ryb2tlLXdpZHRoOjAuMjY0NTgyOTk7c3Ryb2tlLW9wYWNpdHk6MTtmaWx0ZXI6dXJsKCNmaWx0ZXIzMjc1LTQtMy05KSIgeD0iOTkuNzc2NzE4IiB5PSIxNDIuMTU4MjkiIGlkPSJ0ZXh0MjkyMi0yLTMtMi04LTMtMy01LTYtMCI+PHRzcGFuIHN0eWxlPSJmb250LXN0eWxlOml0YWxpYztmb250LXZhcmlhbnQ6bm9ybWFsO2ZvbnQtd2VpZ2h0Om5vcm1hbDtmb250LXN0cmV0Y2g6bm9ybWFsO2ZvbnQtc2l6ZTo2LjEwNDY1MDAycHg7Zm9udC1mYW1pbHk6c2Fucy1zZXJpZjstaW5rc2NhcGUtZm9udC1zcGVjaWZpY2F0aW9uOidzYW5zLXNlcmlmLCBJdGFsaWMnO2ZvbnQtdmFyaWFudC1saWdhdHVyZXM6bm9ybWFsO2ZvbnQtdmFyaWFudC1jYXBzOm5vcm1hbDtmb250LXZhcmlhbnQtbnVtZXJpYzpub3JtYWw7ZmlsbDojMDAwMDAwO2ZpbGwtb3BhY2l0eToxO3N0cm9rZTpub25lO3N0cm9rZS1vcGFjaXR5OjEiIHk9IjE0Mi4xNTgyOSIgeD0iOTkuNzc2NzE4IiBpZD0idHNwYW4yOTE1LTktMi00IiBzb2RpcG9kaTpyb2xlPSJsaW5lIj5lPHRzcGFuIGlkPSJ0c3BhbjM0MTMiIHN0eWxlPSJmb250LXNpemU6NjQuOTk5OTk3NjIlO2Jhc2VsaW5lLXNoaWZ0OnN1YiI+NDwvdHNwYW4+PC90c3Bhbj48L3RleHQ+JiN4YTsgICAgPHRleHQgaWQ9InRleHQyOTIyLTItMy0yLTgtMy0zLTUtNi0wLTYiIHk9IjE0Mi4xNTgyOSIgeD0iOTkuNzc2NzE4IiBzdHlsZT0iZm9udC1zdHlsZTpub3JtYWw7Zm9udC12YXJpYW50Om5vcm1hbDtmb250LXdlaWdodDpub3JtYWw7Zm9udC1zdHJldGNoOm5vcm1hbDtmb250LXNpemU6Ny4zOTk1OHB4O2xpbmUtaGVpZ2h0OjQuNjI0NzMwMTFweDtmb250LWZhbWlseTpzYW5zLXNlcmlmOy1pbmtzY2FwZS1mb250LXNwZWNpZmljYXRpb246J3NhbnMtc2VyaWYsIE5vcm1hbCc7Zm9udC12YXJpYW50LWxpZ2F0dXJlczpub3JtYWw7Zm9udC12YXJpYW50LWNhcHM6bm9ybWFsO2ZvbnQtdmFyaWFudC1udW1lcmljOm5vcm1hbDtsZXR0ZXItc3BhY2luZzowcHg7d29yZC1zcGFjaW5nOjBweDtmaWxsOiMwMDAwMDA7ZmlsbC1vcGFjaXR5OjE7c3Ryb2tlOm5vbmU7c3Ryb2tlLXdpZHRoOjAuMjY0NTgyOTk7c3Ryb2tlLW9wYWNpdHk6MTtmaWx0ZXI6dXJsKCNmaWx0ZXIzMjc1LTQtMy05LTIpIiB4bWw6c3BhY2U9InByZXNlcnZlIiB0cmFuc2Zvcm09Im1hdHJpeCgwLjk5OTcxMzc4LDAsMCwxLjAwMDI4NjMsNjEuNDI2Mjg3LC03MS4xNTI5MTcpIj48dHNwYW4gc29kaXBvZGk6cm9sZT0ibGluZSIgaWQ9InRzcGFuMjkxNS05LTItNC0xIiB4PSI5OS43NzY3MTgiIHk9IjE0Mi4xNTgyOSIgc3R5bGU9ImZvbnQtc3R5bGU6aXRhbGljO2ZvbnQtdmFyaWFudDpub3JtYWw7Zm9udC13ZWlnaHQ6bm9ybWFsO2ZvbnQtc3RyZXRjaDpub3JtYWw7Zm9udC1zaXplOjYuMTA0NjUwMDJweDtmb250LWZhbWlseTpzYW5zLXNlcmlmOy1pbmtzY2FwZS1mb250LXNwZWNpZmljYXRpb246J3NhbnMtc2VyaWYsIEl0YWxpYyc7Zm9udC12YXJpYW50LWxpZ2F0dXJlczpub3JtYWw7Zm9udC12YXJpYW50LWNhcHM6bm9ybWFsO2ZvbnQtdmFyaWFudC1udW1lcmljOm5vcm1hbDtmaWxsOiMwMDAwMDA7ZmlsbC1vcGFjaXR5OjE7c3Ryb2tlOm5vbmU7c3Ryb2tlLW9wYWNpdHk6MSI+ZTx0c3BhbiBpZD0idHNwYW4zNTEzIiBzdHlsZT0iZm9udC1zaXplOjY0Ljk5OTk5NzYyJTtiYXNlbGluZS1zaGlmdDpzdWIiPjY8L3RzcGFuPjwvdHNwYW4+PC90ZXh0PiYjeGE7ICAgIDx0ZXh0IHRyYW5zZm9ybT0ibWF0cml4KDAuOTk5NzEzNzgsMCwwLDEuMDAwMjg2MywzMi4wOTA3MzYsLTM3LjA4NzQxNCkiIHhtbDpzcGFjZT0icHJlc2VydmUiIHN0eWxlPSJmb250LXN0eWxlOm5vcm1hbDtmb250LXZhcmlhbnQ6bm9ybWFsO2ZvbnQtd2VpZ2h0Om5vcm1hbDtmb250LXN0cmV0Y2g6bm9ybWFsO2ZvbnQtc2l6ZTo3LjM5OTU4cHg7bGluZS1oZWlnaHQ6NC42MjQ3MzAxMXB4O2ZvbnQtZmFtaWx5OnNhbnMtc2VyaWY7LWlua3NjYXBlLWZvbnQtc3BlY2lmaWNhdGlvbjonc2Fucy1zZXJpZiwgTm9ybWFsJztmb250LXZhcmlhbnQtbGlnYXR1cmVzOm5vcm1hbDtmb250LXZhcmlhbnQtY2Fwczpub3JtYWw7Zm9udC12YXJpYW50LW51bWVyaWM6bm9ybWFsO2xldHRlci1zcGFjaW5nOjBweDt3b3JkLXNwYWNpbmc6MHB4O2ZpbGw6IzAwMDAwMDtmaWxsLW9wYWNpdHk6MTtzdHJva2U6bm9uZTtzdHJva2Utd2lkdGg6MC4yNjQ1ODI5OTtzdHJva2Utb3BhY2l0eToxO2ZpbHRlcjp1cmwoI2ZpbHRlcjMyNzUtNC0zLTktMi01KSIgeD0iOTkuNzc2NzE4IiB5PSIxNDIuMTU4MjkiIGlkPSJ0ZXh0MjkyMi0yLTMtMi04LTMtMy01LTYtMC02LTkiPjx0c3BhbiBzdHlsZT0iZm9udC1zdHlsZTppdGFsaWM7Zm9udC12YXJpYW50Om5vcm1hbDtmb250LXdlaWdodDpub3JtYWw7Zm9udC1zdHJldGNoOm5vcm1hbDtmb250LXNpemU6Ni4xMDQ2NTAwMnB4O2ZvbnQtZmFtaWx5OnNhbnMtc2VyaWY7LWlua3NjYXBlLWZvbnQtc3BlY2lmaWNhdGlvbjonc2Fucy1zZXJpZiwgSXRhbGljJztmb250LXZhcmlhbnQtbGlnYXR1cmVzOm5vcm1hbDtmb250LXZhcmlhbnQtY2Fwczpub3JtYWw7Zm9udC12YXJpYW50LW51bWVyaWM6bm9ybWFsO2ZpbGw6IzAwMDAwMDtmaWxsLW9wYWNpdHk6MTtzdHJva2U6bm9uZTtzdHJva2Utb3BhY2l0eToxIiB5PSIxNDIuMTU4MjkiIHg9Ijk5Ljc3NjcxOCIgaWQ9InRzcGFuMjkxNS05LTItNC0xLTAiIHNvZGlwb2RpOnJvbGU9ImxpbmUiPmU8dHNwYW4gc3R5bGU9ImZvbnQtc2l6ZTo2NC45OTk5OTc2MiU7YmFzZWxpbmUtc2hpZnQ6c3ViIiBpZD0idHNwYW4zNDYzLTkiPjU8L3RzcGFuPjwvdHNwYW4+PC90ZXh0PiYjeGE7ICAgIDx0ZXh0IHRyYW5zZm9ybT0ibWF0cml4KDAuOTk5NzEzNzgsMCwwLDEuMDAwMjg2Myw4Ni43ODQzOTMsLTg4LjM3NDI4NykiIHhtbDpzcGFjZT0icHJlc2VydmUiIHN0eWxlPSJmb250LXN0eWxlOm5vcm1hbDtmb250LXZhcmlhbnQ6bm9ybWFsO2ZvbnQtd2VpZ2h0Om5vcm1hbDtmb250LXN0cmV0Y2g6bm9ybWFsO2ZvbnQtc2l6ZTo3LjM5OTU4cHg7bGluZS1oZWlnaHQ6NC42MjQ3MzAxMXB4O2ZvbnQtZmFtaWx5OnNhbnMtc2VyaWY7LWlua3NjYXBlLWZvbnQtc3BlY2lmaWNhdGlvbjonc2Fucy1zZXJpZiwgTm9ybWFsJztmb250LXZhcmlhbnQtbGlnYXR1cmVzOm5vcm1hbDtmb250LXZhcmlhbnQtY2Fwczpub3JtYWw7Zm9udC12YXJpYW50LW51bWVyaWM6bm9ybWFsO2xldHRlci1zcGFjaW5nOjBweDt3b3JkLXNwYWNpbmc6MHB4O2ZpbGw6IzAwMDAwMDtmaWxsLW9wYWNpdHk6MTtzdHJva2U6bm9uZTtzdHJva2Utd2lkdGg6MC4yNjQ1ODI5OTtzdHJva2Utb3BhY2l0eToxO2ZpbHRlcjp1cmwoI2ZpbHRlcjMyNzUtNC0zLTktMi03KSIgeD0iOTkuNzc2NzE4IiB5PSIxNDIuMTU4MjkiIGlkPSJ0ZXh0MjkyMi0yLTMtMi04LTMtMy01LTYtMC02LTAiPjx0c3BhbiBzdHlsZT0iZm9udC1zdHlsZTppdGFsaWM7Zm9udC12YXJpYW50Om5vcm1hbDtmb250LXdlaWdodDpub3JtYWw7Zm9udC1zdHJldGNoOm5vcm1hbDtmb250LXNpemU6Ni4xMDQ2NTAwMnB4O2ZvbnQtZmFtaWx5OnNhbnMtc2VyaWY7LWlua3NjYXBlLWZvbnQtc3BlY2lmaWNhdGlvbjonc2Fucy1zZXJpZiwgSXRhbGljJztmb250LXZhcmlhbnQtbGlnYXR1cmVzOm5vcm1hbDtmb250LXZhcmlhbnQtY2Fwczpub3JtYWw7Zm9udC12YXJpYW50LW51bWVyaWM6bm9ybWFsO2ZpbGw6IzAwMDAwMDtmaWxsLW9wYWNpdHk6MTtzdHJva2U6bm9uZTtzdHJva2Utb3BhY2l0eToxIiB5PSIxNDIuMTU4MjkiIHg9Ijk5Ljc3NjcxOCIgaWQ9InRzcGFuMjkxNS05LTItNC0xLTciIHNvZGlwb2RpOnJvbGU9ImxpbmUiPmU8dHNwYW4gaWQ9InRzcGFuMzU1NyIgc3R5bGU9ImZvbnQtc2l6ZTo2NC45OTk5OTc2MiU7YmFzZWxpbmUtc2hpZnQ6c3ViIj43PC90c3Bhbj48L3RzcGFuPjwvdGV4dD4mI3hhOyAgICA8dGV4dCBpZD0idGV4dDI5MjItMi0zLTItOC0zLTMtNS02LTAtNi0wLTUiIHk9IjE0Mi4xNTgyOSIgeD0iOTkuNzc2NzE4IiBzdHlsZT0iZm9udC1zdHlsZTpub3JtYWw7Zm9udC12YXJpYW50Om5vcm1hbDtmb250LXdlaWdodDpub3JtYWw7Zm9udC1zdHJldGNoOm5vcm1hbDtmb250LXNpemU6Ny4zOTk1OHB4O2xpbmUtaGVpZ2h0OjQuNjI0NzMwMTFweDtmb250LWZhbWlseTpzYW5zLXNlcmlmOy1pbmtzY2FwZS1mb250LXNwZWNpZmljYXRpb246J3NhbnMtc2VyaWYsIE5vcm1hbCc7Zm9udC12YXJpYW50LWxpZ2F0dXJlczpub3JtYWw7Zm9udC12YXJpYW50LWNhcHM6bm9ybWFsO2ZvbnQtdmFyaWFudC1udW1lcmljOm5vcm1hbDtsZXR0ZXItc3BhY2luZzowcHg7d29yZC1zcGFjaW5nOjBweDtmaWxsOiMwMDAwMDA7ZmlsbC1vcGFjaXR5OjE7c3Ryb2tlOm5vbmU7c3Ryb2tlLXdpZHRoOjAuMjY0NTgyOTk7c3Ryb2tlLW9wYWNpdHk6MTtmaWx0ZXI6dXJsKCNmaWx0ZXIzMjc1LTQtMy05LTItNy01KSIgeG1sOnNwYWNlPSJwcmVzZXJ2ZSIgdHJhbnNmb3JtPSJtYXRyaXgoMC45OTk3MTM3OCwwLDAsMS4wMDAyODYzLDExNi40NjA5MywtMTYuNzM2MTA3KSI+PHRzcGFuIHNvZGlwb2RpOnJvbGU9ImxpbmUiIGlkPSJ0c3BhbjI5MTUtOS0yLTQtMS03LTMiIHg9Ijk5Ljc3NjcxOCIgeT0iMTQyLjE1ODI5IiBzdHlsZT0iZm9udC1zdHlsZTppdGFsaWM7Zm9udC12YXJpYW50Om5vcm1hbDtmb250LXdlaWdodDpub3JtYWw7Zm9udC1zdHJldGNoOm5vcm1hbDtmb250LXNpemU6Ni4xMDQ2NTAwMnB4O2ZvbnQtZmFtaWx5OnNhbnMtc2VyaWY7LWlua3NjYXBlLWZvbnQtc3BlY2lmaWNhdGlvbjonc2Fucy1zZXJpZiwgSXRhbGljJztmb250LXZhcmlhbnQtbGlnYXR1cmVzOm5vcm1hbDtmb250LXZhcmlhbnQtY2Fwczpub3JtYWw7Zm9udC12YXJpYW50LW51bWVyaWM6bm9ybWFsO2ZpbGw6IzAwMDAwMDtmaWxsLW9wYWNpdHk6MTtzdHJva2U6bm9uZTtzdHJva2Utb3BhY2l0eToxIj5lPHRzcGFuIGlkPSJ0c3BhbjM2MDEiIHN0eWxlPSJmb250LXNpemU6NjQuOTk5OTk3NjIlO2Jhc2VsaW5lLXNoaWZ0OnN1YiI+OTwvdHNwYW4+PC90c3Bhbj48L3RleHQ+JiN4YTsgICAgPHRleHQgdHJhbnNmb3JtPSJtYXRyaXgoMC45OTk3MTM3OCwwLDAsMS4wMDAyODYzLDExNC45MTQyNSwtNTQuOTcyMjYxKSIgeG1sOnNwYWNlPSJwcmVzZXJ2ZSIgc3R5bGU9ImZvbnQtc3R5bGU6bm9ybWFsO2ZvbnQtdmFyaWFudDpub3JtYWw7Zm9udC13ZWlnaHQ6bm9ybWFsO2ZvbnQtc3RyZXRjaDpub3JtYWw7Zm9udC1zaXplOjcuMzk5NThweDtsaW5lLWhlaWdodDo0LjYyNDczMDExcHg7Zm9udC1mYW1pbHk6c2Fucy1zZXJpZjstaW5rc2NhcGUtZm9udC1zcGVjaWZpY2F0aW9uOidzYW5zLXNlcmlmLCBOb3JtYWwnO2ZvbnQtdmFyaWFudC1saWdhdHVyZXM6bm9ybWFsO2ZvbnQtdmFyaWFudC1jYXBzOm5vcm1hbDtmb250LXZhcmlhbnQtbnVtZXJpYzpub3JtYWw7bGV0dGVyLXNwYWNpbmc6MHB4O3dvcmQtc3BhY2luZzowcHg7ZmlsbDojMDAwMDAwO2ZpbGwtb3BhY2l0eToxO3N0cm9rZTpub25lO3N0cm9rZS13aWR0aDowLjI2NDU4Mjk5O3N0cm9rZS1vcGFjaXR5OjE7ZmlsdGVyOnVybCgjZmlsdGVyMzI3NS00LTMtOS0yLTctNS02KSIgeD0iOTkuNzc2NzE4IiB5PSIxNDIuMTU4MjkiIGlkPSJ0ZXh0MjkyMi0yLTMtMi04LTMtMy01LTYtMC02LTAtNS04Ij48dHNwYW4gc3R5bGU9ImZvbnQtc3R5bGU6aXRhbGljO2ZvbnQtdmFyaWFudDpub3JtYWw7Zm9udC13ZWlnaHQ6bm9ybWFsO2ZvbnQtc3RyZXRjaDpub3JtYWw7Zm9udC1zaXplOjYuMTA0NjUwMDJweDtmb250LWZhbWlseTpzYW5zLXNlcmlmOy1pbmtzY2FwZS1mb250LXNwZWNpZmljYXRpb246J3NhbnMtc2VyaWYsIEl0YWxpYyc7Zm9udC12YXJpYW50LWxpZ2F0dXJlczpub3JtYWw7Zm9udC12YXJpYW50LWNhcHM6bm9ybWFsO2ZvbnQtdmFyaWFudC1udW1lcmljOm5vcm1hbDtmaWxsOiMwMDAwMDA7ZmlsbC1vcGFjaXR5OjE7c3Ryb2tlOm5vbmU7c3Ryb2tlLW9wYWNpdHk6MSIgeT0iMTQyLjE1ODI5IiB4PSI5OS43NzY3MTgiIGlkPSJ0c3BhbjI5MTUtOS0yLTQtMS03LTMtOCIgc29kaXBvZGk6cm9sZT0ibGluZSI+ZTx0c3BhbiBpZD0idHNwYW4zNjQ1IiBzdHlsZT0iZm9udC1zaXplOjY0Ljk5OTk5NzYyJTtiYXNlbGluZS1zaGlmdDpzdWIiPjg8L3RzcGFuPjwvdHNwYW4+PC90ZXh0PiYjeGE7ICAgIDxyZWN0IHJ5PSIxLjAyODk4ODQiIHJ4PSIxLjAyODk4ODQiIHk9IjUyLjkxNjU5OSIgeD0iMjAuNDQyNjE5IiBoZWlnaHQ9IjIuNDMzODY0OCIgd2lkdGg9IjIuNjA3NDgxNyIgaWQ9InJlY3Q3Mjk0LTMiIHN0eWxlPSJmaWxsOiMwMDgyMDA7ZmlsbC1vcGFjaXR5OjE7c3Ryb2tlOiMwMDgyMDA7c3Ryb2tlLXdpZHRoOjAuNDk5OTk5MDI7c3Ryb2tlLWxpbmVjYXA6c3F1YXJlO3N0cm9rZS1taXRlcmxpbWl0OjQ7c3Ryb2tlLWRhc2hhcnJheTpub25lO3N0cm9rZS1vcGFjaXR5OjE7cGFpbnQtb3JkZXI6c3Ryb2tlIGZpbGwgbWFya2VycyIvPiYjeGE7ICAgIDxyZWN0IHJ5PSIxLjAyODk4ODQiIHJ4PSIxLjAyODk4ODQiIHk9IjQ3LjQwODAxMiIgeD0iMjM1LjAyNTU0IiBoZWlnaHQ9IjI4LjQxNzE5MSIgd2lkdGg9IjI4LjQwMDkyNyIgaWQ9InJlY3QyODI0LTYtMi02IiBzdHlsZT0ib3BhY2l0eTowLjgwOTQ0Mzk5O2ZpbGw6bm9uZTtmaWxsLW9wYWNpdHk6MTtzdHJva2U6IzAwMDAwMDtzdHJva2Utd2lkdGg6MTtzdHJva2UtbGluZWNhcDpzcXVhcmU7c3Ryb2tlLW1pdGVybGltaXQ6NDtzdHJva2UtZGFzaGFycmF5Om5vbmU7c3Ryb2tlLW9wYWNpdHk6MTtwYWludC1vcmRlcjpzdHJva2UgZmlsbCBtYXJrZXJzIi8+JiN4YTsgICAgPHJlY3Qgcnk9IjEuMDI4OTg4NCIgcng9IjEuMDI4OTg4NCIgeT0iNDcuMDcyNjk3IiB4PSI1LjE1NjQwOTMiIGhlaWdodD0iMjguNDE3MTkxIiB3aWR0aD0iMjguNDAwOTI3IiBpZD0icmVjdDI4MjQtNi0yLTYtNyIgc3R5bGU9Im9wYWNpdHk6MC44MDk0NDM5OTtmaWxsOm5vbmU7ZmlsbC1vcGFjaXR5OjE7c3Ryb2tlOiMwMDAwMDA7c3Ryb2tlLXdpZHRoOjE7c3Ryb2tlLWxpbmVjYXA6c3F1YXJlO3N0cm9rZS1taXRlcmxpbWl0OjQ7c3Ryb2tlLWRhc2hhcnJheTpub25lO3N0cm9rZS1vcGFjaXR5OjE7cGFpbnQtb3JkZXI6c3Ryb2tlIGZpbGwgbWFya2VycyIvPiYjeGE7ICAgIDx0ZXh0IHN0eWxlPSJmb250LXNpemU6MTAuNTgzMjk5NjRweDtsaW5lLWhlaWdodDoxLjYxMTQ2OTk4cHg7Zm9udC1mYW1pbHk6c2Fucy1zZXJpZjtsZXR0ZXItc3BhY2luZzowcHg7d29yZC1zcGFjaW5nOjBweDt3aGl0ZS1zcGFjZTpwcmU7c2hhcGUtaW5zaWRlOnVybCgjcmVjdDY0OS0xLTMpO2ZpbGw6IzAwNmMwMjtmaWxsLW9wYWNpdHk6MTtzdHJva2U6bm9uZTtzdHJva2Utd2lkdGg6MTtzdHJva2UtbWl0ZXJsaW1pdDo0O3N0cm9rZS1kYXNoYXJyYXk6bm9uZTtzdHJva2Utb3BhY2l0eTowLjc3OTk5OTk4IiBpZD0idGV4dDY0Ny0yLTMtNS05IiB4bWw6c3BhY2U9InByZXNlcnZlIiB4PSItMzAuNTYzNjg2IiB5PSI2LjA0MzEyMTMiPjx0c3BhbiBpZD0idHNwYW4yODEyNC0zLTEiIHk9IjEzOS4wNzUyOSIgeD0iOTIuNjMzNjE0IiBzdHlsZT0iZm9udC1zaXplOjQuOTM4ODg5MDNweDtmaWxsOiMwMDAwMDA7ZmlsbC1vcGFjaXR5OjAuNDcwNTg4MjQ7c3Ryb2tlLXdpZHRoOjEiPkxlZ2VuZCBTZXJ2aWNlIEZsb3dzOjwvdHNwYW4+PC90ZXh0PiYjeGE7ICAgIDx0ZXh0IHN0eWxlPSJmb250LXNpemU6MTAuNTgzMjk5NjRweDtsaW5lLWhlaWdodDoxLjYxMTQ2OTk4cHg7Zm9udC1mYW1pbHk6c2Fucy1zZXJpZjtsZXR0ZXItc3BhY2luZzowcHg7d29yZC1zcGFjaW5nOjBweDt3aGl0ZS1zcGFjZTpwcmU7c2hhcGUtaW5zaWRlOnVybCgjcmVjdDY0OS0xLTMpO2ZpbGw6IzAwNmMwMjtmaWxsLW9wYWNpdHk6MTtzdHJva2U6bm9uZTtzdHJva2Utd2lkdGg6MTtzdHJva2UtbWl0ZXJsaW1pdDo0O3N0cm9rZS1kYXNoYXJyYXk6bm9uZTtzdHJva2Utb3BhY2l0eTowLjc3OTk5OTk4IiBpZD0idGV4dDY0Ny0yLTMtNSIgeG1sOnNwYWNlPSJwcmVzZXJ2ZSIgeD0iLTMwLjIzMzU0NSIgeT0iMTMuMDM3NzIiPjx0c3BhbiBpZD0idHNwYW4yODEyNC0zIiB5PSIxNDYuMDY5OSIgeD0iOTIuOTYzNzgzIiBzdHlsZT0iZmlsbDojMDA2YzAyO2ZpbGwtb3BhY2l0eToxO3N0cm9rZS13aWR0aDoxIj48dHNwYW4gaWQ9InRzcGFuMjgxMTgtNSIgc3R5bGU9ImZvbnQtc3R5bGU6aXRhbGljO2ZvbnQtc2l6ZTo0LjkzODg5MDQ2cHg7LWlua3NjYXBlLWZvbnQtc3BlY2lmaWNhdGlvbjonc2Fucy1zZXJpZiwgSXRhbGljJztmaWxsOiMwMDZjMDI7ZmlsbC1vcGFjaXR5OjE7c3Ryb2tlLXdpZHRoOjEiPkY8L3RzcGFuPjx0c3BhbiBpZD0idHNwYW4yODEyMC02IiBzdHlsZT0iZm9udC1zdHlsZTppdGFsaWM7Zm9udC1zaXplOjQuOTM4ODkwNDZweDstaW5rc2NhcGUtZm9udC1zcGVjaWZpY2F0aW9uOidzYW5zLXNlcmlmLCBJdGFsaWMnO2Jhc2VsaW5lLXNoaWZ0OnN1YjtmaWxsOiMwMDZjMDI7ZmlsbC1vcGFjaXR5OjE7c3Ryb2tlLXdpZHRoOjEiPjE8L3RzcGFuPjx0c3BhbiBpZD0idHNwYW4yODEyMi0yIiBzdHlsZT0iZm9udC1zdHlsZTppdGFsaWM7Zm9udC1zaXplOjQuOTM4ODkwNDZweDstaW5rc2NhcGUtZm9udC1zcGVjaWZpY2F0aW9uOidzYW5zLXNlcmlmLCBJdGFsaWMnO2ZpbGw6IzAwNmMwMjtmaWxsLW9wYWNpdHk6MTtzdHJva2Utd2lkdGg6MSI+OjwvdHNwYW4+PC90c3Bhbj48L3RleHQ+JiN4YTsgICAgPHRleHQgeG1sOnNwYWNlPSJwcmVzZXJ2ZSIgaWQ9InRleHQ2NDctMi0zLTQtNiIgc3R5bGU9ImZvbnQtc2l6ZToxMC41ODMyOTk2NHB4O2xpbmUtaGVpZ2h0OjEuNjExNDY5OThweDtmb250LWZhbWlseTpzYW5zLXNlcmlmO2xldHRlci1zcGFjaW5nOjBweDt3b3JkLXNwYWNpbmc6MHB4O3doaXRlLXNwYWNlOnByZTtzaGFwZS1pbnNpZGU6dXJsKCNyZWN0NjQ5LTEtMy04KTtmaWxsOiMwMDZjMDI7ZmlsbC1vcGFjaXR5OjE7c3Ryb2tlOm5vbmU7c3Ryb2tlLXdpZHRoOjE7c3Ryb2tlLW1pdGVybGltaXQ6NDtzdHJva2UtZGFzaGFycmF5Om5vbmU7c3Ryb2tlLW9wYWNpdHk6MC43Nzk5OTk5OCIgeD0iLTE5Ljg5MjUwOSIgeT0iMTMuODE3MDUxIj48dHNwYW4gaWQ9InRzcGFuMjgxNTAtMiIgeT0iMTQ2Ljg0OTIzIiB4PSIxMDMuMzA0NzYiIHN0eWxlPSJmb250LXNpemU6NC45Mzg4OTA0NnB4Oy1pbmtzY2FwZS1mb250LXNwZWNpZmljYXRpb246J3NhbnMtc2VyaWYsIE5vcm1hbCc7ZmlsbDojMDA2YzAyO2ZpbGwtb3BhY2l0eToxO3N0cm9rZS13aWR0aDoxIj5DVTx0c3BhbiBzdHlsZT0iZm9udC1zaXplOjQuOTM4ODg5MDNweDtiYXNlbGluZS1zaGlmdDpzdWI7ZmlsbDojMDA2YzAyO2ZpbGwtb3BhY2l0eToxIiBpZD0idHNwYW41OTMzIj40PC90c3Bhbj4gICAgICAgQ1U8dHNwYW4gc3R5bGU9ImZvbnQtc2l6ZTo0LjkzODg4OTAzcHg7YmFzZWxpbmUtc2hpZnQ6c3ViO2ZpbGw6IzAwNmMwMjtmaWxsLW9wYWNpdHk6MSIgaWQ9InRzcGFuNTkzNyI+MjwvdHNwYW4+IOKJoTwvdHNwYW4+PC90ZXh0PiYjeGE7ICAgIDxwYXRoIGlua3NjYXBlOmNvbm5lY3Rvci1jdXJ2YXR1cmU9IjAiIHN0eWxlPSJmaWxsOiMwMDZjMDI7ZmlsbC1vcGFjaXR5OjE7c3Ryb2tlOiMwMDZjMDI7c3Ryb2tlLXdpZHRoOjAuMjU7c3Ryb2tlLWxpbmVjYXA6YnV0dDtzdHJva2UtbGluZWpvaW46bWl0ZXI7c3Ryb2tlLW1pdGVybGltaXQ6NDtzdHJva2UtZGFzaGFycmF5Om5vbmU7c3Ryb2tlLW9wYWNpdHk6MTttYXJrZXItZW5kOnVybCgjQXJyb3cxTGVuZC04LTk2LTktNS05MikiIGQ9Im0gMTE0LjA3MDM0LDE0NS4yOTE2NCBoIDguMTUxMjQiIGlkPSJwYXRoNjY0OC0yLTctNC0yIi8+JiN4YTsgICAgPHRleHQgeG1sOnNwYWNlPSJwcmVzZXJ2ZSIgaWQ9InRleHQ2NDctMi0zLTQtMyIgc3R5bGU9ImZvbnQtc2l6ZToxMC41ODMyOTk2NHB4O2xpbmUtaGVpZ2h0OjEuNjExNDY5OThweDtmb250LWZhbWlseTpzYW5zLXNlcmlmO2xldHRlci1zcGFjaW5nOjBweDt3b3JkLXNwYWNpbmc6MHB4O3doaXRlLXNwYWNlOnByZTtzaGFwZS1pbnNpZGU6dXJsKCNyZWN0NjQ5LTEtMy04KTtmaWxsOiMwMDZjMDI7ZmlsbC1vcGFjaXR5OjE7c3Ryb2tlOm5vbmU7c3Ryb2tlLXdpZHRoOjE7c3Ryb2tlLW1pdGVybGltaXQ6NDtzdHJva2UtZGFzaGFycmF5Om5vbmU7c3Ryb2tlLW9wYWNpdHk6MC43Nzk5OTk5OCIgeD0iMTguNzAyNTA1IiB5PSIxMy4wNzc3OTEiPjx0c3BhbiBpZD0idHNwYW4yODE1MC03IiB5PSIxNDYuMTA5OTciIHg9IjE0MS44OTk2MyIgc3R5bGU9ImZpbGw6IzAwNmMwMjtmaWxsLW9wYWNpdHk6MTtzdHJva2Utd2lkdGg6MSI+PHRzcGFuIGlkPSJ0c3BhbjI4MTQyLTUiIHN0eWxlPSJmb250LXNpemU6NC45Mzg4OTA0NnB4Oy1pbmtzY2FwZS1mb250LXNwZWNpZmljYXRpb246J3NhbnMtc2VyaWYsIE5vcm1hbCc7ZmlsbDojMDA2YzAyO2ZpbGwtb3BhY2l0eToxO3N0cm9rZS13aWR0aDoxIj5TPC90c3Bhbj48dHNwYW4gaWQ9InRzcGFuMjgxNDQtOSIgc3R5bGU9ImZvbnQtc2l6ZTo0LjkzODg5MDQ2cHg7LWlua3NjYXBlLWZvbnQtc3BlY2lmaWNhdGlvbjonc2Fucy1zZXJpZiwgTm9ybWFsJztiYXNlbGluZS1zaGlmdDpzdWI7ZmlsbDojMDA2YzAyO2ZpbGwtb3BhY2l0eToxO3N0cm9rZS13aWR0aDoxIj5JLDQ8L3RzcGFuPjx0c3BhbiBpZD0idHNwYW4yODE0Ni0yIiBzdHlsZT0iZm9udC1zaXplOjQuOTM4ODkwNDZweDstaW5rc2NhcGUtZm9udC1zcGVjaWZpY2F0aW9uOidzYW5zLXNlcmlmLCBOb3JtYWwnO2ZpbGw6IzAwNmMwMjtmaWxsLW9wYWNpdHk6MTtzdHJva2Utd2lkdGg6MSI+ICAgICAgICBTPC90c3Bhbj48dHNwYW4gaWQ9InRzcGFuMjgxNDgtMiIgc3R5bGU9ImZvbnQtc2l6ZTo0LjkzODg5MDQ2cHg7LWlua3NjYXBlLWZvbnQtc3BlY2lmaWNhdGlvbjonc2Fucy1zZXJpZiwgTm9ybWFsJztiYXNlbGluZS1zaGlmdDpzdWI7ZmlsbDojMDA2YzAyO2ZpbGwtb3BhY2l0eToxO3N0cm9rZS13aWR0aDoxIj5DLDI8L3RzcGFuPjwvdHNwYW4+PC90ZXh0PiYjeGE7ICAgIDxwYXRoIGlua3NjYXBlOmNvbm5lY3Rvci1jdXJ2YXR1cmU9IjAiIHN0eWxlPSJmaWxsOiMwMDZjMDI7ZmlsbC1vcGFjaXR5OjE7c3Ryb2tlOiMwMDZjMDI7c3Ryb2tlLXdpZHRoOjAuMjU7c3Ryb2tlLWxpbmVjYXA6YnV0dDtzdHJva2UtbGluZWpvaW46bWl0ZXI7c3Ryb2tlLW1pdGVybGltaXQ6NDtzdHJva2UtZGFzaGFycmF5Om5vbmU7c3Ryb2tlLW9wYWNpdHk6MTttYXJrZXItZW5kOnVybCgjQXJyb3cxTGVuZC04LTk2LTktNS04KSIgZD0ibSAxNTQuMjYwOTMsMTQ1LjI5MTY0IGggOC4xNTEyNCIgaWQ9InBhdGg2NjQ4LTItNy00LTciLz4mI3hhOyAgICA8dGV4dCBzdHlsZT0iZm9udC1zaXplOjEwLjU4MzI5OTY0cHg7bGluZS1oZWlnaHQ6MS42MTE0Njk5OHB4O2ZvbnQtZmFtaWx5OnNhbnMtc2VyaWY7bGV0dGVyLXNwYWNpbmc6MHB4O3dvcmQtc3BhY2luZzowcHg7d2hpdGUtc3BhY2U6cHJlO3NoYXBlLWluc2lkZTp1cmwoI3JlY3Q2NDktMS0zKTtmaWxsOiMwMDZjMDI7ZmlsbC1vcGFjaXR5OjE7c3Ryb2tlOm5vbmU7c3Ryb2tlLXdpZHRoOjE7c3Ryb2tlLW1pdGVybGltaXQ6NDtzdHJva2UtZGFzaGFycmF5Om5vbmU7c3Ryb2tlLW9wYWNpdHk6MC43Nzk5OTk5OCIgaWQ9InRleHQ2NDctMi0zLTUtMyIgeG1sOnNwYWNlPSJwcmVzZXJ2ZSIgeD0iLTMwLjIxMTcyOSIgeT0iMjAuMzI4MjU3Ij48dHNwYW4gaWQ9InRzcGFuMjgxMjQtMy0xOSIgeT0iMTUzLjM2MDQ0IiB4PSI5Mi45ODU2MDMiIHN0eWxlPSJmaWxsOiMwMDZmZmY7ZmlsbC1vcGFjaXR5OjE7c3Ryb2tlLXdpZHRoOjEiPjx0c3BhbiBpZD0idHNwYW4yODExOC01LTQiIHN0eWxlPSJmb250LXN0eWxlOml0YWxpYztmb250LXNpemU6NC45Mzg4OTA0NnB4Oy1pbmtzY2FwZS1mb250LXNwZWNpZmljYXRpb246J3NhbnMtc2VyaWYsIEl0YWxpYyc7ZmlsbDojMDA2ZmZmO2ZpbGwtb3BhY2l0eToxO3N0cm9rZS13aWR0aDoxIj5GPC90c3Bhbj48dHNwYW4gaWQ9InRzcGFuMjgxMjAtNi03IiBzdHlsZT0iZm9udC1zdHlsZTppdGFsaWM7Zm9udC1zaXplOjQuOTM4ODkwNDZweDstaW5rc2NhcGUtZm9udC1zcGVjaWZpY2F0aW9uOidzYW5zLXNlcmlmLCBJdGFsaWMnO2Jhc2VsaW5lLXNoaWZ0OnN1YjtmaWxsOiMwMDZmZmY7ZmlsbC1vcGFjaXR5OjE7c3Ryb2tlLXdpZHRoOjEiPjI8L3RzcGFuPjx0c3BhbiBpZD0idHNwYW4yODEyMi0yLTgiIHN0eWxlPSJmb250LXN0eWxlOml0YWxpYztmb250LXNpemU6NC45Mzg4OTA0NnB4Oy1pbmtzY2FwZS1mb250LXNwZWNpZmljYXRpb246J3NhbnMtc2VyaWYsIEl0YWxpYyc7ZmlsbDojMDA2ZmZmO2ZpbGwtb3BhY2l0eToxO3N0cm9rZS13aWR0aDoxIj46PC90c3Bhbj48L3RzcGFuPjwvdGV4dD4mI3hhOyAgICA8dGV4dCB4bWw6c3BhY2U9InByZXNlcnZlIiBpZD0idGV4dDY0Ny0yLTMtNC02LTQiIHN0eWxlPSJmb250LXNpemU6MTAuNTgzMjk5NjRweDtsaW5lLWhlaWdodDoxLjYxMTQ2OTk4cHg7Zm9udC1mYW1pbHk6c2Fucy1zZXJpZjtsZXR0ZXItc3BhY2luZzowcHg7d29yZC1zcGFjaW5nOjBweDt3aGl0ZS1zcGFjZTpwcmU7c2hhcGUtaW5zaWRlOnVybCgjcmVjdDY0OS0xLTMtOCk7ZmlsbDojMDA2YzAyO2ZpbGwtb3BhY2l0eToxO3N0cm9rZTpub25lO3N0cm9rZS13aWR0aDoxO3N0cm9rZS1taXRlcmxpbWl0OjQ7c3Ryb2tlLWRhc2hhcnJheTpub25lO3N0cm9rZS1vcGFjaXR5OjAuNzc5OTk5OTgiIHg9Ii0xOS44NzA2OTMiIHk9IjIxLjEwNzU4OCI+PHRzcGFuIGlkPSJ0c3BhbjI4MTUwLTItNSIgeT0iMTU0LjEzOTc3IiB4PSIxMDMuMzI2NTYiIHN0eWxlPSJmb250LXNpemU6NC45Mzg4OTA0NnB4Oy1pbmtzY2FwZS1mb250LXNwZWNpZmljYXRpb246J3NhbnMtc2VyaWYsIE5vcm1hbCc7ZmlsbDojMDA2ZmZmO2ZpbGwtb3BhY2l0eToxO3N0cm9rZS13aWR0aDoxIj5DVTx0c3BhbiBzdHlsZT0iZm9udC1zaXplOjQuOTM4ODg5MDNweDtiYXNlbGluZS1zaGlmdDpzdWI7ZmlsbDojMDA2ZmZmO2ZpbGwtb3BhY2l0eToxIiBpZD0idHNwYW41OTMzLTMiPjI8L3RzcGFuPiAgICAgICBDVTx0c3BhbiBzdHlsZT0iZm9udC1zaXplOjQuOTM4ODg5MDNweDtiYXNlbGluZS1zaGlmdDpzdWI7ZmlsbDojMDA2ZmZmO2ZpbGwtb3BhY2l0eToxIiBpZD0idHNwYW41OTM3LTYiPjM8L3RzcGFuPiDiiaE8L3RzcGFuPjwvdGV4dD4mI3hhOyAgICA8cGF0aCBpbmtzY2FwZTpjb25uZWN0b3ItY3VydmF0dXJlPSIwIiBzdHlsZT0iZmlsbDojMDA2ZmZmO2ZpbGwtb3BhY2l0eToxO3N0cm9rZTojMDA2ZmZmO3N0cm9rZS13aWR0aDowLjI1O3N0cm9rZS1saW5lY2FwOmJ1dHQ7c3Ryb2tlLWxpbmVqb2luOm1pdGVyO3N0cm9rZS1taXRlcmxpbWl0OjQ7c3Ryb2tlLWRhc2hhcnJheTpub25lO3N0cm9rZS1vcGFjaXR5OjE7bWFya2VyLWVuZDp1cmwoI0Fycm93MUxlbmQtOC05Ni05LTUtOTItMykiIGQ9Im0gMTE0LjA5MjE2LDE1Mi41ODIxOCBoIDguMTUxMjQiIGlkPSJwYXRoNjY0OC0yLTctNC0yLTAiLz4mI3hhOyAgICA8dGV4dCB4bWw6c3BhY2U9InByZXNlcnZlIiBpZD0idGV4dDY0Ny0yLTMtNC0zLTYiIHN0eWxlPSJmb250LXNpemU6MTAuNTgzMjk5NjRweDtsaW5lLWhlaWdodDoxLjYxMTQ2OTk4cHg7Zm9udC1mYW1pbHk6c2Fucy1zZXJpZjtsZXR0ZXItc3BhY2luZzowcHg7d29yZC1zcGFjaW5nOjBweDt3aGl0ZS1zcGFjZTpwcmU7c2hhcGUtaW5zaWRlOnVybCgjcmVjdDY0OS0xLTMtOCk7ZmlsbDojMDA2YzAyO2ZpbGwtb3BhY2l0eToxO3N0cm9rZTpub25lO3N0cm9rZS13aWR0aDoxO3N0cm9rZS1taXRlcmxpbWl0OjQ7c3Ryb2tlLWRhc2hhcnJheTpub25lO3N0cm9rZS1vcGFjaXR5OjAuNzc5OTk5OTgiIHg9IjE4LjcyNDMyMyIgeT0iMjAuMzY4MzI4Ij48dHNwYW4gaWQ9InRzcGFuMjgxNTAtNy0zIiB5PSIxNTMuNDAwNTEiIHg9IjE0MS45MjE0NSIgc3R5bGU9ImZpbGw6IzAwNmZmZjtmaWxsLW9wYWNpdHk6MTtzdHJva2Utd2lkdGg6MSI+PHRzcGFuIGlkPSJ0c3BhbjI4MTQyLTUtMiIgc3R5bGU9ImZvbnQtc2l6ZTo0LjkzODg5MDQ2cHg7LWlua3NjYXBlLWZvbnQtc3BlY2lmaWNhdGlvbjonc2Fucy1zZXJpZiwgTm9ybWFsJztmaWxsOiMwMDZmZmY7ZmlsbC1vcGFjaXR5OjE7c3Ryb2tlLXdpZHRoOjEiPlM8L3RzcGFuPjx0c3BhbiBpZD0idHNwYW4yODE0NC05LTAiIHN0eWxlPSJmb250LXNpemU6NC45Mzg4OTA0NnB4Oy1pbmtzY2FwZS1mb250LXNwZWNpZmljYXRpb246J3NhbnMtc2VyaWYsIE5vcm1hbCc7YmFzZWxpbmUtc2hpZnQ6c3ViO2ZpbGw6IzAwNmZmZjtmaWxsLW9wYWNpdHk6MTtzdHJva2Utd2lkdGg6MSI+QywyPC90c3Bhbj48dHNwYW4gaWQ9InRzcGFuMjgxNDYtMi02IiBzdHlsZT0iZm9udC1zaXplOjQuOTM4ODkwNDZweDstaW5rc2NhcGUtZm9udC1zcGVjaWZpY2F0aW9uOidzYW5zLXNlcmlmLCBOb3JtYWwnO2ZpbGw6IzAwNmZmZjtmaWxsLW9wYWNpdHk6MTtzdHJva2Utd2lkdGg6MSI+ICAgICAgIFM8L3RzcGFuPjx0c3BhbiBpZD0idHNwYW4yODE0OC0yLTEiIHN0eWxlPSJmb250LXNpemU6NC45Mzg4OTA0NnB4Oy1pbmtzY2FwZS1mb250LXNwZWNpZmljYXRpb246J3NhbnMtc2VyaWYsIE5vcm1hbCc7YmFzZWxpbmUtc2hpZnQ6c3ViO2ZpbGw6IzAwNmZmZjtmaWxsLW9wYWNpdHk6MTtzdHJva2Utd2lkdGg6MSI+TywzPC90c3Bhbj48L3RzcGFuPjwvdGV4dD4mI3hhOyAgICA8cGF0aCBpbmtzY2FwZTpjb25uZWN0b3ItY3VydmF0dXJlPSIwIiBzdHlsZT0iZmlsbDojMDA2ZmZmO2ZpbGwtb3BhY2l0eToxO3N0cm9rZTojMDA2ZmZmO3N0cm9rZS13aWR0aDowLjI1O3N0cm9rZS1saW5lY2FwOmJ1dHQ7c3Ryb2tlLWxpbmVqb2luOm1pdGVyO3N0cm9rZS1taXRlcmxpbWl0OjQ7c3Ryb2tlLWRhc2hhcnJheTpub25lO3N0cm9rZS1vcGFjaXR5OjE7bWFya2VyLWVuZDp1cmwoI0Fycm93MUxlbmQtOC05Ni05LTUtOC0xKSIgZD0ibSAxNTQuMjgyNzUsMTUyLjU4MjE4IGggOC4xNTEyNCIgaWQ9InBhdGg2NjQ4LTItNy00LTctNSIvPiYjeGE7ICAgIDx0ZXh0IHN0eWxlPSJmb250LXNpemU6MTAuNTgzMjk5NjRweDtsaW5lLWhlaWdodDoxLjYxMTQ2OTk4cHg7Zm9udC1mYW1pbHk6c2Fucy1zZXJpZjtsZXR0ZXItc3BhY2luZzowcHg7d29yZC1zcGFjaW5nOjBweDt3aGl0ZS1zcGFjZTpwcmU7c2hhcGUtaW5zaWRlOnVybCgjcmVjdDY0OS0xLTMpO2ZpbGw6IzAwNmMwMjtmaWxsLW9wYWNpdHk6MTtzdHJva2U6bm9uZTtzdHJva2Utd2lkdGg6MTtzdHJva2UtbWl0ZXJsaW1pdDo0O3N0cm9rZS1kYXNoYXJyYXk6bm9uZTtzdHJva2Utb3BhY2l0eTowLjc3OTk5OTk4IiBpZD0idGV4dDY0Ny0yLTMtNS0zLTYiIHhtbDpzcGFjZT0icHJlc2VydmUiIHg9Ii0zMC4yNTI1NzciIHk9IjI3LjMwNDMzMSI+PHRzcGFuIGlkPSJ0c3BhbjI4MTI0LTMtMTktOSIgeT0iMTYwLjMzNjUyIiB4PSI5Mi45NDQ3NjMiIHN0eWxlPSJmaWxsOiNkYTZmZmY7ZmlsbC1vcGFjaXR5OjE7c3Ryb2tlLXdpZHRoOjEiPjx0c3BhbiBpZD0idHNwYW4yODExOC01LTQtMyIgc3R5bGU9ImZvbnQtc3R5bGU6aXRhbGljO2ZvbnQtc2l6ZTo0LjkzODg5MDQ2cHg7LWlua3NjYXBlLWZvbnQtc3BlY2lmaWNhdGlvbjonc2Fucy1zZXJpZiwgSXRhbGljJztmaWxsOiNkYTZmZmY7ZmlsbC1vcGFjaXR5OjE7c3Ryb2tlLXdpZHRoOjEiPkY8L3RzcGFuPjx0c3BhbiBpZD0idHNwYW4yODEyMC02LTctNyIgc3R5bGU9ImZvbnQtc3R5bGU6aXRhbGljO2ZvbnQtc2l6ZTo0LjkzODg5MDQ2cHg7LWlua3NjYXBlLWZvbnQtc3BlY2lmaWNhdGlvbjonc2Fucy1zZXJpZiwgSXRhbGljJztiYXNlbGluZS1zaGlmdDpzdWI7ZmlsbDojZGE2ZmZmO2ZpbGwtb3BhY2l0eToxO3N0cm9rZS13aWR0aDoxIj4zPC90c3Bhbj48dHNwYW4gaWQ9InRzcGFuMjgxMjItMi04LTQiIHN0eWxlPSJmb250LXN0eWxlOml0YWxpYztmb250LXNpemU6NC45Mzg4OTA0NnB4Oy1pbmtzY2FwZS1mb250LXNwZWNpZmljYXRpb246J3NhbnMtc2VyaWYsIEl0YWxpYyc7ZmlsbDojZGE2ZmZmO2ZpbGwtb3BhY2l0eToxO3N0cm9rZS13aWR0aDoxIj46PC90c3Bhbj48L3RzcGFuPjwvdGV4dD4mI3hhOyAgICA8dGV4dCB4bWw6c3BhY2U9InByZXNlcnZlIiBpZD0idGV4dDY0Ny0yLTMtNC02LTQtNSIgc3R5bGU9ImZvbnQtc2l6ZToxMC41ODMyOTk2NHB4O2xpbmUtaGVpZ2h0OjEuNjExNDY5OThweDtmb250LWZhbWlseTpzYW5zLXNlcmlmO2xldHRlci1zcGFjaW5nOjBweDt3b3JkLXNwYWNpbmc6MHB4O3doaXRlLXNwYWNlOnByZTtzaGFwZS1pbnNpZGU6dXJsKCNyZWN0NjQ5LTEtMy04KTtmaWxsOiMwMDZjMDI7ZmlsbC1vcGFjaXR5OjE7c3Ryb2tlOm5vbmU7c3Ryb2tlLXdpZHRoOjE7c3Ryb2tlLW1pdGVybGltaXQ6NDtzdHJva2UtZGFzaGFycmF5Om5vbmU7c3Ryb2tlLW9wYWNpdHk6MC43Nzk5OTk5OCIgeD0iLTE5LjkxMTU0MyIgeT0iMjguMDgzNjYyIj48dHNwYW4gaWQ9InRzcGFuMjgxNTAtMi01LTIiIHk9IjE2MS4xMTU4NCIgeD0iMTAzLjI4NTc0IiBzdHlsZT0iZm9udC1zaXplOjQuOTM4ODkwNDZweDstaW5rc2NhcGUtZm9udC1zcGVjaWZpY2F0aW9uOidzYW5zLXNlcmlmLCBOb3JtYWwnO2ZpbGw6I2RhNmZmZjtmaWxsLW9wYWNpdHk6MTtzdHJva2Utd2lkdGg6MSI+Q1U8dHNwYW4gc3R5bGU9ImZvbnQtc2l6ZTo0LjkzODg4OTAzcHg7YmFzZWxpbmUtc2hpZnQ6c3ViO2ZpbGw6I2RhNmZmZjtmaWxsLW9wYWNpdHk6MSIgaWQ9InRzcGFuNTkzMy0zLTQiPjE8L3RzcGFuPiAgICAgICBDVTx0c3BhbiBzdHlsZT0iZm9udC1zaXplOjQuOTM4ODg5MDNweDtiYXNlbGluZS1zaGlmdDpzdWI7ZmlsbDojZGE2ZmZmO2ZpbGwtb3BhY2l0eToxIiBpZD0idHNwYW41OTM3LTYtNyI+MzwvdHNwYW4+IOKJoTwvdHNwYW4+PC90ZXh0PiYjeGE7ICAgIDxwYXRoIGlua3NjYXBlOmNvbm5lY3Rvci1jdXJ2YXR1cmU9IjAiIHN0eWxlPSJmaWxsOiNkYTZmZmY7ZmlsbC1vcGFjaXR5OjE7c3Ryb2tlOiNkYTZmZmY7c3Ryb2tlLXdpZHRoOjAuMjU7c3Ryb2tlLWxpbmVjYXA6YnV0dDtzdHJva2UtbGluZWpvaW46bWl0ZXI7c3Ryb2tlLW1pdGVybGltaXQ6NDtzdHJva2UtZGFzaGFycmF5Om5vbmU7c3Ryb2tlLW9wYWNpdHk6MTttYXJrZXItc3RhcnQ6dXJsKCNtYXJrZXI4Njg5KTttYXJrZXItZW5kOnVybCgjQXJyb3cxTGVuZC04LTk2LTktNS05Mi0zLTUpIiBkPSJtIDExNC4xMjE0MSwxNTkuNTU4MjUgaCA5LjI1Mzc4IiBpZD0icGF0aDY2NDgtMi03LTQtMi0wLTQiLz4mI3hhOyAgICA8dGV4dCB4bWw6c3BhY2U9InByZXNlcnZlIiBpZD0idGV4dDY0Ny0yLTMtNC0zLTYtMyIgc3R5bGU9ImZvbnQtc2l6ZToxMC41ODMyOTk2NHB4O2xpbmUtaGVpZ2h0OjEuNjExNDY5OThweDtmb250LWZhbWlseTpzYW5zLXNlcmlmO2xldHRlci1zcGFjaW5nOjBweDt3b3JkLXNwYWNpbmc6MHB4O3doaXRlLXNwYWNlOnByZTtzaGFwZS1pbnNpZGU6dXJsKCNyZWN0NjQ5LTEtMy04KTtmaWxsOiMwMDZjMDI7ZmlsbC1vcGFjaXR5OjE7c3Ryb2tlOm5vbmU7c3Ryb2tlLXdpZHRoOjE7c3Ryb2tlLW1pdGVybGltaXQ6NDtzdHJva2UtZGFzaGFycmF5Om5vbmU7c3Ryb2tlLW9wYWNpdHk6MC43Nzk5OTk5OCIgeD0iMTguNjgzNDcyIiB5PSIyNy4zNDQ0MDIiPjx0c3BhbiBpZD0idHNwYW4yODE1MC03LTMtMCIgeT0iMTYwLjM3NjU5IiB4PSIxNDEuODgwNiIgc3R5bGU9ImZpbGw6I2RhNmZmZjtmaWxsLW9wYWNpdHk6MTtzdHJva2Utd2lkdGg6MSI+PHRzcGFuIGlkPSJ0c3BhbjI4MTQyLTUtMi03IiBzdHlsZT0iZm9udC1zaXplOjQuOTM4ODkwNDZweDstaW5rc2NhcGUtZm9udC1zcGVjaWZpY2F0aW9uOidzYW5zLXNlcmlmLCBOb3JtYWwnO2ZpbGw6I2RhNmZmZjtmaWxsLW9wYWNpdHk6MTtzdHJva2Utd2lkdGg6MSI+UzwvdHNwYW4+PHRzcGFuIGlkPSJ0c3BhbjI4MTQ0LTktMC04IiBzdHlsZT0iZm9udC1zaXplOjQuOTM4ODkwNDZweDstaW5rc2NhcGUtZm9udC1zcGVjaWZpY2F0aW9uOidzYW5zLXNlcmlmLCBOb3JtYWwnO2Jhc2VsaW5lLXNoaWZ0OnN1YjtmaWxsOiNkYTZmZmY7ZmlsbC1vcGFjaXR5OjE7c3Ryb2tlLXdpZHRoOjEiPkQsMTwvdHNwYW4+PHRzcGFuIGlkPSJ0c3BhbjI4MTQ2LTItNi02IiBzdHlsZT0iZm9udC1zaXplOjQuOTM4ODkwNDZweDstaW5rc2NhcGUtZm9udC1zcGVjaWZpY2F0aW9uOidzYW5zLXNlcmlmLCBOb3JtYWwnO2ZpbGw6I2RhNmZmZjtmaWxsLW9wYWNpdHk6MTtzdHJva2Utd2lkdGg6MSI+ICAgICAgIFM8L3RzcGFuPjx0c3BhbiBpZD0idHNwYW4yODE0OC0yLTEtOCIgc3R5bGU9ImZvbnQtc2l6ZTo0LjkzODg5MDQ2cHg7LWlua3NjYXBlLWZvbnQtc3BlY2lmaWNhdGlvbjonc2Fucy1zZXJpZiwgTm9ybWFsJztiYXNlbGluZS1zaGlmdDpzdWI7ZmlsbDojZGE2ZmZmO2ZpbGwtb3BhY2l0eToxO3N0cm9rZS13aWR0aDoxIj5JLDM8L3RzcGFuPjwvdHNwYW4+PC90ZXh0PiYjeGE7ICAgIDxwYXRoIGlua3NjYXBlOmNvbm5lY3Rvci1jdXJ2YXR1cmU9IjAiIHN0eWxlPSJmaWxsOiNkYTZmZmY7ZmlsbC1vcGFjaXR5OjE7c3Ryb2tlOiNkYTZmZmY7c3Ryb2tlLXdpZHRoOjAuMjU7c3Ryb2tlLWxpbmVjYXA6YnV0dDtzdHJva2UtbGluZWpvaW46bWl0ZXI7c3Ryb2tlLW1pdGVybGltaXQ6NDtzdHJva2UtZGFzaGFycmF5Om5vbmU7c3Ryb2tlLW9wYWNpdHk6MTttYXJrZXItc3RhcnQ6dXJsKCNtYXJrZXI4Njg5LTQpO21hcmtlci1lbmQ6dXJsKCNBcnJvdzFMZW5kLTgtOTYtOS01LTkyLTMtNS0xKSIgZD0ibSAxNTMuODA3MjUsMTU5LjUzOTc1IGggOS4yNTM3OCIgaWQ9InBhdGg2NjQ4LTItNy00LTItMC00LTkiLz4mI3hhOyAgICA8cmVjdCBzdHlsZT0ib3BhY2l0eTowLjgwOTQ0Mzk5O2ZpbGw6bm9uZTtmaWxsLW9wYWNpdHk6MTtzdHJva2U6IzAwMDAwMDtzdHJva2Utd2lkdGg6MC41O3N0cm9rZS1saW5lY2FwOnNxdWFyZTtzdHJva2UtbWl0ZXJsaW1pdDo0O3N0cm9rZS1kYXNoYXJyYXk6bm9uZTtzdHJva2Utb3BhY2l0eTowLjQ3MDU4ODI0O3BhaW50LW9yZGVyOnN0cm9rZSBmaWxsIG1hcmtlcnMiIGlkPSJyZWN0MjgyNC02LTIwIiB3aWR0aD0iODcuMDE4ODIyIiBoZWlnaHQ9IjMwLjI3MTEzMyIgeD0iOTEuNTczMzU3IiB5PSIxMzMuOTM2NjYiIHJ4PSIzLjE1Mjc2MTkiIHJ5PSIxLjA5NjExOTYiLz4mI3hhOyAgPC9nPiYjeGE7PC9zdmc+;" parent="1" vertex="1">
          <mxGeometry x="80" y="260" width="569.64" height="290" as="geometry" />
        </mxCell>
        <mxCell id="gHZApbhWTlRZjISC3uS1-1" value="CU1" style="swimlane;" vertex="1" parent="1">
          <mxGeometry x="50" y="60" width="110" height="110" as="geometry" />
        </mxCell>
        <mxCell id="gHZApbhWTlRZjISC3uS1-2" value="CU3" style="swimlane;" vertex="1" parent="1">
          <mxGeometry x="539.64" y="60" width="110" height="110" as="geometry" />
        </mxCell>
        <mxCell id="gHZApbhWTlRZjISC3uS1-3" value="&lt;font style=&quot;font-size: 18px&quot;&gt;&lt;b style=&quot;font-size: 18px&quot;&gt;&lt;font style=&quot;font-size: 18px&quot;&gt;SW&lt;font style=&quot;font-size: 18px&quot;&gt;3&lt;/font&gt;&lt;/font&gt;&lt;/b&gt;&lt;/font&gt;" style="ellipse;whiteSpace=wrap;html=1;aspect=fixed;" vertex="1" parent="1">
          <mxGeometry x="324.82" y="30" width="80" height="80" as="geometry" />
        </mxCell>
      </root>
    </mxGraphModel>
  </diagram>
</mxfile>
